<svg xmlns="http://www.w3.org/2000/svg" xmlns:xlink="http://www.w3.org/1999/xlink" width="1200" height="275" viewBox="0 0 1200 275">
    <defs>
        <path id="a" d="M85.89 57.677V.373H1.417v57.304H85.89z"/>
        <path id="c" d="M58.426 72.198V.576H1.876v71.622h56.55z"/>
        <path id="e" d="M28.277 56.9c9.04 0 17.912-4.387 23.296-12.492L43.783 5.6A27.786 27.786 0 0 0 28.333.915c-9.04 0-17.912 4.386-23.294 12.49A27.892 27.892 0 0 0 .358 28.884c0 9.054 4.379 17.938 12.47 23.33a27.772 27.772 0 0 0 15.45 4.687z"/>
        <path id="g" d="M36.7 50.934C23.31 56.419 8.012 49.992 2.541 36.58c-5.479-13.414.94-28.733 14.33-34.216 13.392-5.485 28.684.941 34.16 14.354L36.699 50.934z"/>
        <path id="i" d="M186.948 70.98c0-21.56-7.475-43.217-22.715-60.759L33.79 1.155C12.782 19.47 2.027 45.195 2.027 71.058c0 21.56 7.474 43.217 22.715 60.758 18.282 21.043 43.964 31.816 69.786 31.816 21.524 0 43.145-7.486 60.657-22.75 21.007-18.314 31.763-44.038 31.763-69.901z"/>
        <path id="k" d="M112.4 43.799c0-15.39-6.292-30.713-18.646-41.78L14.772 6.427C5.225 17.117.526 30.464.526 43.76c0 15.39 6.293 30.713 18.644 41.78 10.674 9.563 23.997 14.27 37.273 14.27 15.364 0 30.663-6.304 41.712-18.677 9.547-10.692 14.246-24.038 14.246-37.335z"/>
        <path id="m" d="M65.97 100.558c-27.103 7.565-55.197-8.312-62.752-35.463-7.551-27.148 8.3-55.29 35.406-62.854 27.103-7.565 55.2 8.31 62.75 35.46L65.97 100.559z"/>
        <path id="o" d="M53.588 39.073c-5.8 13.818-21.682 20.31-35.478 14.502C4.314 47.768-2.168 31.857 3.634 18.038 9.429 4.222 25.314-2.272 39.11 3.534l14.478 35.539z"/>
        <path id="q" d="M72.408 1.13c42.919-3.6 80.622 28.333 84.217 71.319 3.592 42.99-28.286 80.755-71.205 84.354-42.915 3.6-80.62-28.333-84.214-71.319L72.408 1.13z"/>
        <path id="s" d="M107.086 43.863c0-16.769-7.849-33.282-22.551-43.71L10.073 12.897A53.318 53.318 0 0 0 .246 43.772c0 16.77 7.849 33.282 22.552 43.71 9.373 6.648 20.149 9.842 30.821 9.842 16.742 0 33.228-7.861 43.64-22.588a53.322 53.322 0 0 0 9.827-30.873z"/>
        <path id="u" d="M167.454 71.723c0-14.548-3.802-29.285-11.79-42.683L41.47.186C15.358 15.803.873 43.485.873 71.883c0 14.55 3.802 29.287 11.79 42.686 15.593 26.154 43.228 40.661 71.579 40.661 14.525 0 29.238-3.808 42.616-11.81 26.11-15.617 40.596-43.299 40.596-71.697z"/>
        <path id="w" d="M111.351 56c0-.333-.003-.667-.009-1.001L55.552 1.083C25.62 1.621 1.718 26.096 1.718 55.96V1.075h109.634V56zM1.717 55.96c0 .335.003.67.01 1.005.536 29.985 24.97 53.924 54.785 53.925h54.839V56L1.717 55.96z"/>
        <path id="y" d="M49.793 22.48c0-4.074-1.002-8.205-3.111-12.022L12.934.743C4.747 5.282.124 13.77.124 22.525c0 4.073 1.002 8.204 3.11 12.021 4.532 8.201 13.007 12.83 21.746 12.83 4.067 0 8.192-1.002 12.002-3.114 8.188-4.54 12.81-13.03 12.81-21.782z"/>
        <path id="A" d="M49.11 97.798c9.167 0 18.436-2.605 26.655-8.05l13.68-67.19C80.131 8.454 64.726.81 49.021.81c-9.168 0-18.438 2.605-26.657 8.05C8.283 18.187.652 33.618.652 49.35c0 9.182 2.6 18.467 8.035 26.7C18 90.153 33.404 97.799 49.11 97.799z"/>
        <path id="C" d="M89.765 31.71c6.708 24.06-7.326 49.011-31.345 55.728C34.4 94.156 9.49 80.098 2.782 56.04-3.925 31.982 10.11 7.03 34.13.311l55.635 31.4z"/>
        <path id="E" d="M169.927 76.58c4.9 46.528-28.785 88.227-75.237 93.14-46.451 4.91-88.082-28.826-92.985-75.358C-3.2 47.832 30.488 6.132 76.939 1.223l92.988 75.357z"/>
        <path id="G" d="M68.102 135.246c11.653 0 23.456-3.065 34.179-9.504l22.876-91.509C112.674 13.376 90.607 1.817 67.975 1.817c-11.653 0-23.456 3.064-34.179 9.502C12.974 23.823 1.434 45.925 1.434 68.593c0 11.673 3.06 23.496 9.489 34.236 12.483 20.857 34.547 32.417 57.179 32.417z"/>
        <path id="I" d="M161.818 76.575c3.11 44.484-30.372 83.072-74.784 86.187C42.62 165.877 4.099 132.342.989 87.857-2.123 43.37 31.359 4.78 75.77 1.665l86.047 74.91z"/>
        <path id="K" d="M152.863 65.226c6.767 41.72-21.51 81.033-63.159 87.81-41.65 6.779-80.898-21.546-87.665-63.264C-4.726 48.054 23.55 8.74 65.199 1.962l87.664 63.264z"/>
        <path id="M" d="M50.379 37.76c-5.725 12.852-20.766 18.623-33.596 12.888C3.955 44.913-1.807 29.846 3.92 16.997 9.644 4.146 24.687-1.625 37.515 4.112L50.379 37.76z"/>
        <path id="O" d="M66.85 1.79c34.094 1.733 60.325 30.82 58.599 64.966-1.733 34.149-30.772 60.427-64.864 58.694C26.497 123.717.26 94.63 1.99 60.484L66.85 1.79z"/>
        <path id="Q" d="M71.956 141.346c21.557 0 42.84-9.864 56.68-28.531l-14.57-98.84C101.428 4.575 86.685.04 72.068.041c-21.558 0-42.84 9.863-56.68 28.53C6.004 41.227 1.477 55.995 1.477 70.636c0 21.593 9.847 42.91 28.483 56.773 12.635 9.4 27.379 13.936 41.996 13.936z"/>
        <path id="S" d="M161.16 124.697c-20.959 41.815-71.79 58.698-113.536 37.706C5.875 141.41-10.977 90.493 9.98 48.678 30.934 6.863 81.767-10.02 123.518 10.972l37.641 113.725z"/>
        <path id="U" d="M33.754 1.843c14.409 3.689 23.1 18.381 19.418 32.811-3.687 14.432-18.353 23.14-32.761 19.452C6.004 50.413-2.69 35.723.995 21.291l32.76-19.448z"/>
        <path id="W" d="M62.229 36.758C59.654 53.59 43.937 65.142 27.135 62.56 10.331 59.98-1.205 44.243 1.371 27.41 3.951 10.577 19.663-.976 36.467 1.606l25.762 35.152z"/>
        <path id="Y" d="M116.218.866c45.685 15.077 70.524 64.396 55.47 110.16-15.052 45.765-64.292 70.64-109.979 55.562-45.69-15.075-70.525-64.396-55.472-110.16L116.218.865z"/>
        <path id="aa" d="M156.5 48.549c15.212 41.942-6.4 88.293-48.272 103.529C66.36 167.316 20.083 145.67 4.872 103.73-10.342 61.788 11.269 15.437 53.14.201L156.5 48.549z"/>
        <path id="ac" d="M52.295 28.052c-1.022 14.178-13.327 24.84-27.48 23.815C10.663 50.843.017 38.523 1.04 24.344 2.062 10.166 14.364-.497 28.517.527l23.778 27.525z"/>
        <path id="ae" d="M35.083.427c16.42 2.578 27.644 17.996 25.073 34.443-2.569 16.447-17.964 27.69-34.383 25.115C9.355 57.409-1.872 41.989.7 25.545L35.083.426z"/>
        <path id="ag" d="M26.37 54.113c7.408 0 14.77-3.13 19.95-9.22l-2.953-36.98a26.057 26.057 0 0 0-16.97-6.266c-7.408 0-14.769 3.131-19.95 9.224A26.15 26.15 0 0 0 .195 27.869c0 7.42 3.125 14.793 9.205 19.982a26.064 26.064 0 0 0 16.971 6.262z"/>
        <path id="ai" d="M49.423 97.577c11.706 0 23.446-4.222 32.752-12.772l2.962-68.612C75.574 5.75 62.505.456 49.393.455h48.494v97.122H49.423zm0 0zM.927 49.03zM49.393.455c-11.707 0-23.448 4.222-32.756 12.773C6.214 22.806.927 35.897.927 49.03L49.393.455z"/>
        <path id="ak" d="M43.018 67.893c-18.217 4.524-36.65-6.6-41.17-24.85C-2.67 24.793 8.439 6.329 26.66 1.805c18.217-4.526 36.65 6.598 41.17 24.85L43.018 67.893z"/>
        <path id="am" d="M71.079 44.205c-4.261 19.1-23.176 31.122-42.25 26.854-19.068-4.27-31.073-23.221-26.807-42.32C6.283 9.638 25.2-2.384 44.269 1.886l26.81 42.32z"/>
        <path id="ao" d="M54.262 10.194c8.468 13.714 4.238 31.708-9.454 40.192-13.693 8.48-31.654 4.24-40.122-9.472C-3.782 27.199.45 9.207 14.14.726l40.122 9.468z"/>
        <path id="aq" d="M61.176 25.97c0-9.638-4.56-19.12-13.064-25.033l-42.29 7.65A30.324 30.324 0 0 0 .396 25.915c0 9.637 4.56 19.118 13.063 25.03A30.22 30.22 0 0 0 30.76 56.38c9.622 0 19.087-4.566 24.99-13.083a30.324 30.324 0 0 0 5.426-17.327z"/>
        <path id="as" d="M38.506 1.938c16.825 3.71 27.462 20.381 23.76 37.236-3.703 16.853-20.346 27.508-37.172 23.8C8.267 59.265-2.373 42.595 1.331 25.74l37.175-23.8z"/>
        <path id="au" d="M61.61 100.103C34.707 105.586 8.46 88.183 2.99 61.235-2.486 34.29 14.887 8.001 41.79 2.518c26.904-5.479 53.147 11.92 58.621 38.868L61.61 100.103z"/>
    </defs>
    <g fill="none" fill-rule="evenodd" opacity=".15" style="mix-blend-mode:multiply">
        <path fill="#E9EDF0" d="M262.577 177.598l-38.934 25.846 32.167 13.709z"/>
        <path fill="#AFB9BF" d="M262.577 177.598l2.147 50.038-8.914-10.483z"/>
        <path fill="#828B91" d="M223.642 203.444l41.081 24.194-8.913-10.483z"/>
        <path fill="#E9EDF0" d="M343.466 177.402l-30.948-7.114-3.581 13.084z"/>
        <path fill="#AFB9BF" d="M343.466 177.402L327 207.64l-18.063-24.268z"/>
        <path fill="#E9EDF0" d="M575.605 200.45l26.94 122.515 66.57-14.892z"/>
        <path fill="#AFB9BF" d="M575.605 200.45l135.087 31.562-41.578 76.061z"/>
        <path fill="#E9EDF0" d="M173.98 104.261l40.037 84.634 48.264-37.014z"/>
        <path fill="#AFB9BF" d="M173.98 104.261l99.591 9.993-11.29 37.627z"/>
        <path fill="#E9EDF0" d="M358.838-1.733l16.582 34.259 14.876-6.467z"/>
        <path fill="#AFB9BF" d="M358.838-1.733l40.515-7.292-9.057 35.084z"/>
        <g transform="translate(1113.38 70.398)">
            <mask id="b" fill="#fff">
                <use xlink:href="#a"/>
            </mask>
            <path fill="#E9EDF0" d="M85.891 11.157L1.416.373l28.092 57.304z" mask="url(#b)"/>
        </g>
        <g transform="translate(1140.845 80.978)">
            <mask id="d" fill="#fff">
                <use xlink:href="#c"/>
            </mask>
            <path fill="#AFB9BF" d="M58.426.576L1.876 72.198l.167-25.102z" mask="url(#d)"/>
        </g>
        <path fill="#828B91" d="M1114.795 70.77l27.928 82.406.165-25.1z"/>
        <path fill="#E9EDF0" d="M639.082 63.345l-32.377 31.72 20.641 1.926z"/>
        <path fill="#AFB9BF" d="M639.082 63.345l11.147 47.26-22.883-13.614z"/>
        <path fill="#828B91" d="M606.705 95.065l43.525 15.541-22.882-13.615z"/>
        <path fill="#AFB9BF" d="M677.707 299.725l73.72-71.145 29.67 85.072z"/>
        <path fill="#E9EDF0" d="M213.361 216.488l21.65 61.13 26.397-8.15z"/>
        <path fill="#AFB9BF" d="M213.361 216.488l69.964-4.713-21.917 57.693z"/>
        <path fill="#E9EDF0" d="M769.763 138.656l19.398 138.07 42.364-47.661z"/>
        <path fill="#AFB9BF" d="M769.763 138.656l137.1 58.478-75.338 31.93z"/>
        <path fill="#828B91" d="M789.16 276.725l117.702-79.591-75.336 31.932z"/>
        <path fill="#E9EDF0" d="M304.753-29.735L270.37 36.188l35.896 18.65z"/>
        <path fill="#AFB9BF" d="M304.753-29.735L354.09 36.17l-47.823 18.669z"/>
        <path fill="#E9EDF0" d="M211.46 166.818l4.432 41.333 23.951-19.807z"/>
        <path fill="#AFB9BF" d="M211.46 166.818l40.284 18.77-11.901 2.756z"/>
        <path fill="#828B91" d="M215.891 208.152l35.852-22.563-11.9 2.755z"/>
        <path fill="#E9EDF0" d="M1000.835 233.184l-79.524 14.968 42.112 43.593z"/>
        <path fill="#AFB9BF" d="M1000.835 233.184l-30.24 81.305-7.172-22.744z"/>
        <path fill="#828B91" d="M921.312 248.152l49.283 66.338-7.17-22.745z"/>
        <path fill="#E9EDF0" d="M402.551 21.78l-9.503 75 50.692-24.966z"/>
        <path fill="#AFB9BF" d="M402.551 21.78l63.402 50.168-22.213-.134z"/>
        <path fill="#828B91" d="M393.05 96.781l72.901-24.833-22.21-.133z"/>
        <path fill="#E9EDF0" d="M847.065 184.835L806.183 320.39l59.339-25.845z"/>
        <path fill="#AFB9BF" d="M847.065 184.835L948.558 297.28l-83.036-2.736z"/>
        <path fill="#E9EDF0" d="M1110.877 190.192l-80.512-5.957-3.976 34.267z"/>
        <path fill="#AFB9BF" d="M1110.877 190.192l-29.77 82.336-54.718-54.026z"/>
        <path fill="#E9EDF0" d="M272.931 18.244L229.444 145.99l86.99 10.306z"/>
        <path fill="#AFB9BF" d="M272.931 18.244l92.905 110.525-49.403 27.527z"/>
        <path fill="#E9EDF0" d="M922.763 133.098L892.72 257.425l52.217-26.308z"/>
        <path fill="#AFB9BF" d="M922.763 133.098l97.204 96.286-75.03 1.733z"/>
        <path fill="#828B91" d="M892.721 257.425l127.244-28.042-75.027 1.734z"/>
        <path fill="#E9EDF0" d="M541.619 163.728l-26.491 15.81 6.255 11.592z"/>
        <path fill="#AFB9BF" d="M541.619 163.728l8.7 32.292-28.936-4.89z"/>
        <path fill="#E9EDF0" d="M390.44 187.59l93.063 44.94-11.895-45.839z"/>
        <path fill="#AFB9BF" d="M390.44 187.59l92.556-60.634-11.388 59.735z"/>
        <path fill="#828B91" d="M483.503 232.529l-.507-105.573-11.387 59.735z"/>
        <path fill="#E9EDF0" d="M762.975 5.375L661.463 65.428l50.981 17.708z"/>
        <path fill="#AFB9BF" d="M762.975 5.375l-1.12 126.41-49.411-48.65z"/>
        <path fill="#828B91" d="M661.463 65.427l100.393 66.357-49.412-48.649z"/>
        <path fill="#E9EDF0" d="M1076.466-8.92L973.45 55.426l32.119 54.155z"/>
        <path fill="#AFB9BF" d="M1076.466-8.92l29.282 121.901-100.18-3.4z"/>
        <path fill="#E9EDF0" d="M949.522 152.519l26.698 24.896 13.491-14.601z"/>
        <path fill="#AFB9BF" d="M949.522 152.519l37.59-14.826 2.6 25.12z"/>
        <path fill="#E9EDF0" d="M1108.767 50.835l-26.924 43.921 38.49-1.252z"/>
        <path fill="#AFB9BF" d="M1108.767 50.835l25.327 48.996-13.76-6.327z"/>
        <path fill="#828B91" d="M1081.842 94.757l52.251 5.075-13.76-6.33z"/>
        <path fill="#E9EDF0" d="M263.928 115.16l109.766 95.804.883-66.74z"/>
        <path fill="#AFB9BF" d="M263.928 115.16l148.345-47.868-37.696 76.933z"/>
        <path fill="#828B91" d="M373.694 210.965l38.58-143.674-37.7 76.935z"/>
        <path fill="#E9EDF0" d="M108.661 113.042l-6.743 134.884 48.997-37.576z"/>
        <path fill="#AFB9BF" d="M108.661 113.042l119.743 80.723-77.49 16.585z"/>
        <path fill="#828B91" d="M101.917 247.927l126.486-54.161-77.49 16.584z"/>
        <path fill="#E9EDF0" d="M557.965 72.921l-19.728 24.145 9.919 8.854z"/>
        <path fill="#AFB9BF" d="M557.965 72.921l19.356 27.67-29.165 5.33z"/>
        <path fill="#E9EDF0" d="M562.347 166.58l42.78 26.5-3.433-22.8z"/>
        <path fill="#AFB9BF" d="M562.347 166.58l47.897-24.644-8.55 28.344z"/>
        <path fill="#828B91" d="M605.127 193.08l5.117-51.143-8.55 28.344z"/>
        <path fill="#E9EDF0" d="M524.168 93.092l-39.095 19.73 28.418 16.333z"/>
        <path fill="#AFB9BF" d="M524.168 93.092l-3.543 46.807-7.134-10.744z"/>
        <path fill="#828B91" d="M485.073 112.822l35.552 27.076-7.134-10.743z"/>
        <path fill="#E9EDF0" d="M935.137 185.618l-76.297 27.351 48.507 36.468z"/>
        <path fill="#AFB9BF" d="M935.137 185.618l-17.12 85.182-10.67-21.363z"/>
        <path fill="#828B91" d="M858.84 212.97l59.176 57.83-10.67-21.362z"/>
        <path fill="#E9EDF0" d="M1080.813 120.476l-44.54-11.69-6.285 24.312z"/>
        <path fill="#AFB9BF" d="M1080.813 120.476l-32.939 38.99-17.886-26.368z"/>
        <path fill="#E9EDF0" d="M731.708 150.642l-34.287 48.266 26.969-2.303z"/>
        <path fill="#AFB9BF" d="M731.708 150.642l25.234 58.16-32.552-12.197z"/>
        <path fill="#828B91" d="M697.42 198.908l59.523 9.895-32.552-12.197z"/>
        <path fill="#E9EDF0" d="M1084.894 153.078l7.544 48.214 26.962-24.591z"/>
        <path fill="#AFB9BF" d="M1084.894 153.078l48.302 19.712-13.796 3.91z"/>
        <path fill="#828B91" d="M1092.439 201.292l40.758-28.503-13.796 3.91z"/>
        <path fill="#E9EDF0" d="M449.067 68.84l27.218 42.955 6.908-22.232z"/>
        <path fill="#AFB9BF" d="M449.067 68.84l54.357-1.258-20.23 21.98z"/>
        <path fill="#828B91" d="M476.284 111.795l27.142-44.213-20.231 21.98z"/>
        <path fill="#E9EDF0" d="M231.72 69.007l42.586 30.144 13.337-31.217z"/>
        <path fill="#AFB9BF" d="M231.72 69.007l51.123-22.455 4.8 21.382z"/>
        <path fill="#E9EDF0" d="M706.15 143.414l-81.47-16.358 18.42 33.323z"/>
        <path fill="#AFB9BF" d="M706.15 143.414l-59.99 65.778-3.06-48.813z"/>
        <path fill="#828B91" d="M624.681 127.056l21.48 82.136-3.06-48.813z"/>
        <g transform="translate(126.76 144.463)">
            <mask id="f" fill="#fff">
                <use xlink:href="#e"/>
            </mask>
            <path d="M51.573 44.408c-8.55 12.872-25.898 16.366-38.745 7.804C-.023 43.65-3.509 26.276 5.038 13.406 13.588.536 30.933-2.958 43.784 5.6c12.85 8.562 16.335 25.938 7.79 38.807" mask="url(#f)"/>
        </g>
        <path fill="#E9EDF0" d="M161.52 136.332l-38.934 25.847 32.168 13.709z"/>
        <path fill="#AFB9BF" d="M161.52 136.332l2.147 50.04-8.913-10.484z"/>
        <path fill="#828B91" d="M122.585 162.179l41.081 24.192-8.913-10.481z"/>
        <g transform="translate(194.366 123.302)">
            <mask id="h" fill="#fff">
                <use xlink:href="#g"/>
            </mask>
            <path d="M36.7 50.934C23.31 56.419 8.012 49.992 2.541 36.58c-5.479-13.414.94-28.733 14.33-34.216 13.392-5.485 28.684.941 34.16 14.354 5.474 13.414-.943 28.733-14.333 34.216" mask="url(#h)"/>
        </g>
        <path fill="#E9EDF0" d="M242.41 136.137l-30.949-7.114-3.58 13.084z"/>
        <path fill="#AFB9BF" d="M242.41 136.137l-16.466 30.238-18.064-24.268z"/>
        <g transform="translate(475.352 144.463)">
            <mask id="j" fill="#fff">
                <use xlink:href="#i"/>
            </mask>
            <path d="M164.233 10.221c33.522 38.584 29.472 97.081-9.048 130.66-38.519 33.577-96.922 29.519-130.443-9.065C-8.78 93.234-4.73 34.736 33.79 1.156c38.518-33.578 96.921-29.519 130.443 9.065" mask="url(#j)"/>
        </g>
        <path fill="#E9EDF0" d="M474.547 159.184L501.488 281.7l66.568-14.892z"/>
        <path fill="#AFB9BF" d="M474.547 159.184l135.087 31.563-41.578 76.061z"/>
        <g transform="translate(92.958 47.12)">
            <mask id="l" fill="#fff">
                <use xlink:href="#k"/>
            </mask>
            <path d="M93.754 2.019c23.028 20.63 24.997 56.05 4.4 79.115-20.596 23.064-55.958 25.038-78.984 4.408C-3.854 64.912-5.825 29.49 14.772 6.427 35.368-16.637 70.73-18.612 93.754 2.019" mask="url(#l)"/>
        </g>
        <path fill="#E9EDF0" d="M72.923 62.996l40.038 84.634 48.264-37.014z"/>
        <path fill="#AFB9BF" d="M72.923 62.996l99.592 9.993-11.29 37.627z"/>
        <g transform="translate(992.958 32.307)">
            <mask id="n" fill="#fff">
                <use xlink:href="#m"/>
            </mask>
            <path d="M65.97 100.558c-27.103 7.565-55.197-8.312-62.752-35.463-7.551-27.148 8.3-55.29 35.406-62.854 27.103-7.565 55.2 8.31 62.75 35.46 7.551 27.15-8.296 55.292-35.404 62.857" mask="url(#n)"/>
        </g>
        <path fill="#E9EDF0" d="M1098.214 40.29l-84.473-10.784 28.09 57.303z"/>
        <path fill="#AFB9BF" d="M1098.214 40.29l-56.548 71.621.165-25.102z"/>
        <path fill="#828B91" d="M1013.74 29.505l27.927 82.406.163-25.1z"/>
        <g transform="translate(507.042 32.307)">
            <mask id="p" fill="#fff">
                <use xlink:href="#o"/>
            </mask>
            <path d="M53.588 39.073c-5.8 13.818-21.682 20.31-35.478 14.502C4.314 47.768-2.168 31.857 3.634 18.038 9.429 4.222 25.314-2.272 39.11 3.534c13.796 5.809 20.28 21.72 14.478 35.539" mask="url(#p)"/>
        </g>
        <path fill="#E9EDF0" d="M538.024 22.08L505.65 53.8l20.639 1.926z"/>
        <path fill="#AFB9BF" d="M538.024 22.08l11.149 47.26-22.884-13.614z"/>
        <path fill="#828B91" d="M505.65 53.8l43.525 15.541-22.885-13.615z"/>
        <g transform="translate(570.423 159.276)">
            <mask id="r" fill="#fff">
                <use xlink:href="#q"/>
            </mask>
            <path d="M72.408 1.13c42.919-3.6 80.622 28.333 84.217 71.319 3.592 42.99-28.286 80.755-71.205 84.354-42.915 3.6-80.62-28.333-84.214-71.319C-2.387 42.494 29.493 4.73 72.408 1.13" mask="url(#r)"/>
        </g>
        <path fill="#E9EDF0" d="M576.649 258.46l81.553 47.891 21.837-33.964z"/>
        <path fill="#AFB9BF" d="M576.649 258.46l73.72-71.147 29.67 85.074z"/>
        <g transform="translate(105.634 152.928)">
            <mask id="t" fill="#fff">
                <use xlink:href="#s"/>
            </mask>
            <path d="M84.535.152c24.076 17.078 29.771 50.469 12.724 74.584-17.05 24.114-50.385 29.821-74.461 12.746C-1.278 70.407-6.976 37.014 10.073 12.898 27.12-11.218 60.458-16.925 84.535.152" mask="url(#t)"/>
        </g>
        <path fill="#E9EDF0" d="M112.305 175.223l21.648 61.13 26.398-8.15z"/>
        <path fill="#AFB9BF" d="M112.305 175.223l69.963-4.713-21.917 57.693z"/>
        <g transform="translate(676.056 102.14)">
            <mask id="v" fill="#fff">
                <use xlink:href="#u"/>
            </mask>
            <path d="M155.664 29.04c23.58 39.551 10.682 90.762-28.806 114.38-39.488 23.62-90.613 10.702-114.195-28.851C-10.917 75.016 1.98 23.805 41.47.186c39.486-23.616 90.612-10.7 114.194 28.854" mask="url(#v)"/>
        </g>
        <path fill="#E9EDF0" d="M668.707 97.391l19.397 138.069 42.363-47.66z"/>
        <path fill="#AFB9BF" d="M668.707 97.391l137.1 58.478-75.34 31.93z"/>
        <path fill="#828B91" d="M688.103 235.46l117.703-79.592-75.338 31.933z"/>
        <g transform="translate(169.014 -65.037)">
            <mask id="x" fill="#fff">
                <use xlink:href="#w"/>
            </mask>
            <path d="M111.342 54.999c.541 30.32-23.556 55.338-53.827 55.882-30.268.543-55.246-23.596-55.789-53.916C1.183 26.647 25.285 1.627 55.553 1.083 85.82.542 110.799 24.681 111.343 55" mask="url(#x)"/>
        </g>
        <path fill="#E9EDF0" d="M203.696-71L169.312-5.076l35.897 18.648z"/>
        <path fill="#AFB9BF" d="M205.21 13.573l47.822-18.669L203.697-71z"/>
        <g transform="translate(111.972 123.302)">
            <mask id="z" fill="#fff">
                <use xlink:href="#y"/>
            </mask>
            <path d="M46.682 10.458c6.642 12.018 2.298 27.15-9.7 33.804-11.997 6.65-27.107 2.302-33.747-9.716C-3.405 22.526.938 7.394 12.934.743c12-6.653 27.108-2.3 33.748 9.715" mask="url(#z)"/>
        </g>
        <path fill="#E9EDF0" d="M110.403 125.553l4.432 41.333 23.951-19.807z"/>
        <path fill="#AFB9BF" d="M110.403 125.553l40.284 18.77-11.9 2.756z"/>
        <path fill="#828B91" d="M114.834 166.887l35.852-22.563-11.9 2.755z"/>
        <g transform="translate(815.493 197.367)">
            <mask id="B" fill="#fff">
                <use xlink:href="#A"/>
            </mask>
            <path d="M75.765 89.749c-22.3 14.772-52.331 8.638-67.078-13.7C-6.059 53.712.063 23.63 22.365 8.86c22.3-14.773 52.33-8.64 67.08 13.698 14.744 22.336 8.621 52.42-13.68 67.19" mask="url(#B)"/>
        </g>
        <path fill="#E9EDF0" d="M899.779 191.92l-79.525 14.968 42.114 43.59z"/>
        <path fill="#AFB9BF" d="M899.779 191.92l-30.239 81.303-7.172-22.745z"/>
        <path fill="#828B91" d="M820.255 206.887l49.284 66.337-7.17-22.744z"/>
        <g transform="translate(293.662 -16.365)">
            <mask id="D" fill="#fff">
                <use xlink:href="#C"/>
            </mask>
            <path d="M89.765 31.71c6.708 24.06-7.326 49.011-31.345 55.728C34.4 94.156 9.49 80.098 2.782 56.04-3.925 31.982 10.11 7.03 34.13.311c24.02-6.719 48.928 7.339 55.635 31.4" mask="url(#D)"/>
        </g>
        <path fill="#E9EDF0" d="M301.495-19.485l-9.503 75 50.693-24.966z"/>
        <path fill="#AFB9BF" d="M301.495-19.485l63.4 50.167-22.21-.133z"/>
        <path fill="#828B91" d="M291.993 55.516l72.904-24.833-22.213-.133z"/>
        <g transform="translate(711.972 167.741)">
            <mask id="F" fill="#fff">
                <use xlink:href="#E"/>
            </mask>
            <path d="M169.927 76.58c4.9 46.528-28.785 88.227-75.237 93.14-46.451 4.91-88.082-28.826-92.985-75.358C-3.2 47.832 30.488 6.132 76.939 1.223c46.452-4.91 88.084 28.829 92.988 75.357" mask="url(#F)"/>
        </g>
        <path fill="#E9EDF0" d="M746.01 143.57l-40.885 135.554 59.339-25.844z"/>
        <path fill="#AFB9BF" d="M746.01 143.57L847.5 256.015l-83.036-2.736z"/>
        <path fill="#828B91" d="M705.126 279.124L847.5 256.015l-83.036-2.736z"/>
        <g transform="translate(893.662 123.302)">
            <mask id="H" fill="#fff">
                <use xlink:href="#G"/>
            </mask>
            <path d="M102.281 125.742c-31.549 18.944-72.448 8.683-91.358-22.913-18.913-31.597-8.67-72.568 22.873-91.51 31.547-18.941 72.45-8.682 91.361 22.914 18.908 31.599 8.67 72.568-22.876 91.51" mask="url(#H)"/>
        </g>
        <path fill="#E9EDF0" d="M1009.82 148.927l-80.512-5.957-3.974 34.267z"/>
        <path fill="#AFB9BF" d="M1009.82 148.927l-29.77 82.336-54.716-54.026z"/>
        <g transform="translate(141.55 .564)">
            <mask id="J" fill="#fff">
                <use xlink:href="#I"/>
            </mask>
            <path d="M161.818 76.575c3.11 44.484-30.372 83.072-74.784 86.187C42.62 165.877 4.099 132.342.989 87.857-2.123 43.37 31.359 4.78 75.77 1.665c44.413-3.112 82.937 30.424 86.047 74.91" mask="url(#J)"/>
        </g>
        <path fill="#E9EDF0" d="M171.874-23.021l-43.487 127.746 86.99 10.306z"/>
        <path fill="#AFB9BF" d="M171.874-23.021L264.78 87.504l-49.402 27.527z"/>
        <g transform="translate(796.479 110.605)">
            <mask id="L" fill="#fff">
                <use xlink:href="#K"/>
            </mask>
            <path d="M152.863 65.226c6.767 41.72-21.51 81.033-63.159 87.81-41.65 6.779-80.898-21.546-87.665-63.264C-4.726 48.054 23.55 8.74 65.199 1.962c41.652-6.774 80.897 21.549 87.664 63.264" mask="url(#L)"/>
        </g>
        <path fill="#E9EDF0" d="M821.705 91.833L791.663 216.16l52.219-26.308z"/>
        <path fill="#AFB9BF" d="M821.705 91.833l97.206 96.285-75.03 1.734z"/>
        <path fill="#828B91" d="M791.663 216.16l127.247-28.04-75.028 1.732z"/>
        <g transform="translate(407.746 119.07)">
            <mask id="N" fill="#fff">
                <use xlink:href="#M"/>
            </mask>
            <path d="M50.379 37.76c-5.725 12.852-20.766 18.623-33.596 12.888C3.955 44.913-1.807 29.846 3.92 16.997 9.644 4.146 24.687-1.625 37.515 4.112c12.828 5.735 18.591 20.8 12.864 33.649" mask="url(#N)"/>
        </g>
        <path fill="#E9EDF0" d="M440.562 122.463l-26.491 15.81 6.256 11.592z"/>
        <path fill="#AFB9BF" d="M440.562 122.463l8.7 32.292-28.935-4.89z"/>
        <g transform="translate(310.563 57.7)">
            <mask id="P" fill="#fff">
                <use xlink:href="#O"/>
            </mask>
            <path d="M66.85 1.79c34.094 1.733 60.325 30.82 58.599 64.966-1.733 34.149-30.772 60.427-64.864 58.694C26.497 123.717.26 94.63 1.99 60.484 3.72 26.336 32.757.057 66.85 1.79" mask="url(#P)"/>
        </g>
        <path fill="#E9EDF0" d="M289.383 146.325l93.065 44.94-11.896-45.839z"/>
        <path fill="#AFB9BF" d="M289.383 146.325l92.556-60.634-11.387 59.735z"/>
        <path fill="#828B91" d="M382.448 191.264l-.51-105.573-11.385 59.735z"/>
        <g transform="translate(559.86 -10.016)">
            <mask id="R" fill="#fff">
                <use xlink:href="#Q"/>
            </mask>
            <path d="M128.637 112.815C105.41 144.14 61.23 150.675 29.96 127.41-1.312 104.147-7.836 59.896 15.389 28.57 38.613-2.753 82.794-9.288 114.065 13.975c31.274 23.265 37.796 67.516 14.572 98.84" mask="url(#R)"/>
        </g>
        <path fill="#E9EDF0" d="M661.92-35.89L560.404 24.163l50.981 17.708z"/>
        <path fill="#AFB9BF" d="M661.92-35.89L660.797 90.52l-49.412-48.648z"/>
        <path fill="#828B91" d="M560.406 24.162L660.798 90.52 611.387 41.87z"/>
        <g transform="translate(880.986 -33.294)">
            <mask id="T" fill="#fff">
                <use xlink:href="#S"/>
            </mask>
            <path d="M161.16 124.697c-20.959 41.815-71.79 58.698-113.536 37.706C5.875 141.41-10.977 90.493 9.98 48.678 30.934 6.863 81.767-10.02 123.518 10.972c41.744 20.99 58.601 71.907 37.641 113.725" mask="url(#T)"/>
        </g>
        <path fill="#E9EDF0" d="M975.41-50.185L872.394 14.16l32.117 54.154z"/>
        <path fill="#AFB9BF" d="M975.41-50.185l29.282 121.901-100.181-3.4z"/>
        <g transform="translate(853.521 80.978)">
            <mask id="V" fill="#fff">
                <use xlink:href="#U"/>
            </mask>
            <path d="M33.754 1.843c14.409 3.689 23.1 18.381 19.418 32.811-3.687 14.432-18.353 23.14-32.761 19.452C6.004 50.413-2.69 35.723.995 21.291 4.68 6.86 19.345-1.847 33.755 1.843" mask="url(#V)"/>
        </g>
        <path fill="#E9EDF0" d="M848.464 111.254l26.7 24.896 13.492-14.601z"/>
        <path fill="#AFB9BF" d="M848.464 111.254l37.59-14.826 2.602 25.12z"/>
        <g transform="translate(986.62 17.494)">
            <mask id="X" fill="#fff">
                <use xlink:href="#W"/>
            </mask>
            <path d="M62.229 36.758C59.654 53.59 43.937 65.142 27.135 62.56 10.331 59.98-1.205 44.243 1.371 27.41 3.951 10.577 19.663-.976 36.467 1.606c16.806 2.582 28.34 18.318 25.762 35.152" mask="url(#X)"/>
        </g>
        <path fill="#E9EDF0" d="M1007.711 9.57l-26.926 43.921 38.491-1.253z"/>
        <path fill="#AFB9BF" d="M1007.711 9.57l25.325 48.996-13.76-6.328z"/>
        <path fill="#828B91" d="M980.785 53.492l52.25 5.075-13.76-6.33z"/>
        <g transform="translate(198.592 -12.133)">
            <mask id="Z" fill="#fff">
                <use xlink:href="#Y"/>
            </mask>
            <path d="M116.218.866c45.685 15.077 70.524 64.396 55.47 110.16-15.052 45.765-64.292 70.64-109.979 55.562-45.69-15.075-70.525-64.396-55.472-110.16C21.289 10.662 70.53-14.213 116.218.865" mask="url(#Z)"/>
        </g>
        <path fill="#E9EDF0" d="M162.87 73.894L272.638 169.7l.883-66.74z"/>
        <path fill="#AFB9BF" d="M162.87 73.894l148.347-47.867-37.697 76.933z"/>
        <path fill="#828B91" d="M272.637 169.7l38.58-143.674-37.699 76.935z"/>
        <g transform="translate(0 85.21)">
            <mask id="ab" fill="#fff">
                <use xlink:href="#aa"/>
            </mask>
            <path d="M156.5 48.549c15.212 41.942-6.4 88.293-48.272 103.529C66.36 167.316 20.083 145.67 4.872 103.73-10.342 61.788 11.269 15.437 53.14.201c41.871-15.236 88.147 6.41 103.36 48.348" mask="url(#ab)"/>
        </g>
        <path fill="#E9EDF0" d="M.86 206.663l48.999-37.579L7.603 71.777z"/>
        <path fill="#AFB9BF" d="M7.605 71.777L127.347 152.5l-77.489 16.584z"/>
        <path fill="#828B91" d="M49.859 169.085l-49 37.578 126.488-54.16z"/>
        <g transform="translate(433.099 30.19)">
            <mask id="ad" fill="#fff">
                <use xlink:href="#ac"/>
            </mask>
            <path d="M52.295 28.052c-1.022 14.178-13.327 24.84-27.48 23.815C10.663 50.843.017 38.523 1.04 24.344 2.062 10.166 14.364-.497 28.517.527 42.67 1.55 53.315 13.876 52.295 28.052" mask="url(#ad)"/>
        </g>
        <path fill="#E9EDF0" d="M456.907 31.656L437.181 55.8l9.92 8.854z"/>
        <path fill="#AFB9BF" d="M456.907 31.656l19.357 27.67-29.164 5.33z"/>
        <g transform="translate(473.24 87.327)">
            <mask id="af" fill="#fff">
                <use xlink:href="#ae"/>
            </mask>
            <path d="M35.083.427c16.42 2.578 27.644 17.996 25.073 34.443-2.569 16.447-17.964 27.69-34.383 25.115C9.355 57.409-1.872 41.989.7 25.545 3.273 9.096 18.665-2.149 35.083.426" mask="url(#af)"/>
        </g>
        <path fill="#E9EDF0" d="M461.291 125.315l42.778 26.499-3.433-22.8z"/>
        <path fill="#AFB9BF" d="M461.291 125.315l47.897-24.644-8.552 28.344z"/>
        <path fill="#828B91" d="M504.069 151.815l5.119-51.143-8.552 28.344z"/>
        <g transform="translate(386.62 57.7)">
            <mask id="ah" fill="#fff">
                <use xlink:href="#ag"/>
            </mask>
            <path d="M46.32 44.892C36.94 55.92 20.41 57.244 9.4 47.851-1.61 38.455-2.933 21.898 6.447 10.87c9.38-11.032 25.91-12.354 36.919-2.959 11.011 9.394 12.334 25.95 2.953 36.98" mask="url(#ah)"/>
        </g>
        <path fill="#E9EDF0" d="M423.113 51.826l-39.095 19.732 28.417 16.332z"/>
        <path fill="#AFB9BF" d="M423.113 51.826l-3.543 46.808-7.135-10.744z"/>
        <path fill="#828B91" d="M384.017 71.557l35.554 27.076-7.135-10.744z"/>
        <g transform="translate(758.45 155.044)">
            <mask id="aj" fill="#fff">
                <use xlink:href="#ai"/>
            </mask>
            <path d="M82.175 84.805c-19.73 18.127-50.398 16.798-68.498-2.969-18.097-19.763-16.77-50.479 2.96-68.608 19.733-18.127 50.398-16.8 68.5 2.965 18.095 19.765 16.772 50.483-2.962 68.612" mask="url(#aj)"/>
        </g>
        <path fill="#E9EDF0" d="M834.082 144.353l-76.297 27.351 48.507 36.468z"/>
        <path fill="#AFB9BF" d="M834.082 144.353l-17.121 85.182-10.67-21.363z"/>
        <path fill="#828B91" d="M757.784 171.705l59.176 57.83-10.669-21.362z"/>
        <g transform="translate(910.563 66.165)">
            <mask id="al" fill="#fff">
                <use xlink:href="#ak"/>
            </mask>
            <path d="M43.018 67.893c-18.217 4.524-36.65-6.6-41.17-24.85C-2.67 24.793 8.439 6.329 26.66 1.805c18.217-4.526 36.65 6.598 41.17 24.85 4.516 18.25-6.592 36.713-24.812 41.238" mask="url(#al)"/>
        </g>
        <path fill="#E9EDF0" d="M979.755 79.21l-44.537-11.69-6.287 24.313z"/>
        <path fill="#AFB9BF" d="M979.755 79.21l-32.938 38.99-17.886-26.367z"/>
        <g transform="translate(600 123.302)">
            <mask id="an" fill="#fff">
                <use xlink:href="#am"/>
            </mask>
            <path d="M71.079 44.205c-4.261 19.1-23.176 31.122-42.25 26.854-19.068-4.27-31.073-23.221-26.807-42.32C6.283 9.638 25.2-2.384 44.269 1.886c19.071 4.273 31.075 23.217 26.81 42.32" mask="url(#an)"/>
        </g>
        <path fill="#E9EDF0" d="M630.652 109.377l-34.289 48.266 26.969-2.303z"/>
        <path fill="#AFB9BF" d="M630.652 109.377l25.232 58.16-32.552-12.197z"/>
        <path fill="#828B91" d="M596.362 157.643l59.523 9.895-32.552-12.198z"/>
        <g transform="translate(986.62 108.489)">
            <mask id="ap" fill="#fff">
                <use xlink:href="#ao"/>
            </mask>
            <path d="M54.262 10.194c8.468 13.714 4.238 31.708-9.454 40.192-13.693 8.48-31.654 4.24-40.122-9.472C-3.782 27.199.45 9.207 14.14.726c13.69-8.484 31.654-4.245 40.122 9.468" mask="url(#ap)"/>
        </g>
        <path fill="#E9EDF0" d="M983.836 111.813l7.545 48.214 26.962-24.592z"/>
        <path fill="#AFB9BF" d="M983.836 111.813l48.302 19.712-13.795 3.91z"/>
        <path fill="#828B91" d="M991.381 160.027l40.758-28.503-13.796 3.91z"/>
        <g transform="translate(359.155 13.261)">
            <mask id="ar" fill="#fff">
                <use xlink:href="#aq"/>
            </mask>
            <path d="M48.112.937c13.787 9.587 17.208 28.552 7.637 42.36-9.57 13.81-28.504 17.232-42.291 7.647C-.327 41.36-3.748 22.395 5.823 8.587c9.57-13.81 28.504-17.234 42.289-7.65" mask="url(#ar)"/>
        </g>
        <path fill="#E9EDF0" d="M348.011 27.574L375.23 70.53l6.908-22.232z"/>
        <path fill="#AFB9BF" d="M348.011 27.574l54.357-1.257-20.23 21.98z"/>
        <path fill="#828B91" d="M375.229 70.53l27.141-44.213-20.233 21.98z"/>
        <g transform="translate(143.662 -12.133)">
            <mask id="at" fill="#fff">
                <use xlink:href="#as"/>
            </mask>
            <path d="M38.506 1.938c16.825 3.71 27.462 20.381 23.76 37.236-3.703 16.853-20.346 27.508-37.172 23.8C8.267 59.265-2.373 42.595 1.331 25.74c3.706-16.855 20.347-27.51 37.175-23.8" mask="url(#at)"/>
        </g>
        <path fill="#E9EDF0" d="M130.664 27.742l42.585 30.144 13.337-31.217z"/>
        <path fill="#AFB9BF" d="M130.664 27.742l51.122-22.455 4.8 21.382z"/>
        <g transform="translate(492.254 87.327)">
            <mask id="av" fill="#fff">
                <use xlink:href="#au"/>
            </mask>
            <path d="M61.61 100.103C34.707 105.586 8.46 88.183 2.99 61.235-2.486 34.29 14.887 8.001 41.79 2.518c26.904-5.479 53.147 11.92 58.621 38.868 5.474 26.945-11.9 53.236-38.801 58.717" mask="url(#av)"/>
        </g>
        <path fill="#E9EDF0" d="M605.094 102.148L523.623 85.79l18.42 33.324z"/>
        <path fill="#AFB9BF" d="M605.094 102.148l-59.992 65.78-3.059-48.814z"/>
        <path fill="#828B91" d="M523.624 85.79l21.48 82.137-3.06-48.813z"/>
    </g>
</svg>
