<svg xmlns="http://www.w3.org/2000/svg" width="369" height="369" viewBox="0 0 369 369">
    <g fill="none" fill-rule="evenodd" stroke="#292A3D" opacity=".1">
        <path d="M311.856 184.67c0-14.163-33.474-23.647-33.474-23.647-1.64-.464-2.009-1.845-.82-3.067 0 0 24.253-24.97 17.18-37.237-7.073-12.266-40.8-3.722-40.8-3.722-1.65.418-2.66-.592-2.242-2.245 0 0 8.534-33.768-3.717-40.849-12.252-7.082-37.192 17.201-37.192 17.201-1.22 1.19-2.6.82-3.063-.821 0 0-9.472-33.516-23.619-33.516s-23.618 33.516-23.618 33.516c-.464 1.64-1.843 2.01-3.064.821 0 0-24.94-24.283-37.192-17.2-12.25 7.08-3.717 40.848-3.717 40.848.418 1.653-.591 2.663-2.243 2.245 0 0-33.726-8.544-40.798 3.722-7.073 12.266 17.18 37.237 17.18 37.237 1.188 1.222.818 2.603-.82 3.067 0 0-33.475 9.484-33.475 23.647 0 14.164 33.474 23.648 33.474 23.648 1.64.464 2.009 1.845.821 3.067 0 0-24.253 24.97-17.18 37.237 7.072 12.266 40.798 3.722 40.798 3.722 1.652-.418 2.66.592 2.243 2.245 0 0-8.534 33.767 3.717 40.849 12.252 7.082 37.192-17.201 37.192-17.201 1.22-1.19 2.6-.82 3.064.821 0 0 9.471 33.516 23.618 33.516 14.147 0 23.619-33.516 23.619-33.516.463-1.64 1.842-2.01 3.063-.821 0 0 24.94 24.283 37.192 17.2 12.251-7.081 3.717-40.848 3.717-40.848-.418-1.653.591-2.663 2.243-2.245 0 0 33.726 8.544 40.798-3.722 7.074-12.266-17.18-37.237-17.18-37.237-1.188-1.222-.818-2.603.82-3.067 0 0 33.475-9.484 33.475-23.648z"/>
        <path d="M311.706 180.134c-.494-14.154-34.279-22.463-34.279-22.463-1.654-.407-2.07-1.773-.927-3.037 0 0 23.369-25.803 15.872-37.814-7.496-12.011-40.903-2.295-40.903-2.295-1.636.476-2.68-.498-2.32-2.165 0 0 7.352-34.044-5.139-40.694-12.49-6.65-36.569 18.49-36.569 18.49-1.179 1.231-2.57.91-3.09-.714 0 0-10.635-33.164-24.773-32.67-14.137.495-22.436 34.32-22.436 34.32-.406 1.657-1.77 2.075-3.033.93 0 0-25.771-23.398-37.768-15.892-11.996 7.506-2.29 40.953-2.29 40.953.474 1.638-.5 2.683-2.164 2.323 0 0-34.003-7.36-40.644 5.145-6.642 12.506 18.468 36.614 18.468 36.614 1.23 1.18.908 2.573-.714 3.094 0 0-33.124 10.647-32.63 24.803.494 14.155 34.278 22.463 34.278 22.463 1.655.407 2.072 1.773.928 3.037 0 0-23.368 25.803-15.872 37.814 7.496 12.012 40.903 2.294 40.903 2.294 1.636-.475 2.68.5 2.32 2.166 0 0-7.351 34.045 5.14 40.694 12.49 6.65 36.568-18.49 36.568-18.49 1.18-1.232 2.57-.91 3.09.714 0 0 10.635 33.164 24.773 32.67 14.137-.495 22.436-34.32 22.436-34.32.406-1.657 1.771-2.075 3.033-.93 0 0 25.772 23.398 37.768 15.892 11.997-7.505 2.291-40.954 2.291-40.954-.474-1.637.499-2.682 2.163-2.322 0 0 34.004 7.36 40.645-5.145 6.641-12.506-18.468-36.614-18.468-36.614-1.23-1.18-.909-2.573.713-3.094 0 0 33.124-10.647 32.63-24.803z"/>
        <path d="M311.562 175.766c-.987-14.13-35.04-21.253-35.04-21.253-1.667-.348-2.133-1.7-1.033-3.002 0 0 22.455-26.604 14.544-38.346-7.91-11.742-40.958-.863-40.958-.863-1.619.532-2.696-.405-2.394-2.083 0 0 6.16-34.282-6.554-40.49-12.715-6.209-35.903 19.757-35.903 19.757-1.135 1.271-2.536.998-3.113-.606 0 0-11.784-32.772-25.896-31.784-14.112.988-21.226 35.083-21.226 35.083-.349 1.67-1.698 2.135-2.999 1.034 0 0-26.571-22.482-38.3-14.562-11.727 7.92-.862 41.008-.862 41.008.533 1.62-.404 2.7-2.08 2.397 0 0-34.239-6.168-40.44 6.563-6.202 12.73 19.733 35.946 19.733 35.946 1.27 1.137.998 2.54-.605 3.117 0 0-32.733 11.798-31.746 25.928.987 14.129 35.041 21.251 35.041 21.251 1.667.35 2.131 1.7 1.032 3.003 0 0-22.454 26.604-14.544 38.346 7.91 11.742 40.96.863 40.96.863 1.617-.532 2.694.405 2.392 2.084 0 0-6.16 34.28 6.555 40.49 12.714 6.208 35.902-19.758 35.902-19.758 1.135-1.271 2.537-.999 3.113.606 0 0 11.785 32.772 25.897 31.784 14.111-.988 21.226-35.083 21.226-35.083.347-1.669 1.697-2.135 2.998-1.034 0 0 26.572 22.482 38.3 14.562 11.728-7.92.861-41.009.861-41.009-.531-1.62.405-2.698 2.082-2.396 0 0 34.238 6.168 40.44-6.562 6.201-12.73-19.733-35.947-19.733-35.947-1.27-1.136-.998-2.539.605-3.117 0 0 32.732-11.798 31.745-25.927z"/>
        <path d="M311.119 171.264c-1.479-14.087-35.76-20.015-35.76-20.015-1.679-.29-2.19-1.624-1.137-2.965 0 0 21.515-27.372 13.2-38.83-8.316-11.459-40.965.568-40.965.568-1.599.59-2.707-.31-2.464-1.998 0 0 4.961-34.475-7.962-40.236-12.923-5.761-35.192 20.999-35.192 20.999-1.09 1.31-2.5 1.087-3.132-.497 0 0-12.92-32.34-26.988-30.86-14.07 1.481-19.99 35.804-19.99 35.804-.29 1.68-1.623 2.192-2.962 1.138 0 0-27.339-21.54-38.784-13.215-11.444 8.325.569 41.014.569 41.014.587 1.601-.31 2.711-1.996 2.468 0 0-34.434-4.968-40.187 7.972-5.754 12.939 20.974 35.234 20.974 35.234 1.308 1.092 1.085 2.503-.497 3.136 0 0-32.3 12.936-30.822 27.021 1.48 14.087 35.76 20.015 35.76 20.015 1.679.29 2.19 1.624 1.137 2.965 0 0-21.514 27.372-13.2 38.831 8.316 11.459 40.965-.569 40.965-.569 1.598-.588 2.708.31 2.464 1.998 0 0-4.962 34.475 7.962 40.236 12.923 5.762 35.192-20.999 35.192-20.999 1.09-1.31 2.5-1.087 3.133.497 0 0 12.92 32.34 26.988 30.86 14.069-1.481 19.99-35.804 19.99-35.804.29-1.68 1.622-2.192 2.96-1.138 0 0 27.34 21.54 38.784 13.215 11.445-8.325-.567-41.014-.567-41.014-.589-1.6.31-2.711 1.996-2.468 0 0 34.432 4.968 40.186-7.97 5.754-12.94-20.973-35.236-20.973-35.236-1.31-1.092-1.086-2.503.496-3.136 0 0 32.3-12.935 30.822-27.021z"/>
        <path d="M310.684 166.634c-1.97-14.026-36.436-18.753-36.436-18.753-1.688-.23-2.246-1.546-1.24-2.923 0 0 20.547-28.107 11.838-39.269-8.71-11.16-40.92 2-40.92 2-1.576.644-2.716-.215-2.533-1.911 0 0 3.758-34.627-9.358-39.933-13.116-5.305-34.439 22.216-34.439 22.216-1.044 1.347-2.46 1.174-3.148-.387 0 0-14.039-31.87-28.048-29.898-14.008 1.971-18.73 36.48-18.73 36.48-.23 1.69-1.544 2.248-2.918 1.241 0 0-28.074-20.571-39.221-11.851-11.148 8.72 1.997 40.968 1.997 40.968.643 1.58-.216 2.721-1.909 2.537 0 0-34.585-3.762-39.885 9.37-5.299 13.133 22.19 34.481 22.19 34.481 1.346 1.045 1.172 2.464-.387 3.152 0 0-31.83 14.055-29.86 28.081 1.967 14.026 36.434 18.753 36.434 18.753 1.688.232 2.245 1.547 1.24 2.923 0 0-20.547 28.107-11.838 39.27 8.71 11.16 40.92-2 40.92-2 1.577-.645 2.717.215 2.532 1.91 0 0-3.756 34.628 9.36 39.934 13.116 5.305 34.438-22.217 34.438-22.217 1.044-1.347 2.46-1.173 3.148.387 0 0 14.039 31.87 28.047 29.898 14.01-1.97 18.73-36.48 18.73-36.48.232-1.69 1.546-2.248 2.92-1.24 0 0 28.073 20.57 39.22 11.85 11.148-8.72-1.997-40.968-1.997-40.968-.643-1.579.216-2.72 1.91-2.536 0 0 34.585 3.762 39.884-9.37 5.3-13.133-22.19-34.482-22.19-34.482-1.345-1.045-1.172-2.463.387-3.15 0 0 31.83-14.057 29.862-28.083z"/>
        <path d="M309.952 162.496c-2.457-13.948-37.068-17.468-37.068-17.468-1.694-.172-2.298-1.468-1.34-2.878 0 0 19.555-28.808 10.461-39.658-9.093-10.85-40.824 3.428-40.824 3.428-1.554.699-2.723-.12-2.598-1.821 0 0 2.548-34.738-10.745-39.582-13.294-4.845-33.644 23.406-33.644 23.406-.996 1.383-2.418 1.258-3.16-.277 0 0-15.14-31.359-29.071-28.9-13.932 2.46-17.448 37.113-17.448 37.113-.171 1.697-1.465 2.3-2.874 1.342 0 0-28.773-19.578-39.61-10.474-10.836 9.104 3.424 40.874 3.424 40.874.698 1.556-.12 2.726-1.819 2.602 0 0-34.695-2.551-39.534 10.758-4.838 13.31 23.378 33.685 23.378 33.685 1.382.997 1.257 2.42-.277 3.162 0 0-31.32 15.16-28.864 29.109 2.456 13.948 37.067 17.468 37.067 17.468 1.695.172 2.298 1.468 1.34 2.878 0 0-19.553 28.808-10.46 39.658 9.092 10.85 40.824-3.428 40.824-3.428 1.554-.699 2.723.12 2.598 1.821 0 0-2.548 34.738 10.745 39.582 13.294 4.844 33.643-23.406 33.643-23.406.997-1.383 2.419-1.258 3.16.276 0 0 15.141 31.36 29.073 28.9 13.931-2.46 17.446-37.112 17.446-37.112.173-1.697 1.466-2.3 2.875-1.342 0 0 28.773 19.578 39.61 10.474s-3.424-40.874-3.424-40.874c-.699-1.556.12-2.726 1.82-2.602 0 0 34.694 2.551 39.533-10.758 4.838-13.31-23.378-33.685-23.378-33.685-1.381-.997-1.258-2.42.276-3.162 0 0 31.322-15.16 28.865-29.109z"/>
        <path d="M308.924 157.937c-2.941-13.854-37.653-16.162-37.653-16.162-1.7-.113-2.348-1.386-1.44-2.83 0 0 18.538-29.474 9.073-39.999-9.466-10.526-40.681 4.853-40.681 4.853-1.528.752-2.725-.026-2.66-1.73 0 0 1.336-34.806-12.119-39.182-13.453-4.377-32.806 24.567-32.806 24.567-.947 1.417-2.373 1.343-3.167-.166 0 0-16.225-30.811-30.063-27.866-13.837 2.944-16.142 37.7-16.142 37.7-.113 1.7-1.384 2.35-2.826 1.44 0 0-29.438-18.56-39.95-9.082-10.513 9.476 4.846 40.729 4.846 40.729.752 1.53-.026 2.728-1.728 2.663 0 0-34.763-1.337-39.134 12.134-4.372 13.47 24.538 32.846 24.538 32.846 1.415.949 1.34 2.376-.166 3.171 0 0-30.774 16.245-27.833 30.1 2.941 13.853 37.654 16.162 37.654 16.162 1.699.113 2.347 1.386 1.44 2.83 0 0-18.538 29.474-9.073 39.999 9.466 10.525 40.68-4.853 40.68-4.853 1.529-.752 2.726.026 2.66 1.73 0 0-1.335 34.805 12.119 39.182 13.454 4.377 32.807-24.567 32.807-24.567.947-1.417 2.372-1.343 3.166.166 0 0 16.226 30.811 30.063 27.866 13.837-2.945 16.142-37.7 16.142-37.7.113-1.7 1.385-2.35 2.826-1.441 0 0 29.439 18.56 39.951 9.083 10.513-9.477-4.847-40.73-4.847-40.73-.751-1.53.026-2.728 1.728-2.662 0 0 34.763 1.337 39.135-12.134 4.37-13.47-24.538-32.846-24.538-32.846-1.415-.95-1.341-2.376.166-3.172 0 0 30.774-16.245 27.832-30.099z"/>
        <path d="M307.91 153.576c-3.422-13.743-38.194-14.836-38.194-14.836-1.702-.054-2.394-1.303-1.537-2.778 0 0 17.5-30.104 7.672-40.292-9.826-10.188-40.486 6.27-40.486 6.27-1.5.807-2.724.07-2.719-1.635 0 0 .122-34.83-13.477-38.734-13.597-3.904-31.93 25.698-31.93 25.698-.897 1.45-2.324 1.425-3.17-.055 0 0-17.29-30.225-31.016-26.8-13.726 3.428-14.819 38.242-14.819 38.242-.053 1.704-1.301 2.397-2.774 1.54 0 0-30.067-17.521-40.242-7.683-10.177 9.839 6.262 40.536 6.262 40.536.805 1.502.07 2.727-1.633 2.722 0 0-34.789-.122-38.688 13.493-3.899 13.615 25.668 31.97 25.668 31.97 1.448.898 1.423 2.327-.055 3.174 0 0-30.19 17.31-26.767 31.053 3.423 13.743 38.194 14.837 38.194 14.837 1.703.054 2.395 1.304 1.538 2.778 0 0-17.5 30.103-7.673 40.292 9.827 10.188 40.487-6.27 40.487-6.27 1.5-.807 2.724-.07 2.718 1.635 0 0-.122 34.83 13.477 38.734 13.598 3.904 31.93-25.698 31.93-25.698.898-1.45 2.325-1.425 3.172.055 0 0 17.288 30.225 31.014 26.8 13.727-3.427 14.82-38.242 14.82-38.242.053-1.704 1.301-2.397 2.773-1.54 0 0 30.067 17.522 40.244 7.683 10.175-9.839-6.264-40.535-6.264-40.535-.805-1.504-.07-2.728 1.634-2.723 0 0 34.788.122 38.687-13.493 3.9-13.615-25.667-31.97-25.667-31.97-1.448-.898-1.423-2.327.055-3.174 0 0 30.188-17.31 26.766-31.054z"/>
        <path d="M306.756 149.264c-3.899-13.615-38.688-13.493-38.688-13.493-1.703.006-2.438-1.219-1.634-2.722 0 0 16.44-30.697 6.264-40.536-10.176-9.838-40.243 7.682-40.243 7.682-1.472.857-2.72.165-2.774-1.54 0 0-1.092-34.813-14.819-38.24-13.726-3.426-31.015 26.799-31.015 26.799-.846 1.48-2.273 1.505-3.171.055 0 0-18.332-29.602-31.93-25.698-13.599 3.903-13.477 38.735-13.477 38.735.005 1.705-1.218 2.44-2.72 1.635 0 0-30.658-16.46-40.485-6.27-9.827 10.187 7.673 40.291 7.673 40.291.856 1.474.165 2.723-1.538 2.778 0 0-34.772 1.093-38.194 14.836-3.422 13.743 26.767 31.054 26.767 31.054 1.478.847 1.502 2.276.055 3.174 0 0-29.567 18.355-25.668 31.97 3.9 13.615 38.688 13.493 38.688 13.493 1.703-.005 2.438 1.22 1.633 2.722 0 0-16.439 30.697-6.263 40.536 10.176 9.839 40.243-7.682 40.243-7.682 1.472-.857 2.72-.165 2.774 1.54 0 0 1.093 34.814 14.819 38.24 13.725 3.426 31.015-26.8 31.015-26.8.847-1.479 2.274-1.504 3.17-.054 0 0 18.333 29.603 31.931 25.698 13.599-3.903 13.477-38.734 13.477-38.734-.006-1.706 1.217-2.442 2.719-1.636 0 0 30.659 16.46 40.486 6.271 9.827-10.189-7.672-40.292-7.672-40.292-.857-1.474-.165-2.724 1.537-2.777 0 0 34.772-1.095 38.194-14.838 3.422-13.743-26.766-31.052-26.766-31.052-1.478-.848-1.503-2.277-.056-3.175 0 0 29.567-18.355 25.668-31.97z"/>
        <path d="M305.464 145.006c-4.372-13.47-39.135-12.133-39.135-12.133-1.702.065-2.48-1.134-1.728-2.664 0 0 15.36-31.252 4.847-40.73-10.512-9.477-39.95 9.084-39.95 9.084-1.442.908-2.714.26-2.827-1.442 0 0-2.305-34.755-16.142-37.7-13.837-2.944-30.063 27.867-30.063 27.867-.794 1.509-2.22 1.584-3.166.166 0 0-19.353-28.944-32.807-24.567-13.455 4.377-12.12 39.182-12.12 39.182.067 1.705-1.13 2.483-2.659 1.73 0 0-31.214-15.378-40.68-4.853-9.465 10.526 9.073 40 9.073 40 .907 1.443.259 2.716-1.44 2.829 0 0-34.713 2.308-37.654 16.162-2.941 13.855 27.833 30.1 27.833 30.1 1.506.795 1.581 2.222.166 3.17 0 0-28.91 19.377-24.538 32.848 4.372 13.47 39.134 12.133 39.134 12.133 1.703-.066 2.48 1.133 1.728 2.662 0 0-15.36 31.254-4.847 40.73 10.513 9.478 39.95-9.083 39.95-9.083 1.443-.908 2.714-.26 2.827 1.442 0 0 2.305 34.754 16.142 37.7 13.837 2.944 30.063-27.867 30.063-27.867.794-1.509 2.22-1.583 3.167-.166 0 0 19.353 28.944 32.806 24.567 13.455-4.376 12.12-39.182 12.12-39.182-.066-1.704 1.13-2.483 2.659-1.73 0 0 31.214 15.379 40.68 4.853 9.466-10.526-9.072-40-9.072-40-.908-1.442-.26-2.716 1.44-2.828 0 0 34.712-2.31 37.653-16.164 2.942-13.853-27.832-30.098-27.832-30.098-1.507-.796-1.581-2.222-.166-3.171 0 0 28.909-19.377 24.538-32.847z"/>
        <path d="M304.189 140.654c-4.839-13.31-39.535-10.758-39.535-10.758-1.698.125-2.517-1.046-1.818-2.601 0 0 14.26-31.77 3.424-40.875-10.837-9.104-39.61 10.474-39.61 10.474-1.41.958-2.702.355-2.874-1.342 0 0-3.516-34.653-17.447-37.112-13.932-2.46-29.073 28.9-29.073 28.9-.741 1.534-2.163 1.66-3.16.276 0 0-20.35-28.25-33.643-23.406-13.293 4.844-10.745 39.582-10.745 39.582.125 1.7-1.044 2.52-2.598 1.821 0 0-31.732-14.278-40.825-3.428-9.092 10.85 10.462 39.658 10.462 39.658.957 1.41.353 2.706-1.34 2.878 0 0-34.612 3.52-37.068 17.468-2.456 13.95 28.865 29.109 28.865 29.109 1.533.742 1.658 2.166.276 3.163 0 0-28.216 20.375-23.378 33.685 4.839 13.308 39.534 10.757 39.534 10.757 1.699-.124 2.517 1.046 1.819 2.602 0 0-14.26 31.77-3.424 40.875 10.836 9.103 39.61-10.474 39.61-10.474 1.409-.96 2.703-.355 2.874 1.341 0 0 3.516 34.654 17.448 37.113 13.931 2.459 29.072-28.9 29.072-28.9.741-1.535 2.163-1.66 3.16-.276 0 0 20.35 28.25 33.643 23.406 13.293-4.845 10.745-39.583 10.745-39.583-.125-1.7 1.044-2.52 2.598-1.82 0 0 31.731 14.277 40.824 3.427 9.094-10.85-10.46-39.658-10.46-39.658-.958-1.41-.355-2.706 1.34-2.878 0 0 34.61-3.52 37.067-17.468 2.457-13.949-28.865-29.108-28.865-29.108-1.534-.743-1.657-2.166-.276-3.163 0 0 28.216-20.375 23.378-33.685z"/>
        <path d="M302.625 136.521c-5.3-13.132-39.885-9.37-39.885-9.37-1.693.183-2.551-.958-1.908-2.537 0 0 13.145-32.248 1.997-40.969-11.147-8.72-39.22 11.852-39.22 11.852-1.375 1.007-2.688.448-2.92-1.241 0 0-4.721-34.509-18.73-36.48-14.009-1.971-28.047 29.898-28.047 29.898-.688 1.56-2.104 1.734-3.148.387 0 0-21.322-27.522-34.438-22.216-13.117 5.305-9.36 39.933-9.36 39.933.184 1.695-.955 2.555-2.532 1.91 0 0-32.21-13.16-40.92-1.999s11.837 39.269 11.837 39.269c1.006 1.376.449 2.691-1.24 2.922 0 0-34.466 4.728-36.435 18.754-1.968 14.025 29.862 28.081 29.862 28.081 1.558.689 1.733 2.107.386 3.152 0 0-27.488 21.348-22.19 34.48 5.3 13.133 39.886 9.37 39.886 9.37 1.693-.183 2.552.958 1.908 2.537 0 0-13.144 32.25-1.996 40.97 11.147 8.72 39.22-11.852 39.22-11.852 1.375-1.007 2.688-.449 2.92 1.241 0 0 4.72 34.508 18.73 36.48 14.008 1.97 28.047-29.898 28.047-29.898.687-1.56 2.104-1.735 3.147-.388 0 0 21.323 27.523 34.44 22.217 13.116-5.305 9.358-39.933 9.358-39.933-.184-1.695.956-2.556 2.533-1.91 0 0 32.21 13.16 40.919 1.998 8.71-11.16-11.836-39.268-11.836-39.268-1.007-1.376-.449-2.692 1.238-2.923 0 0 34.467-4.727 36.436-18.753 1.97-14.026-29.862-28.082-29.862-28.082-1.558-.688-1.732-2.106-.386-3.152 0 0 27.489-21.348 22.19-34.48z"/>
        <path d="M300.774 132.61c-5.754-12.939-40.186-7.97-40.186-7.97-1.687.243-2.585-.868-1.996-2.468 0 0 12.012-32.689.568-41.014-11.445-8.326-38.784 13.214-38.784 13.214-1.339 1.055-2.671.543-2.96-1.138 0 0-5.922-34.323-19.991-35.803-14.069-1.481-26.988 30.86-26.988 30.86-.633 1.583-2.043 1.807-3.133.497 0 0-22.269-26.76-35.192-21-12.924 5.76-7.962 40.236-7.962 40.236.244 1.688-.865 2.587-2.464 1.998 0 0-32.649-12.027-40.964-.568-8.315 11.458 13.199 38.83 13.199 38.83 1.053 1.34.541 2.675-1.137 2.966 0 0-34.28 5.928-35.76 20.014-1.478 14.086 30.822 27.021 30.822 27.021 1.582.634 1.806 2.044.497 3.137 0 0-26.728 22.295-20.974 35.234 5.754 12.94 40.187 7.971 40.187 7.971 1.686-.243 2.584.868 1.996 2.469 0 0-12.012 32.689-.569 41.013 11.445 8.325 38.784-13.214 38.784-13.214 1.34-1.055 2.672-.543 2.961 1.138 0 0 5.921 34.323 19.99 35.803 14.069 1.48 26.989-30.86 26.989-30.86.632-1.583 2.042-1.807 3.132-.497 0 0 22.27 26.76 35.192 21 12.924-5.76 7.962-40.237 7.962-40.237-.243-1.687.865-2.586 2.464-1.997 0 0 32.65 12.027 40.964.568 8.316-11.459-13.199-38.83-13.199-38.83-1.053-1.34-.542-2.675 1.137-2.966 0 0 34.281-5.928 35.76-20.014 1.479-14.086-30.822-27.022-30.822-27.022-1.582-.633-1.805-2.044-.496-3.136 0 0 26.728-22.295 20.973-35.234z"/>
        <g>
            <path d="M180.535 12.064c1.933-14.89 5.097-14.89 7.03 0l3.539 23.134c1.973 15.198 7.334 15.668 11.913 1.043l7.498-22.167C215-.254 218.117.296 217.438 15.296l-.528 23.399c-.692 15.31 4.506 16.704 11.552 3.098l11.228-20.527c6.904-13.33 9.876-12.247 6.606 2.407l-4.578 22.951c-3.337 14.958 1.54 17.234 10.839 5.06l14.618-18.263c9.11-11.928 11.85-10.344 6.087 3.52l-8.487 21.806c-5.881 14.15-1.473 17.24 9.795 6.868l17.563-15.445c11.042-10.163 13.465-8.126 5.386 4.524l-12.141 20c-8.246 12.912-4.44 16.722 8.456 8.466l19.975-12.156c12.635-8.089 14.669-5.663 4.519 5.392l-15.426 17.585c-10.36 11.282-7.274 15.695 6.859 9.807l21.78-8.498c13.847-5.77 15.428-3.026 3.515 6.095l-18.241 14.636c-12.16 9.31-9.885 14.193 5.054 10.852l22.923-4.584c14.636-3.273 15.719-.297 2.404 6.615l-20.502 11.241c-13.59 7.055-12.196 12.26 3.095 11.566l23.37-.528c14.982-.68 15.531 2.44 1.22 6.932l-22.14 7.506c-14.606 4.585-14.137 9.953 1.042 11.928l23.106 3.543c14.872 1.936 14.872 5.103 0 7.039l-23.106 3.543c-15.18 1.975-15.648 7.343-1.042 11.928l22.14 7.506c14.311 4.492 13.762 7.612-1.22 6.932l-23.37-.528c-15.291-.694-16.684 4.51-3.095 11.566l20.502 11.241c13.315 6.912 12.232 9.888-2.404 6.615l-22.923-4.584c-14.94-3.34-17.213 1.542-5.054 10.852l18.24 14.636c11.914 9.121 10.333 11.864-3.514 6.095l-21.78-8.5c-14.133-5.887-17.219-1.474-6.859 9.81l15.426 17.584c10.15 11.054 8.116 13.48-4.52 5.392l-19.974-12.156c-12.897-8.256-16.702-4.446-8.456 8.466l12.14 20c8.08 12.65 5.657 14.687-5.385 4.523l-17.563-15.444c-11.268-10.372-15.676-7.282-9.795 6.868l8.487 21.806c5.763 13.863 3.023 15.447-6.087 3.52l-14.618-18.263c-9.299-12.175-14.176-9.898-10.839 5.06l4.578 22.95c3.27 14.655.298 15.739-6.606 2.408l-11.228-20.527c-7.046-13.606-12.244-12.212-11.552 3.098l.528 23.399c.679 15-2.437 15.55-6.923 1.222l-7.498-22.167c-4.579-14.625-9.94-14.155-11.913 1.043l-3.539 23.134c-1.933 14.89-5.097 14.89-7.03 0l-3.539-23.134c-1.973-15.198-7.334-15.668-11.913-1.043l-7.498 22.167c-4.485 14.328-7.6 13.778-6.923-1.222l.528-23.399c.693-15.31-4.506-16.704-11.552-3.098l-11.228 20.527c-6.903 13.33-9.876 12.247-6.605-2.408l4.577-22.95c3.338-14.958-1.54-17.235-10.838-5.06l-14.619 18.263c-9.11 11.927-11.85 10.343-6.087-3.52l8.488-21.806c5.88-14.15 1.473-17.24-9.796-6.868l-17.563 15.444c-11.04 10.164-13.465 8.127-5.386-4.523l12.142-20c8.245-12.912 4.44-16.722-8.457-8.466l-19.975 12.156c-12.635 8.089-14.668 5.662-4.518-5.392L65.2 275.242c10.36-11.283 7.273-15.696-6.86-9.808l-21.78 8.499c-13.846 5.769-15.428 3.026-3.515-6.095l18.241-14.636c12.16-9.31 9.885-14.193-5.053-10.852l-22.923 4.584c-14.637 3.273-15.72.297-2.405-6.615l20.502-11.241c13.59-7.055 12.196-12.26-3.095-11.566l-23.37.528c-14.982.68-15.53-2.44-1.22-6.932l22.14-7.506c14.607-4.585 14.137-9.953-1.042-11.928l-23.106-3.543c-14.872-1.936-14.872-5.103 0-7.039l23.106-3.543c15.18-1.975 15.649-7.343 1.043-11.928l-22.141-7.506c-14.31-4.493-13.762-7.612 1.22-6.932l23.37.528c15.291.694 16.684-4.51 3.095-11.566l-20.502-11.241c-13.315-6.912-12.232-9.888 2.405-6.615l22.923 4.584c14.938 3.34 17.212-1.542 5.053-10.852l-18.24-14.636C21.13 92.264 22.712 89.52 36.558 95.29l21.78 8.498c14.133 5.888 17.22 1.475 6.86-9.807L49.773 76.396c-10.15-11.055-8.117-13.481 4.518-5.392L74.266 83.16c12.898 8.256 16.702 4.446 8.457-8.466l-12.142-20c-8.079-12.65-5.655-14.687 5.386-4.524L93.53 65.615c11.269 10.372 15.676 7.282 9.796-6.868L94.838 36.94c-5.762-13.864-3.023-15.448 6.087-3.52l14.619 18.263c9.298 12.174 14.176 9.898 10.838-5.06l-4.577-22.95c-3.27-14.655-.298-15.739 6.605-2.408l11.228 20.527c7.046 13.606 12.245 12.211 11.552-3.098l-.528-23.399c-.678-15 2.438-15.55 6.923-1.222l7.498 22.167c4.579 14.625 9.94 14.155 11.913-1.043l3.54-23.134z"/>
            <path d="M177.5 12.124c1.673-14.922 4.837-14.977 7.03-.124l3.941 23.07c2.238 15.161 7.606 15.537 11.93.835l7.11-22.295c4.236-14.404 7.36-13.91 6.943 1.101l-.12 23.403c-.425 15.32 4.796 16.624 11.604 2.897l10.869-20.72c6.67-13.45 9.66-12.418 6.646 2.291l-4.176 23.028c-3.076 15.013 1.84 17.205 10.925 4.87l14.297-18.516c8.9-12.085 11.668-10.55 6.148 3.413l-8.107 21.95c-5.633 14.25-1.172 17.264 9.915 6.696l17.29-15.75c10.863-10.353 13.321-8.36 5.465 4.43l-11.792 20.209c-8.018 13.055-4.148 16.797 8.603 8.317l19.76-12.503c12.492-8.308 14.568-5.918 4.612 5.312L301.276 91.89c-10.161 11.461-6.998 15.82 7.03 9.686l21.628-8.878c13.744-6.01 15.373-3.294 3.62 6.034l-17.982 14.952c-11.995 9.521-9.636 14.363 5.242 10.761l22.84-4.983c14.577-3.529 15.71-.572 2.519 6.572l-20.303 11.598c-13.465 7.291-11.981 12.47 3.296 11.51l23.356-.937c14.969-.941 15.572 2.168 1.342 6.91l-22.006 7.892c-14.524 4.84-13.962 10.197 1.25 11.908l23.164 3.139c14.904 1.675 14.959 4.842.122 7.037l-23.04 3.946c-15.143 2.241-15.518 7.615-.834 11.945l22.268 7.118c14.386 4.241 13.892 7.37-1.1 6.952l-23.375-.12c-15.302-.426-16.603 4.802-2.893 11.618l20.695 10.882c13.433 6.678 12.403 9.673-2.289 6.656l-22.999-4.183c-14.995-3.08-17.184 1.843-4.864 10.939l18.493 14.314c12.07 8.912 10.537 11.683-3.408 6.157l-21.925-8.117c-14.233-5.64-17.242-1.174-6.687 9.926l15.73 17.313c10.341 10.874 8.35 13.336-4.425 5.47L295.558 284.1c-13.039-8.03-16.777-4.153-8.307 8.613l12.488 19.784c8.298 12.508 5.91 14.586-5.306 4.618l-17.83-15.136c-11.447-10.173-15.801-7.006-9.674 7.038l8.867 21.655c6.003 13.761 3.29 15.392-6.027 3.626l-14.933-18.006c-9.51-12.01-14.346-9.648-10.748 5.249l4.976 22.867c3.525 14.596.572 15.73-6.563 2.523l-11.584-20.328c-7.282-13.48-12.455-11.995-11.495 3.3l.935 23.386c.94 14.986-2.166 15.59-6.902 1.342l-7.882-22.032c-4.834-14.543-10.185-13.979-11.894 1.25l-3.135 23.194c-1.673 14.922-4.835 14.977-7.028.122l-3.942-23.069c-2.238-15.16-7.606-15.536-11.93-.835l-7.11 22.296c-4.235 14.404-7.36 13.909-6.943-1.102l.12-23.404c.426-15.32-4.796-16.623-11.604-2.896l-10.868 20.72c-6.67 13.45-9.662 12.418-6.648-2.291l4.177-23.028c3.076-15.012-1.84-17.205-10.925-4.87l-14.297 18.516c-8.9 12.085-11.668 10.55-6.149-3.412l8.107-21.951c5.634-14.251 1.173-17.263-9.914-6.696L78.3 320.893c-10.862 10.354-13.32 8.361-5.463-4.43l11.79-20.208c8.02-13.054 4.149-16.797-8.602-8.318l-19.76 12.504c-12.493 8.308-14.568 5.918-4.612-5.312l15.117-17.852c10.161-11.461 6.998-15.82-7.03-9.686l-21.628 8.878c-13.744 6.01-15.373 3.295-3.62-6.033l17.983-14.953c11.995-9.52 9.636-14.363-5.242-10.761l-22.84 4.983c-14.578 3.529-15.711.572-2.52-6.572l20.304-11.598c13.464-7.29 11.98-12.47-3.297-11.51l-23.357.937c-14.968.94-15.57-2.168-1.34-6.91l22.005-7.891c14.525-4.84 13.962-10.198-1.25-11.908l-23.164-3.14c-14.904-1.674-14.959-4.842-.123-7.037l23.041-3.946c15.143-2.24 15.518-7.616.834-11.944l-22.268-7.119c-14.387-4.241-13.892-7.37 1.1-6.952l23.376.12c15.3.426 16.603-4.802 2.892-11.618L19.93 131.735c-13.433-6.678-12.402-9.673 2.29-6.655l22.999 4.182c14.994 3.08 17.183-1.842 4.863-10.938L31.59 104.009c-12.07-8.912-10.536-11.682 3.408-6.156l21.925 8.117c14.233 5.64 17.242 1.173 6.687-9.927L47.88 78.731c-10.34-10.876-8.35-13.337 4.424-5.47l20.185 11.806c13.037 8.028 16.776 4.153 8.307-8.613L68.307 56.669c-8.298-12.507-5.912-14.586 5.305-4.618l17.83 15.135c11.448 10.175 15.801 7.007 9.675-7.037L92.25 38.494c-6.003-13.76-3.292-15.392 6.025-3.625l14.934 18.005c9.51 12.01 14.346 9.647 10.749-5.249l-4.977-22.868c-3.525-14.594-.572-15.73 6.563-2.522l11.584 20.328c7.282 13.481 12.455 11.996 11.496-3.3l-.935-23.385c-.94-14.986 2.165-15.591 6.9-1.343l7.883 22.033c4.833 14.541 10.186 13.979 11.893-1.252l3.135-23.192z"/>
            <path d="M174.412 12.18c1.413-14.949 4.574-15.059 7.026-.245l4.342 22.997c2.502 15.12 7.876 15.4 11.943.626l6.72-22.416c3.984-14.477 7.117-14.036 6.962.98l.288 23.402c-.159 15.325 5.085 16.537 11.653 2.693L233.85 19.31c6.435-13.564 9.443-12.585 6.686 2.175l-3.775 23.097c-2.814 15.064 2.14 17.17 11.008 4.679l13.973-18.763c8.689-12.24 11.482-10.753 6.207 3.303l-7.723 22.09c-5.384 14.347-.871 17.281 10.029 6.522l17.014-16.05c10.68-10.541 13.173-8.591 5.54 4.334l-11.437 20.412c-7.79 13.192-3.855 16.867 8.746 8.165l19.54-12.846c12.345-8.526 14.462-6.172 4.703 5.23l-14.803 18.113c-9.96 11.638-6.721 15.94 7.197 9.563l21.47-9.255c13.637-6.249 15.313-3.563 3.726 5.97l-17.72 15.263c-11.827 9.73-9.384 14.53 5.429 10.669l22.75-5.381c14.513-3.784 15.698-.847 2.633 6.526l-20.098 11.95c-13.335 7.526-11.762 12.679 3.496 11.45l23.338-1.343c14.948-1.203 15.606 1.896 1.46 6.885l-21.864 8.275c-14.438 5.093-13.782 10.44 1.457 11.885l23.216 2.733c14.93 1.415 15.04 4.58.245 7.035l-22.969 4.347c-15.101 2.506-15.383 7.886-.625 11.957l22.388 6.729c14.458 3.989 14.019 7.125-.978 6.97l-23.374.289c-15.306-.158-16.517 5.091-2.69 11.667l20.881 10.518c13.548 6.443 12.57 9.455-2.172 6.694l-23.069-3.78c-15.046-2.816-17.15 2.143-4.672 11.023l18.74 13.989c12.224 8.7 10.738 11.496-3.3 6.215l-22.063-7.733c-14.33-5.39-17.26-.871-6.514 10.042l16.03 17.035c10.529 10.692 8.581 13.188-4.329 5.546l-20.386-11.45c-13.176-7.8-16.847-3.86-8.156 8.756l12.83 19.563c8.516 12.361 6.165 14.48-5.223 4.71l-18.091-14.822c-11.624-9.972-15.921-6.73-9.551 7.206l9.243 21.497c6.242 13.653 3.56 15.332-5.961 3.73l-15.245-17.742c-9.718-11.841-14.512-9.396-10.656 5.436l5.375 22.777c3.779 14.532.845 15.718-6.519 2.637l-11.937-20.123c-7.515-13.35-12.661-11.776-11.436 3.5l1.343 23.367c1.201 14.967-1.893 15.625-6.876 1.463l-8.266-21.892c-5.086-14.456-10.427-13.8-11.87 1.459l-2.73 23.244c-1.413 14.95-4.574 15.06-7.025.246l-4.344-22.997c-2.501-15.12-7.875-15.402-11.942-.627l-6.72 22.416c-3.984 14.476-7.117 14.036-6.961-.98l-.29-23.402c.16-15.325-5.084-16.537-11.651-2.693l-10.506 20.907c-6.434 13.564-9.443 12.585-6.686-2.175l3.774-23.097c2.815-15.064-2.139-17.17-11.008-4.678l-13.972 18.763c-8.69 12.239-11.483 10.752-6.207-3.305l7.723-22.09c5.384-14.346.87-17.28-10.03-6.52l-17.014 16.048c-10.68 10.543-13.172 8.592-5.54-4.334l11.437-20.41c7.792-13.193 3.855-16.868-8.745-8.166l-19.54 12.847c-12.345 8.525-14.462 6.17-4.703-5.231l14.803-18.114c9.96-11.637 6.722-15.94-7.197-9.561l-21.47 9.254c-13.638 6.249-15.314 3.563-3.726-5.97l17.72-15.263c11.827-9.73 9.384-14.53-5.43-10.669L25.469 252.4c-14.514 3.784-15.7.847-2.634-6.526l20.098-11.95c13.335-7.526 11.762-12.678-3.497-11.451L16.1 223.817c-14.95 1.203-15.607-1.896-1.462-6.885l21.866-8.275c14.437-5.092 13.78-10.44-1.458-11.884l-23.215-2.734c-14.931-1.415-15.042-4.58-.246-7.034l22.968-4.348c15.102-2.506 15.384-7.886.627-11.957l-22.39-6.729c-14.458-3.989-14.017-7.126.98-6.97l23.373-.29c15.307.16 16.517-5.09 2.69-11.666L18.95 134.527c-13.546-6.442-12.57-9.455 2.173-6.694l23.069 3.779c15.046 2.817 17.149-2.142 4.672-11.022l-18.74-13.99c-12.224-8.699-10.739-11.495 3.3-6.214l22.063 7.733c14.33 5.39 17.26.872 6.513-10.042L45.971 81.043c-10.529-10.694-8.581-13.19 4.328-5.547l20.387 11.451c13.177 7.8 16.847 3.859 8.156-8.757L66.011 58.627c-8.515-12.36-6.164-14.48 5.224-4.71l18.09 14.821c11.624 9.973 15.922 6.73 9.552-7.205l-9.244-21.497c-6.242-13.653-3.558-15.332 5.962-3.73l15.246 17.742c9.717 11.842 14.512 9.395 10.655-5.436l-5.375-22.777c-3.778-14.531-.846-15.718 6.518-2.636l11.937 20.122c7.516 13.351 12.663 11.776 11.436-3.501l-1.342-23.365c-1.201-14.968 1.893-15.626 6.876-1.464l8.266 21.892c5.086 14.456 10.427 13.799 11.87-1.46l2.73-23.243z"/>
            <path d="M171.577 12.54c1.152-14.97 4.311-15.137 7.02-.367l4.743 22.917c2.765 15.074 8.144 15.261 11.952.418l6.328-22.53c3.731-14.544 6.872-14.158 6.978.857l.697 23.394c.108 15.325 5.372 16.446 11.697 2.49l10.14-21.088c6.197-13.674 9.221-12.748 6.722 2.058l-3.372 23.159c-2.55 15.112 2.44 17.13 11.089 4.486l13.643-19.005c8.474-12.389 11.293-10.951 6.264 3.196l-7.338 22.22c-5.133 14.44-.569 17.295 10.142 6.346l16.732-16.344c10.494-10.727 13.02-8.82 5.614 4.236L279.55 69.591c-7.56 13.327-3.56 16.932 8.887 8.012l19.312-13.186c12.196-8.74 14.354-6.423 4.795 5.148l-14.485 18.368c-9.756 11.81-6.443 16.056 7.362 9.436l21.306-9.629c13.526-6.486 15.25-3.83 3.829 5.903l-17.452 15.572c-11.655 9.934-9.128 14.69 5.615 10.572l22.652-5.779c14.445-4.036 15.682-1.12 2.747 6.48l-19.886 12.3c-13.202 7.758-11.54 12.882 3.695 11.388l23.31-1.752c14.926-1.464 15.637 1.622 1.581 6.859l-21.717 8.656c-14.348 5.343-13.598 10.679 1.663 11.856l23.26 2.328c14.954 1.154 15.119 4.317.368 7.03l-22.889 4.748c-15.056 2.768-15.243 8.153-.417 11.966l22.503 6.336c14.525 3.736 14.14 6.88-.858 6.986l-23.365.697c-15.306.11-16.425 5.38-2.486 11.712l21.062 10.152c13.657 6.205 12.732 9.234-2.055 6.732l-23.132-3.376c-15.093-2.554-17.109 2.442-4.48 11.102l18.981 13.659c12.375 8.485 10.938 11.307-3.191 6.272l-22.194-7.346c-14.42-5.14-17.273-.57-6.337 10.154l16.323 16.752c10.714 10.507 8.81 13.037-4.23 5.621l-20.583-11.092c-13.31-7.57-16.912-3.565-8.003 8.897l13.17 19.336c8.73 12.21 6.416 14.37-5.14 4.8l-18.347-14.503c-11.796-9.767-16.036-6.45-9.424 7.372l9.617 21.332c6.479 13.542 3.825 15.268-5.896 3.833l-15.553-17.472c-9.922-11.67-14.673-9.141-10.558 5.621l5.77 22.68c4.032 14.463 1.12 15.7-6.471 2.75l-12.285-19.911c-7.748-13.218-12.866-11.553-11.374 3.7l1.75 23.339c1.462 14.944-1.62 15.656-6.85 1.583l-8.646-21.745c-5.337-14.364-10.667-13.613-11.843 1.667l-2.324 23.288c-1.152 14.971-4.312 15.137-7.02.368l-4.744-22.917c-2.764-15.074-8.143-15.262-11.951-.418l-6.328 22.53c-3.732 14.544-6.872 14.158-6.978-.857l-.697-23.394c-.108-15.325-5.372-16.446-11.697-2.49l-10.14 21.088c-6.197 13.674-9.222 12.748-6.723-2.058l3.372-23.16c2.551-15.11-2.439-17.13-11.088-4.485l-13.643 19.005c-8.475 12.388-11.293 10.95-6.264-3.196l7.337-22.22c5.133-14.44.57-17.295-10.141-6.346l-16.732 16.343c-10.495 10.728-13.021 8.822-5.615-4.235l11.08-20.609c7.559-13.327 3.56-16.931-8.888-8.011l-19.311 13.186c-12.196 8.74-14.354 6.423-4.795-5.148l14.485-18.369c9.756-11.81 6.443-16.055-7.362-9.435l-21.306 9.629c-13.526 6.486-15.25 3.83-3.829-5.904l17.451-15.57c11.656-9.935 9.13-14.693-5.614-10.573l-22.652 5.778c-14.445 4.037-15.682 1.12-2.747-6.479l19.886-12.3c13.202-7.758 11.54-12.882-3.695-11.388l-23.31 1.752c-14.926 1.464-15.638-1.623-1.582-6.859l21.718-8.656c14.347-5.344 13.598-10.68-1.664-11.857l-23.26-2.327c-14.953-1.153-15.118-4.317-.368-7.03l22.89-4.748c15.055-2.768 15.243-8.153.417-11.966l-22.503-6.336c-14.525-3.736-14.14-6.88.857-6.986l23.366-.698c15.306-.108 16.425-5.379 2.486-11.711l-21.062-10.153c-13.658-6.204-12.733-9.234 2.055-6.73l23.132 3.375c15.092 2.554 17.108-2.441 4.48-11.102l-18.982-13.66c-12.373-8.484-10.937-11.306 3.192-6.27l22.194 7.345c14.42 5.14 17.273.57 6.337-10.154L44.357 83.637c-10.715-10.507-8.81-13.037 4.23-5.621L69.17 89.108c13.31 7.57 16.911 3.565 8.002-8.898l-13.17-19.336c-8.729-12.21-6.415-14.37 5.142-4.8L87.49 70.578c11.796 9.768 16.036 6.451 9.423-7.37l-9.616-21.333c-6.479-13.542-3.826-15.268 5.896-3.834l15.552 17.473c9.923 11.67 14.674 9.14 10.56-5.621l-5.772-22.68c-4.031-14.463-1.12-15.7 6.472-2.75l12.285 19.91c7.748 13.219 12.865 11.554 11.374-3.7l-1.75-23.337c-1.462-14.945 1.62-15.657 6.85-1.584l8.646 21.744c5.337 14.364 10.666 13.615 11.842-1.666l2.325-23.288z"/>
            <path d="M168.69 12.59c.89-14.989 4.047-15.21 7.013-.49l5.141 22.83c3.027 15.024 8.408 15.118 11.957.21l5.935-22.637c3.478-14.607 6.623-14.276 6.992.735l1.104 23.378c.375 15.321 5.658 16.35 11.739 2.285l9.77-21.261c5.958-13.78 9-12.908 6.759 1.94l-2.968 23.214c-2.287 15.154 2.737 17.085 11.164 4.291l13.31-19.24c8.257-12.535 11.1-11.146 6.319 3.086l-6.948 22.346c-4.882 14.526-.269 17.3 10.25 6.167L282.67 42.81c10.306-10.909 12.865-9.047 5.688 4.137L277.64 67.746c-7.325 13.457-3.264 16.992 9.025 7.855l19.08-13.522c12.041-8.951 14.24-6.672 4.883 5.064l-14.162 18.619c-9.549 11.978-6.163 16.166 7.526 9.305l21.134-10c13.41-6.721 15.18-4.095 3.931 5.836l-17.177 15.874c-11.48 10.136-8.872 14.849 5.798 10.472l22.548-6.173c14.373-4.288 15.66-1.394 2.86 6.43l-19.67 12.647c-13.065 7.986-11.313 13.08 3.894 11.321l23.275-2.159c14.899-1.725 15.664 1.349 1.701 6.83l-21.563 9.034c-14.252 5.594-13.41 10.915 1.87 11.826l23.297 1.92c14.97.893 15.191 4.053.49 7.022l-22.803 5.148c-15.004 3.031-15.099 8.419-.208 11.972l22.609 5.942c14.59 3.481 14.258 6.631-.735 7l-23.349 1.106c-15.303.376-16.33 5.665-2.282 11.753l21.236 9.783c13.763 5.964 12.891 9.01-1.938 6.765l-23.187-2.97c-15.135-2.29-17.063 2.74-4.285 11.178l19.216 13.326c12.52 8.267 11.133 11.113-3.082 6.326l-22.318-6.957c-14.509-4.887-17.28-.269-6.16 10.263l16.613 16.465c10.896 10.318 9.037 12.88-4.132 5.694l-20.773-10.731c-13.44-7.336-16.971-3.27-7.845 9.036l13.505 19.102c8.94 12.056 6.665 14.256-5.057 4.89l-18.597-14.18c-11.964-9.56-16.146-6.17-9.294 7.534l9.988 21.161c6.713 13.428 4.09 15.199-5.828 3.936l-15.855-17.198c-10.125-11.495-14.831-8.882-10.46 5.805l6.166 22.575c4.283 14.39 1.393 15.679-6.423 2.863l-12.63-19.693c-7.977-13.08-13.066-11.326-11.307 3.898l2.156 23.305c1.722 14.916-1.348 15.682-6.822 1.702l-9.023-21.59c-5.587-14.269-10.902-13.425-11.812 1.874l-1.918 23.325c-.89 14.989-4.047 15.21-7.013.49l-5.142-22.83c-3.027-15.024-8.408-15.118-11.957-.21l-5.935 22.638c-3.477 14.606-6.623 14.275-6.991-.736l-1.104-23.377c-.376-15.322-5.659-16.35-11.74-2.286l-9.77 21.263c-5.958 13.78-8.998 12.906-6.758-1.94l2.968-23.215c2.287-15.154-2.737-17.085-11.164-4.292l-13.31 19.24c-8.258 12.535-11.101 11.147-6.32-3.085l6.95-22.346c4.88-14.526.267-17.301-10.251-6.167l-16.445 16.633c-10.306 10.91-12.865 9.047-5.687-4.137L90.796 301.2c7.325-13.457 3.264-16.992-9.026-7.856l-19.08 13.522c-12.04 8.952-14.238 6.673-4.882-5.063l14.162-18.62c9.549-11.978 6.162-16.165-7.526-9.304l-21.135 9.999c-13.41 6.722-15.18 4.096-3.93-5.835l17.177-15.874c11.48-10.137 8.871-14.85-5.799-10.473L28.21 257.87c-14.373 4.288-15.66 1.395-2.86-6.43l19.67-12.646c13.064-7.987 11.312-13.081-3.894-11.322l-23.275 2.16c-14.899 1.724-15.665-1.35-1.701-6.83l21.563-9.035c14.251-5.593 13.41-10.915-1.87-11.826l-23.297-1.92c-14.97-.893-15.192-4.052-.49-7.022l22.803-5.148c15.004-3.03 15.098-8.418.208-11.972l-22.61-5.941c-14.588-3.482-14.258-6.632.735-7l23.35-1.106c15.302-.376 16.329-5.665 2.282-11.753l-21.236-9.783c-13.763-5.965-12.892-9.01 1.938-6.766l23.186 2.97c15.136 2.291 17.064-2.739 4.286-11.177l-19.216-13.326c-12.52-8.267-11.134-11.114 3.08-6.326l22.32 6.957c14.508 4.886 17.28.268 6.16-10.263L42.727 85.899c-10.896-10.318-9.036-12.881 4.132-5.695l20.773 10.732c13.44 7.335 16.971 3.269 7.846-9.036L61.974 62.797c-8.94-12.056-6.665-14.256 5.057-4.89l18.597 14.18c11.963 9.56 16.145 6.17 9.293-7.534l-9.987-21.16c-6.714-13.428-4.091-15.2 5.828-3.937l15.855 17.198c10.124 11.495 14.83 8.883 10.459-5.804l-6.165-22.576c-4.283-14.39-1.393-15.678 6.422-2.863l12.63 19.694c7.978 13.08 13.066 11.326 11.308-3.899l-2.156-23.304c-1.722-14.916 1.347-15.683 6.821-1.703l9.024 21.59c5.586 14.269 10.902 13.426 11.811-1.873l1.919-23.325z"/>
            <path d="M165.446 12.945c.63-15.003 3.781-15.279 7.003-.614l5.54 22.738c3.288 14.968 8.67 14.968 11.958 0l5.54-22.738c3.221-14.665 6.373-14.389 7.002.614l1.512 23.355c.642 15.312 5.943 16.247 11.777 2.079l9.399-21.429c5.716-13.883 8.772-13.062 6.79 1.822l-2.562 23.263c-2.023 15.191 3.034 17.034 11.237 4.095l12.973-19.47c8.038-12.677 10.905-11.339 6.371 2.975l-6.558 22.464c-4.627 14.61.034 17.303 10.357 5.987l16.152-16.918c10.114-11.087 12.706-9.271 5.758 4.037l-10.354 20.982c-7.09 13.583-2.968 17.046 9.161 7.697l18.841-13.853c11.884-9.16 14.12-6.92 4.97 4.977l-13.836 18.864c-9.338 12.143-5.878 16.27 7.688 9.172l20.956-10.367c13.292-6.955 15.107-4.36 4.033 5.765l-16.898 16.172c-11.302 10.335-8.612 15.002 5.98 10.37l22.437-6.566c14.296-4.539 15.633-1.668 2.971 6.379l-19.446 12.988c-12.924 8.213-11.083 13.276 4.09 11.251l23.235-2.565c14.865-1.984 15.685 1.075 1.819 6.799l-21.403 9.41c-14.151 5.842-13.217 11.148 2.077 11.791l23.326 1.513c14.985.63 15.26 3.786.614 7.013l-22.71 5.545c-14.95 3.293-14.95 8.681 0 11.973l22.71 5.547c14.646 3.225 14.37 6.381-.614 7.011l-23.326 1.513c-15.294.645-16.228 5.95-2.077 11.792l21.403 9.41c13.866 5.724 13.046 8.784-1.82 6.8l-23.234-2.566c-15.173-2.025-17.014 3.038-4.09 11.25l19.446 12.989c12.662 8.048 11.325 10.918-2.971 6.38l-22.438-6.566c-14.59-4.633-17.281.033-5.979 10.369l16.898 16.171c11.074 10.127 9.26 12.721-4.033 5.766l-20.956-10.367c-13.566-7.099-17.026-2.972-7.688 9.172l13.837 18.864c9.15 11.898 6.913 14.138-4.97 4.977l-18.842-13.853c-12.129-9.35-16.25-5.886-9.161 7.696l10.354 20.983c6.948 13.308 4.356 15.125-5.758 4.037l-16.152-16.918c-10.323-11.316-14.984-8.623-10.357 5.987l6.558 22.464c4.534 14.313 1.667 15.652-6.371 2.975l-12.973-19.47c-8.203-12.94-13.26-11.096-11.237 4.095l2.562 23.263c1.982 14.885-1.074 15.704-6.79 1.822l-9.399-21.43c-5.834-14.168-11.135-13.232-11.777 2.08l-1.512 23.355c-.629 15.003-3.78 15.279-7.002.614l-5.54-22.737c-3.289-14.969-8.67-14.969-11.959 0l-5.539 22.737c-3.222 14.665-6.374 14.389-7.003-.614l-1.511-23.355c-.643-15.312-5.943-16.248-11.778-2.08l-9.398 21.43c-5.717 13.882-8.772 13.063-6.791-1.822l2.563-23.263c2.022-15.191-3.035-17.034-11.238-4.095l-12.972 19.47c-8.038 12.677-10.905 11.338-6.371-2.975l6.557-22.464c4.627-14.61-.034-17.303-10.357-5.987L88 327.89c-10.114 11.088-12.706 9.27-5.76-4.037l10.355-20.983c7.09-13.582 2.968-17.046-9.161-7.696l-18.84 13.853c-11.884 9.16-14.121 6.921-4.971-4.977l13.836-18.864c9.338-12.144 5.879-16.27-7.687-9.172L44.814 286.38c-13.292 6.955-15.107 4.361-4.032-5.766l16.897-16.171c11.302-10.336 8.612-15.002-5.98-10.37l-22.436 6.567c-14.296 4.538-15.633 1.668-2.971-6.38l19.445-12.988c12.924-8.213 11.083-13.276-4.09-11.251l-23.234 2.565c-14.866 1.985-15.685-1.075-1.82-6.799l21.403-9.41c14.151-5.841 13.217-11.147-2.076-11.792l-23.327-1.513c-14.984-.63-15.26-3.786-.613-7.011l22.71-5.547c14.95-3.292 14.95-8.68 0-11.973l-22.71-5.545c-14.647-3.227-14.371-6.382.613-7.013l23.327-1.513c15.293-.643 16.227-5.95 2.076-11.792l-21.403-9.41c-13.865-5.723-13.046-8.782 1.82-6.798l23.234 2.565c15.173 2.025 17.014-3.038 4.09-11.251l-19.445-12.988c-12.662-8.047-11.325-10.918 2.97-6.38l22.438 6.567c14.59 4.632 17.281-.035 5.98-10.37L40.781 88.442c-11.075-10.126-9.26-12.72 4.032-5.765L65.77 93.044c13.566 7.099 17.025 2.971 7.687-9.172L59.622 65.008c-9.15-11.898-6.913-14.137 4.97-4.977l18.84 13.853c12.13 9.35 16.253 5.886 9.162-7.697L82.24 45.205c-6.947-13.308-4.355-15.124 5.759-4.037l16.151 16.918c10.323 11.316 14.984 8.622 10.357-5.987l-6.557-22.464c-4.534-14.314-1.667-15.652 6.37-2.974l12.973 19.469c8.203 12.939 13.26 11.096 11.238-4.095l-2.563-23.263c-1.981-14.884 1.074-15.705 6.79-1.822l9.399 21.429c5.835 14.168 11.135 13.233 11.778-2.08l1.51-23.354z"/>
            <path d="M162.708 13.238c.368-15.011 3.514-15.342 6.991-.735l5.936 22.637c3.549 14.908 8.929 14.814 11.956-.21l5.142-22.83c2.966-14.72 6.122-14.499 7.013.49l1.919 23.326c.909 15.299 6.225 16.142 11.811 1.873L222.5 16.2c5.474-13.98 8.544-13.214 6.822 1.703l-2.156 23.304c-1.758 15.225 3.33 16.979 11.306 3.899l12.632-19.694c7.815-12.815 10.705-11.527 6.422 2.863L251.36 50.85c-4.372 14.687.335 17.299 10.459 5.804l15.855-17.198c9.919-11.262 12.541-9.491 5.828 3.936l-9.988 21.161c-6.852 13.704-2.67 17.095 9.294 7.535l18.597-14.18c11.722-9.367 13.997-7.167 5.057 4.89L292.957 81.9c-9.125 12.305-5.595 16.371 7.845 9.036l20.773-10.732c13.169-7.186 15.029-4.623 4.133 5.695l-16.613 16.465c-11.121 10.531-8.35 15.15 6.159 10.263l22.319-6.957c14.214-4.788 15.601-1.941 3.081 6.326l-19.216 13.326c-12.778 8.438-10.85 13.468 4.285 11.178l23.187-2.97c14.83-2.245 15.701.8 1.938 6.765l-21.236 9.783c-14.047 6.088-13.02 11.377 2.282 11.753l23.35 1.105c14.993.37 15.323 3.52.735 7l-22.61 5.942c-14.89 3.554-14.796 8.941.208 11.972l22.803 5.148c14.701 2.97 14.48 6.13-.49 7.022l-23.297 1.92c-15.28.911-16.122 6.233-1.87 11.826l21.563 9.035c13.964 5.48 13.198 8.554-1.7 6.83l-23.276-2.16c-15.206-1.76-16.958 3.335-3.894 11.322l19.67 12.646c12.8 7.825 11.513 10.718-2.86 6.43l-22.548-6.173c-14.67-4.376-17.279.336-5.798 10.473l17.177 15.873c11.249 9.932 9.48 12.558-3.93 5.836l-21.135-10c-13.688-6.86-17.075-2.673-7.526 9.306l14.162 18.619c9.356 11.736 7.158 14.015-4.883 5.063l-19.079-13.522c-12.29-9.136-16.351-5.601-9.026 7.856l10.719 20.798c7.177 13.184 4.619 15.046-5.688 4.137l-16.444-16.633c-10.518-11.134-15.131-8.359-10.25 6.167l6.948 22.346c4.782 14.232 1.938 15.62-6.319 3.085l-13.31-19.24c-8.427-12.793-13.451-10.862-11.164 4.292l2.968 23.214c2.24 14.847-.8 15.72-6.759 1.94l-9.77-21.262c-6.081-14.064-11.364-13.036-11.74 2.286l-1.103 23.377c-.368 15.011-3.514 15.342-6.991.736l-5.936-22.637c-3.549-14.909-8.929-14.815-11.956.209l-5.142 22.83c-2.966 14.72-6.122 14.499-7.013-.49l-1.919-23.325c-.909-15.3-6.224-16.143-11.81-1.874l-9.024 21.59c-5.474 13.98-8.544 13.214-6.822-1.702l2.156-23.305c1.758-15.224-3.33-16.978-11.306-3.898l-12.632 19.693c-7.815 12.816-10.705 11.528-6.422-2.863l6.165-22.575c4.372-14.687-.335-17.3-10.459-5.805L90.762 329.49c-9.919 11.263-12.541 9.492-5.828-3.936l9.988-21.16c6.851-13.705 2.67-17.095-9.294-7.535l-18.597 14.18c-11.722 9.366-13.997 7.166-5.057-4.89l13.505-19.102c9.125-12.305 5.595-16.372-7.845-9.036L46.861 288.74c-13.17 7.187-15.029 4.624-4.133-5.694l16.613-16.465c11.121-10.532 8.35-15.15-6.159-10.263l-22.318 6.957c-14.215 4.787-15.602 1.94-3.082-6.326l19.216-13.326c12.778-8.439 10.85-13.469-4.286-11.178l-23.186 2.97c-14.83 2.244-15.701-.8-1.938-6.765l21.236-9.783c14.047-6.088 13.02-11.377-2.282-11.753l-23.35-1.106c-14.993-.369-15.323-3.519-.735-7l22.61-5.942c14.89-3.553 14.796-8.94-.208-11.972l-22.804-5.148c-14.7-2.97-14.48-6.129.49-7.021l23.298-1.921c15.28-.91 16.121-6.232 1.87-11.826l-21.563-9.035c-13.963-5.48-13.198-8.554 1.7-6.829l23.276 2.159c15.206 1.76 16.958-3.335 3.894-11.321l-19.67-12.647c-12.8-7.824-11.513-10.718 2.86-6.43l22.547 6.173c14.67 4.377 17.28-.336 5.799-10.472L39.379 90.903c-11.25-9.931-9.48-12.557 3.93-5.835l21.135 9.999c13.688 6.86 17.075 2.673 7.526-9.305l-14.162-18.62c-9.356-11.735-7.158-14.014 4.883-5.063l19.08 13.522c12.289 9.137 16.35 5.602 9.025-7.855L80.077 46.947C72.9 33.763 75.46 31.901 85.765 42.81l16.444 16.634c10.518 11.134 15.131 8.359 10.25-6.167l-6.948-22.346c-4.782-14.232-1.938-15.62 6.319-3.085l13.31 19.24c8.427 12.793 13.45 10.862 11.164-4.292l-2.968-23.215c-2.24-14.847.8-15.72 6.758-1.94l9.771 21.262c6.081 14.065 11.363 13.036 11.739-2.285l1.104-23.378z"/>
            <path d="M159.615 13.835c.106-15.015 3.246-15.4 6.978-.858l6.328 22.53c3.808 14.844 9.187 14.657 11.951-.417l4.743-22.918c2.71-14.768 5.869-14.603 7.021.369l2.324 23.288c1.177 15.28 6.506 16.03 11.843 1.666l8.646-21.744c5.23-14.074 8.312-13.361 6.85 1.583l-1.75 23.338c-1.492 15.253 3.626 16.918 11.374 3.7l12.285-19.91c7.591-12.95 10.503-11.713 6.472 2.75l-5.771 22.68c-4.115 14.761.636 17.291 10.558 5.621l15.553-17.472c9.721-11.435 12.375-9.71 5.896 3.833l-9.617 21.332c-6.612 13.822-2.372 17.139 9.424 7.37l18.346-14.502c11.557-9.57 13.87-7.41 5.142 4.8L291.04 80.21c-8.91 12.463-5.309 16.467 8.002 8.898l20.583-11.093c13.04-7.415 14.944-4.885 4.23 5.622l-16.323 16.752c-10.936 10.724-8.084 15.294 6.337 10.154l22.194-7.346c14.129-5.036 15.566-2.213 3.191 6.272l-18.98 13.66c-12.63 8.66-10.614 13.655 4.479 11.101l23.132-3.376c14.787-2.502 15.712.527 2.055 6.731l-21.062 10.152c-13.94 6.333-12.82 11.603 2.486 11.712l23.365.697c14.997.107 15.383 3.25.858 6.986l-22.503 6.336c-14.826 3.814-14.639 9.199.417 11.967l22.89 4.748c14.75 2.713 14.585 5.876-.369 7.03l-23.26 2.327c-15.261 1.177-16.01 6.514-1.663 11.857l21.717 8.656c14.056 5.236 13.345 8.322-1.581 6.859l-23.31-1.752c-15.234-1.494-16.897 3.63-3.695 11.387l19.886 12.3c12.935 7.601 11.698 10.517-2.747 6.48l-22.652-5.778c-14.743-4.12-17.27.637-5.615 10.572l17.452 15.572c11.42 9.733 9.697 12.39-3.829 5.903l-21.306-9.629c-13.805-6.62-17.118-2.375-7.362 9.436l14.485 18.368c9.559 11.571 7.4 13.888-4.795 5.148l-19.311-13.187c-12.448-8.92-16.447-5.314-8.888 8.012l11.08 20.609c7.406 13.057 4.88 14.963-5.615 4.235l-16.732-16.344c-10.71-10.948-15.275-8.092-10.142 6.346l7.338 22.221c5.03 14.146 2.21 15.584-6.264 3.195l-13.643-19.004c-8.65-12.644-13.64-10.626-11.089 4.485l3.372 23.16c2.5 14.806-.525 15.732-6.722 2.058l-10.14-21.088c-6.325-13.956-11.589-12.836-11.697 2.49l-.697 23.393c-.106 15.016-3.247 15.401-6.978.858l-6.328-22.53c-3.808-14.844-9.187-14.656-11.952.418l-4.743 22.917c-2.709 14.769-5.868 14.604-7.02-.368l-2.325-23.289c-1.176-15.28-6.505-16.03-11.842-1.665l-8.646 21.744c-5.23 14.073-8.312 13.36-6.85-1.584l1.75-23.338c1.491-15.253-3.626-16.918-11.374-3.7l-12.285 19.91c-7.592 12.951-10.503 11.713-6.472-2.75l5.771-22.679c4.115-14.762-.636-17.292-10.559-5.621l-15.552 17.472c-9.722 11.434-12.375 9.709-5.896-3.833l9.616-21.332c6.613-13.822 2.373-17.14-9.423-7.371L69.144 313.26c-11.557 9.57-13.87 7.41-5.142-4.8l13.17-19.335c8.91-12.464 5.308-16.467-8.002-8.899L48.587 291.32c-13.04 7.415-14.945 4.886-4.23-5.621l16.324-16.753c10.935-10.723 8.082-15.293-6.338-10.154l-22.194 7.347c-14.13 5.035-15.565 2.213-3.192-6.272l18.981-13.66c12.63-8.66 10.613-13.656-4.48-11.102l-23.13 3.376c-14.789 2.503-15.714-.526-2.056-6.73l21.062-10.153c13.939-6.332 12.82-11.603-2.486-11.711l-23.366-.698c-14.997-.106-15.382-3.25-.857-6.986l22.503-6.336c14.826-3.813 14.638-9.198-.417-11.966l-22.89-4.749c-14.75-2.712-14.585-5.876.368-7.03l23.26-2.326c15.262-1.178 16.011-6.514 1.664-11.857l-21.718-8.657c-14.056-5.235-13.344-8.322 1.582-6.858l23.31 1.752c15.234 1.493 16.897-3.63 3.695-11.388l-19.886-12.3c-12.935-7.6-11.698-10.516 2.747-6.48l22.652 5.778c14.743 4.12 17.27-.637 5.614-10.571L37.66 93.643c-11.421-9.733-9.698-12.39 3.828-5.903l21.306 9.628c13.805 6.621 17.118 2.376 7.362-9.435L55.67 69.565c-9.559-11.571-7.401-13.888 4.795-5.148l19.312 13.186c12.447 8.92 16.446 5.315 8.886-8.012L77.584 48.983c-7.406-13.057-4.88-14.963 5.615-4.236L99.93 61.09c10.71 10.95 15.274 8.094 10.141-6.344l-7.337-22.221c-5.03-14.147-2.21-15.585 6.264-3.196l13.643 19.004c8.65 12.645 13.64 10.626 11.088-4.485l-3.372-23.16c-2.499-14.805.526-15.732 6.723-2.058l10.14 21.088c6.325 13.956 11.589 12.836 11.697-2.489l.697-23.394z"/>
        </g>
    </g>
</svg>
