<?xml version="1.0" encoding="UTF-8"?>
<svg width="224px" height="47px" viewBox="0 0 224 47" version="1.1" xmlns="http://www.w3.org/2000/svg" xmlns:xlink="http://www.w3.org/1999/xlink" style="background: #FFFFFF;">
    <!-- Generator: Sketch 46.2 (44496) - http://www.bohemiancoding.com/sketch -->
    <title>Certificate</title>
    <desc>Created with Sketch.</desc>
    <defs></defs>
    <g id="Page-1" stroke="none" stroke-width="1" fill="none" fill-rule="evenodd">
        <g id="Certificate" fill="#293352">
            <g id="Blue-original" transform="translate(17.000000, 12.000000)">
                <path d="M17.011169,9.1974026 L17.011169,21.2597403 L22.6776625,21.2597403 L22.6776625,1.03428571 L16.7025976,1.03428571 L11.4007794,7.87896104 L6.07090925,1.03428571 L0.0958443169,1.03428571 L0.0958443169,21.2597403 L5.76233782,21.2597403 L5.76233782,9.25350649 L10.8116885,15.3407792 L11.8215586,15.3407792 L17.011169,9.1974026 Z M36.756104,6.9812987 L41.7493508,6.9812987 L41.7493508,21.2597403 L36.8402599,21.2597403 L36.5877923,19.7168831 C35.3535066,21.1194805 33.5020781,21.5963636 31.903117,21.5963636 C27.8075326,21.5963636 25.3670131,18.2581818 25.3670131,14.1345455 C25.3670131,9.8987013 27.8075326,6.64467532 32.2958443,6.64467532 C34.3436365,6.64467532 35.718182,7.37402597 36.4755846,8.52415584 L36.756104,6.9812987 Z M33.5020781,10.9646753 C31.903117,10.9646753 30.6407794,12.1428571 30.6407794,14.1345455 C30.6407794,16.1262338 31.903117,17.2483117 33.5020781,17.2483117 C35.2974027,17.2483117 36.4475326,15.8176623 36.4475326,14.1345455 C36.4475326,12.198961 35.3815586,10.9646753 33.5020781,10.9646753 Z M50.3296105,1.00623377 L45.0838962,1.00623377 L45.0838962,21.2597403 L50.3296105,21.2597403 L50.3296105,1.00623377 Z M60.2283118,2.94181818 L54.9545455,3.53090909 L54.9545455,7.06545455 L52.6823377,7.06545455 L52.6823377,11.161039 L54.9545455,11.161039 L54.9545455,15.8176623 C54.9545455,20.4462338 57.3670131,21.5963636 60.2283118,21.5963636 C61.715065,21.5963636 63.0896105,21.3438961 64.3519481,20.6425974 L63.1737663,16.7153247 C62.7529871,17.0519481 62.1638962,17.2202597 61.6309092,17.2202597 C60.8174027,17.2202597 60.2002598,16.7994805 60.2002598,15.8176623 L60.2002598,11.161039 L63.4542858,11.161039 L63.4542858,7.06545455 L60.2283118,7.06545455 L60.2283118,2.94181818 Z M77.8693507,6.9812987 L66.0314286,6.9812987 L66.0314286,11.2171429 L71.1368832,11.2171429 L65.4984416,19.6046753 L65.4984416,21.2597403 L78.234026,21.2597403 L78.234026,16.6872727 L72.5394806,16.6872727 L77.8693507,8.77662338 L77.8693507,6.9812987 Z M104.371169,21.2597403 L104.371169,16.4348052 L93.8236364,16.4348052 L93.8236364,13.3771429 L103.389351,13.3771429 L103.389351,8.72051948 L93.8236364,8.72051948 L93.8236364,5.83116883 L103.978442,5.83116883 L103.978442,1.06233766 L88.1851948,1.06233766 L88.1851948,21.2597403 L104.371169,21.2597403 Z M116.850649,21.2597403 L122.152468,21.2597403 L122.152468,13.2368831 C122.152468,8.15948052 119.59974,6.64467532 116.57013,6.64467532 C115.083377,6.64467532 113.316104,7.12155844 112.081818,8.55220779 L111.857403,6.9812987 L107.144675,6.9812987 L107.144675,21.2597403 L112.39039,21.2597403 L112.39039,13.7418182 C112.39039,11.8623377 113.568571,10.9927273 114.858961,10.9927273 C115.840779,10.9927273 116.850649,11.6098701 116.850649,13.3771429 L116.850649,21.2597403 Z M129.750909,22.2696104 C129.666753,24.4576623 131.041299,24.9345455 132.443896,24.9345455 C133.818442,24.9345455 135.080779,24.3174026 135.080779,22.9428571 C135.080779,21.9049351 134.435584,21.0353247 132.5,21.0353247 C127.703117,21.0353247 124.561299,18.2581818 124.561299,13.825974 C124.561299,9.44987013 128.067792,6.64467532 132.5,6.64467532 C133.453766,6.64467532 134.435584,6.81298701 135.445455,7.17766234 L136.988312,5.21402597 L140.831429,7.96311688 L138.98,10.1511688 C140.017922,11.3293506 140.354545,12.5636364 140.354545,13.8820779 C140.354545,15.7054545 139.372727,17.5568831 137.717662,18.6228571 C140.326493,20.1657143 140.522857,22.2696104 140.522857,23.0831169 C140.522857,27.5433766 136.791948,29.4509091 132.443896,29.4509091 C127.366493,29.4509091 124.449091,26.6737662 124.757662,22.2696104 L129.750909,22.2696104 Z M132.5,11.0207792 C130.901039,11.0207792 129.722857,12.227013 129.722857,13.825974 C129.722857,15.4249351 130.901039,16.6031169 132.5,16.6031169 C134.042857,16.6031169 135.192987,15.4249351 135.192987,13.825974 C135.192987,12.227013 134.042857,11.0207792 132.5,11.0207792 Z M148.57013,1.00623377 L143.324416,1.00623377 L143.324416,21.2597403 L148.57013,21.2597403 L148.57013,1.00623377 Z M151.596104,3.11012987 C151.596104,4.84935065 153.110909,5.77506494 154.597662,5.77506494 C156.084415,5.77506494 157.571169,4.84935065 157.571169,3.11012987 C157.571169,1.37090909 156.084415,0.445194805 154.597662,0.445194805 C153.110909,0.445194805 151.596104,1.37090909 151.596104,3.11012987 Z M151.932727,21.2597403 L157.262597,21.2597403 L157.262597,6.9812987 L151.932727,6.9812987 L151.932727,21.2597403 Z M161.326493,15.8737662 L159.615325,19.7168831 C161.242338,20.9231169 164.01948,21.5963636 166.516104,21.5963636 C169.966493,21.5963636 173.164415,20.334026 173.164415,16.7714286 C173.164415,13.0124675 169.573766,12.1709091 166.60026,12.0587013 C165.702597,12.0306494 165.534286,11.6379221 165.534286,11.3854545 C165.534286,10.9085714 166.011169,10.6841558 166.796623,10.6841558 C167.974805,10.6841558 169.657922,11.0488312 170.471428,11.5537662 L172.463117,8.18753247 C171.088571,7.14961039 169.096883,6.64467532 166.796623,6.64467532 C163.458441,6.64467532 160.204415,7.87896104 160.204415,11.3293506 C160.204415,14.7797403 163.570649,15.9018182 166.347792,16.014026 C167.357662,16.0420779 167.834545,16.3506494 167.834545,16.7714286 C167.834545,17.2483117 167.357662,17.4727273 166.403896,17.4727273 C165.225714,17.4727273 163.542597,17.3044156 161.326493,15.8737662 Z M180.959221,1.06233766 L175.601299,1.06233766 L175.601299,21.2597403 L180.931169,21.2597403 L180.931169,13.7137662 C180.959221,12.0025974 182.109351,11.2732468 183.147273,11.2732468 C184.241299,11.2732468 185.082857,11.7501299 185.082857,13.3771429 L185.082857,21.2597403 L190.384675,21.2597403 L190.384675,13.0685714 C190.384675,8.07532468 187.691688,6.67272727 184.970649,6.67272727 C183.315584,6.67272727 181.969091,7.26181818 180.959221,8.52415584 L180.959221,1.06233766 Z" id="Maltz-English"></path>
            </g>
        </g>
    </g>
</svg>