<?xml version="1.0" encoding="UTF-8"?>
<svg width="45px" height="45px" viewBox="0 0 45 45" version="1.1" xmlns="http://www.w3.org/2000/svg" xmlns:xlink="http://www.w3.org/1999/xlink">
    <!-- Generator: Sketch 46.2 (44496) - http://www.bohemiancoding.com/sketch -->
    <title>footerlogo</title>
    <desc>Created with Sketch.</desc>
    <defs>
        <rect id="path-1" x="0" y="0" width="45" height="45" rx="6.23376623"></rect>
    </defs>
    <g id="Page-1" stroke="none" stroke-width="1" fill="none" fill-rule="evenodd">
        <g id="footerlogo">
            <g id="45x45">
                <g id="Rectangle">
                    <use fill="#293352" fill-rule="evenodd" xlink:href="#path-1"></use>
                    <rect stroke="#293352" stroke-width="0.779220779" x="0.38961039" y="0.38961039" width="44.2207792" height="44.2207792" rx="6.23376623"></rect>
                </g>
                <path d="M11.1318334,37 L11.1318334,35.452 L7.74783345,35.452 L7.74783345,34.471 L10.8168334,34.471 L10.8168334,32.977 L7.74783345,32.977 L7.74783345,32.05 L11.0058334,32.05 L11.0058334,30.52 L5.93883345,30.52 L5.93883345,37 L11.1318334,37 Z M15.3481667,37 L17.0491667,37 L17.0491667,34.426 C17.0491667,32.797 16.2301667,32.311 15.2581667,32.311 C14.7811667,32.311 14.2141667,32.464 13.8181667,32.923 L13.7461667,32.419 L12.2341667,32.419 L12.2341667,37 L13.9171667,37 L13.9171667,34.588 C13.9171667,33.985 14.2951667,33.706 14.7091667,33.706 C15.0241667,33.706 15.3481667,33.904 15.3481667,34.471 L15.3481667,37 Z M19.6995,37.324 C19.6725,38.026 20.1135,38.179 20.5635,38.179 C21.0045,38.179 21.4095,37.981 21.4095,37.54 C21.4095,37.207 21.2025,36.928 20.5815,36.928 C19.0425,36.928 18.0345,36.037 18.0345,34.615 C18.0345,33.211 19.1595,32.311 20.5815,32.311 C20.8875,32.311 21.2025,32.365 21.5265,32.482 L22.0215,31.852 L23.2545,32.734 L22.6605,33.436 C22.9935,33.814 23.1015,34.21 23.1015,34.633 C23.1015,35.218 22.7865,35.812 22.2555,36.154 C23.0925,36.649 23.1555,37.324 23.1555,37.585 C23.1555,39.016 21.9585,39.628 20.5635,39.628 C18.9345,39.628 17.9985,38.737 18.0975,37.324 L19.6995,37.324 Z M20.5815,33.715 C20.0685,33.715 19.6905,34.102 19.6905,34.615 C19.6905,35.128 20.0685,35.506 20.5815,35.506 C21.0765,35.506 21.4455,35.128 21.4455,34.615 C21.4455,34.102 21.0765,33.715 20.5815,33.715 Z M25.9498333,30.502 L24.2668333,30.502 L24.2668333,37 L25.9498333,37 L25.9498333,30.502 Z M27.1331666,31.177 C27.1331666,31.735 27.6191666,32.032 28.0961666,32.032 C28.5731666,32.032 29.0501666,31.735 29.0501666,31.177 C29.0501666,30.619 28.5731666,30.322 28.0961666,30.322 C27.6191666,30.322 27.1331666,30.619 27.1331666,31.177 Z M27.2411666,37 L28.9511666,37 L28.9511666,32.419 L27.2411666,32.419 L27.2411666,37 Z M30.4674999,35.272 L29.9184999,36.505 C30.4404999,36.892 31.3314999,37.108 32.1324999,37.108 C33.2394999,37.108 34.2654999,36.703 34.2654999,35.56 C34.2654999,34.354 33.1134999,34.084 32.1594999,34.048 C31.8714999,34.039 31.8174999,33.913 31.8174999,33.832 C31.8174999,33.679 31.9704999,33.607 32.2224999,33.607 C32.6004999,33.607 33.1404999,33.724 33.4015,33.886 L34.0404999,32.806 C33.5994999,32.473 32.9604999,32.311 32.2224999,32.311 C31.1514999,32.311 30.1074999,32.707 30.1074999,33.814 C30.1074999,34.921 31.1874999,35.281 32.0784999,35.317 C32.4024999,35.326 32.5554999,35.425 32.5554999,35.56 C32.5554999,35.713 32.4024999,35.785 32.0964999,35.785 C31.7184999,35.785 31.1784999,35.731 30.4674999,35.272 Z M36.9788332,30.52 L35.2598332,30.52 L35.2598332,37 L36.9698333,37 L36.9698333,34.579 C36.9788332,34.03 37.3478333,33.796 37.6808332,33.796 C38.0318332,33.796 38.3018333,33.949 38.3018333,34.471 L38.3018333,37 L40.0028333,37 L40.0028333,34.372 C40.0028333,32.77 39.1388332,32.32 38.2658333,32.32 C37.7348333,32.32 37.3028332,32.509 36.9788332,32.914 L36.9788332,30.52 Z" id="English" fill="#FFFFFF"></path>
                <polygon id="M" fill="#FFFFFF" points="28.5427779 15.1 28.5427779 28 34.6027779 28 34.6027779 6.37 28.2127779 6.37 22.5427779 13.69 16.8427779 6.37 10.4527779 6.37 10.4527779 28 16.5127779 28 16.5127779 15.16 21.9127779 21.67 22.9927779 21.67"></polygon>
            </g>
        </g>
    </g>
</svg>