<?xml version="1.0" encoding="UTF-8" standalone="no"?>
<svg
   xmlns:dc="http://purl.org/dc/elements/1.1/"
   xmlns:cc="http://creativecommons.org/ns#"
   xmlns:rdf="http://www.w3.org/1999/02/22-rdf-syntax-ns#"
   xmlns:svg="http://www.w3.org/2000/svg"
   xmlns="http://www.w3.org/2000/svg"
   xmlns:sodipodi="http://sodipodi.sourceforge.net/DTD/sodipodi-0.dtd"
   xmlns:inkscape="http://www.inkscape.org/namespaces/inkscape"
   version="1.0"
   width="455pt"
   height="455pt"
   viewBox="0 0 455 455"
   preserveAspectRatio="xMidYMid meet"
   id="svg16"
   sodipodi:docname="ear.svg"
   inkscape:version="0.92.3 (2405546, 2018-03-11)">
  <metadata
     id="metadata22">
    <rdf:RDF>
      <cc:Work
         rdf:about="">
        <dc:format>image/svg+xml</dc:format>
        <dc:type
           rdf:resource="http://purl.org/dc/dcmitype/StillImage" />
        <dc:title></dc:title>
      </cc:Work>
    </rdf:RDF>
  </metadata>
  <defs
     id="defs20" />
  <path
     style="fill:#3d3d55;stroke:none;stroke-width:0.1"
     inkscape:connector-curvature="0"
     id="path2"
     d="m 271.3,2.2 c -10.6,1 -25.8,5 -36.7,9.7 -48.6,20.9 -76.1,64.4 -76.1,120.1 0,46.3 15.5,85 55.7,139.1 13,17.6 17.3,24.1 21.3,31.9 2.9,5.8 3.4,7.8 4.1,18.5 1.6,22.5 7,36.5 18.4,47.4 10.4,10 22.9,15 43.3,17.2 43.8,4.7 69.3,-12.5 74.2,-50.1 1.6,-12.3 1.3,-28.6 -0.6,-32.6 -3.6,-7.6 -13.7,-10.6 -21.2,-6.4 -6.2,3.5 -8.2,8 -8.2,18.6 -0.1,17.6 -2.6,28.4 -7.9,33.4 -4.5,4.3 -10,6.1 -20.1,6.6 -17.1,0.7 -31.8,-3 -38.5,-10 -5.4,-5.6 -7.4,-12.1 -8.5,-28.1 -1,-14.8 -1.8,-18.2 -6.7,-28 -4.9,-9.7 -10,-17.4 -24.9,-37.6 -31.6,-42.8 -44.6,-70.6 -48.4,-103.4 -4.2,-37 5.8,-68 28.8,-89.6 13.7,-12.8 32.3,-22 50.4,-24.9 10.8,-1.7 30.2,-0.8 39.3,1.9 36.2,10.8 58,38 65.4,81.7 1.8,10.6 2.4,12.1 5.3,15.1 6.5,6.7 15.5,6.9 21.9,0.4 5.2,-5.2 5.7,-8.8 3,-24 C 392.4,38.6 339.3,-4 271.3,2.2 Z" />
  <path
     style="fill:#3d3d55;stroke:none;stroke-width:0.1"
     inkscape:connector-curvature="0"
     id="path6"
     d="m 278,60.9 c -8.8,1.5 -13.8,3.2 -23,7.9 -7.3,3.7 -10.8,6.4 -18.6,14.2 -8.2,8.1 -10.3,10.9 -14.3,19 -5.6,11.4 -7.7,20.6 -7.7,34.3 0,18.9 5,37.6 15.7,59.2 6.2,12.3 16.7,28.6 22.3,34.5 3.2,3.4 4.4,4 8,4 8.2,0 12.2,-9.2 6.7,-15.7 -4.7,-5.7 -15,-22.1 -20.1,-32.3 -13,-26 -16.9,-49.3 -11.1,-67.4 3,-9.5 6.9,-15.7 14.9,-23.3 11,-10.6 22.4,-15.5 36.2,-15.5 26.6,-0.2 50.2,20.2 54.9,47.4 l 0.7,3.8 h -6.9 c -18.4,0 -35.1,5.8 -44.8,15.5 -9.6,9.6 -13.5,20.7 -13.4,37.9 0,18.6 3.8,29.3 13.9,39.9 6.7,7.1 14.7,11.9 30.1,18.3 14.3,5.9 17.2,7.6 20.4,11.9 4.6,6 12.9,5.7 16.1,-0.6 2.6,-4.8 1.2,-9.3 -4.4,-14.9 -5.2,-5.2 -9.8,-7.8 -23.7,-13.6 -24,-9.9 -31,-16.9 -33.3,-33.6 -3.6,-25.8 7.9,-39.7 34.2,-41.5 l 8.9,-0.6 -1.7,3.9 c -2.3,5.5 -7.3,12.9 -13.9,20.2 -6.5,7.3 -7.3,11.1 -3.1,15.6 1.9,2.1 3.3,2.6 7,2.6 4.2,0 4.9,-0.4 10.7,-6.3 23.9,-24.2 29.2,-56 14.1,-84.8 C 343.5,83 324.1,67.5 305,62.6 297.4,60.7 284.5,59.9 278,60.9 Z" />
  <path
     style="fill:#3d3d55;stroke:none;stroke-width:0.1"
     inkscape:connector-curvature="0"
     id="path8"
     d="m 145.2,216.4 c -5,1.8 -8.5,5.1 -10.8,10.1 -3.8,8.1 -2,13.9 7.1,24.1 20.6,22.5 31.3,48.5 32.7,78.9 1.5,31.4 -8.8,62.1 -28.3,84.6 -9.9,11.5 -12.3,14.9 -13,18.5 -2.4,13.1 10,24.7 22.8,21.4 8.3,-2.2 26,-23.2 37.1,-44 28.4,-53.3 23.3,-121.7 -12.8,-170.6 -6.8,-9.2 -17.1,-20.1 -20.6,-21.9 -4.2,-2.2 -10,-2.7 -14.2,-1.1 z" />
  <path
     style="fill:#3d3d55;stroke:none;stroke-width:0.1"
     inkscape:connector-curvature="0"
     id="path10"
     d="m 99.8,264.1 c -2,1.3 -3.8,3.7 -4.9,6.5 -2.3,6.1 -0.9,10.6 6.1,18.6 6.5,7.5 11.4,16.5 14.6,26.8 3.3,10.6 3.3,27.4 0,38 -3.2,10.3 -8.1,19.3 -14.6,26.8 -8.9,10.2 -9.5,17.5 -1.9,24.2 2.8,2.4 4.4,3 8.2,3 6.4,0 9.6,-2.2 17.4,-11.9 9.8,-12.3 16.9,-27.6 19.9,-43.4 1.8,-9 1.5,-28.7 -0.5,-38.1 -2,-9.1 -6.4,-20.7 -10.8,-28.4 -4.4,-7.7 -14.4,-20 -18.1,-22.2 -4.3,-2.6 -11.2,-2.6 -15.4,0.1 z" />
  <path
     style="fill:#3d3d55;stroke:none;stroke-width:0.1"
     inkscape:connector-curvature="0"
     id="path12"
     d="m 64.1,297.1 c -3.7,4.3 -3.3,7.5 1.5,13.9 5.9,7.8 8.2,13.4 8.7,21.6 0.6,9.6 -1.5,16.4 -7.8,25 -5.9,8.1 -6.3,11.2 -2.1,15.5 2.2,2.2 3.9,2.9 6.7,2.9 3.2,0 4.4,-0.7 8,-4.7 8.8,-9.6 13.6,-22.3 13.7,-36.2 0,-13.9 -4.8,-26.7 -13.7,-36.4 -3.8,-4.1 -4.8,-4.7 -8.4,-4.7 -3.3,0 -4.5,0.6 -6.6,3.1 z" />
</svg>
