<?xml version="1.0" encoding="UTF-8"?>
<svg width="80px" height="80px" viewBox="0 0 80 80" version="1.1" xmlns="http://www.w3.org/2000/svg" xmlns:xlink="http://www.w3.org/1999/xlink">
    <!-- Generator: Sketch 46.2 (44496) - http://www.bohemiancoding.com/sketch -->
    <title>easy-speak</title>
    <desc>Created with Sketch.</desc>
    <defs></defs>
    <g id="Page-1" stroke="none" stroke-width="1" fill="none" fill-rule="evenodd">
        <g id="easy-speak" fill-rule="nonzero">
            <g id="original">
                <polygon id="Shape" fill="#FFFFFE" points="0 0 80 0 80 80 0 80"></polygon>
                <path d="M8.359375,0.12265625 C29.3492187,0.121875 50.3382812,0.12265625 71.328125,0.12265625 C71.5882812,0.121875 71.8492187,0.121875 72.109375,0.1265625 C73.7039062,0.1734375 75.2742187,0.6984375 76.5640625,1.63828125 C77.8835937,2.58203125 78.9,3.95234375 79.43125,5.484375 C79.7375,6.353125 79.8789062,7.2828125 79.8765625,8.203125 C79.8765625,29.1664063 79.8765625,50.1304688 79.8765625,71.09375 C79.8773437,71.4578125 79.8789062,71.8234375 79.86875,72.1875 C79.8210937,73.215625 79.5851562,74.2320313 79.1539062,75.1679688 C78.4578125,76.7046875 77.25,78.003125 75.7789062,78.8273438 C74.6648437,79.4492188 73.3867187,79.8101563 72.109375,79.8257813 C50.8851562,79.825 29.6617187,79.8257813 8.4375,79.825 C6.63515625,79.903125 4.82578125,79.3453125 3.384375,78.259375 C1.45,76.8359375 0.21953125,74.515625 0.17421875,72.109375 C0.17421875,50.78125 0.175,29.453125 0.17421875,8.125 C0.14375,6.45859375 0.68984375,4.80859375 1.65859375,3.45703125 C2.61875,2.12421875 3.984375,1.0953125 5.540625,0.56328125 C6.4390625,0.24609375 7.4078125,0.10703125 8.359375,0.12265625 Z" id="Shape" fill="#01589D"></path>
                <path d="M46.7203125,15.475 C51.5046875,16.5625 56.1273437,18.4679688 60.0773437,21.4101563 C60.3117188,21.5914063 60.3523437,21.940625 60.2585937,22.2046875 C60.0703125,22.61875 59.5976562,22.8617188 59.1960938,23.0242188 C58.2320312,23.3867188 57.171875,23.4421875 56.153125,23.39375 C54.4554687,22.025 52.4984375,20.9273438 50.5125,20.0359375 C46.2320312,18.1414063 41.5320312,17.0835938 36.8757813,16.7101563 C33.5945313,16.4695313 30.2789062,16.5507813 27.034375,17.1234375 C24.4671875,17.584375 21.9078125,18.35 19.6210938,19.6234375 C19.1273437,19.8859375 18.6585937,20.221875 18.20625,20.5523438 C17.29375,21.2351563 16.43125,22.0140625 15.6960937,22.8867188 C14.1820312,24.6445313 13.1210937,26.7851563 12.6640625,29.0617188 C12.2117187,31.2304688 12.296875,33.509375 12.7898437,35.6632813 C13.3148437,37.9585938 14.2859375,40.1242188 15.5554687,42.1023438 C16.79375,44.0109375 18.2960937,45.7546875 20.003125,47.2585938 C21.7914063,48.5375 23.7585937,49.5984375 25.7734375,50.4742188 C30.0507812,52.3296875 34.715625,53.4117188 39.2945313,54.2148438 C39.5304688,54.2632813 39.7546875,54.2859375 39.9945312,54.2835938 C39.9210938,54.2929688 39.8476562,54.3023438 39.7742187,54.3109375 C40.0335937,54.3179688 40.28125,54.3289063 40.4734375,54.5273438 C40.6554687,54.6984375 40.6164062,55.01875 40.5570312,55.2359375 C40.4132812,55.6726563 40.153125,56.0773437 39.8742187,56.4390625 C37.9859375,58.5296875 36.0085938,60.5414062 33.9671875,62.4820313 C33.7515625,62.6976562 33.496875,62.8820312 33.325,63.1273437 C34.7648438,63.2125 36.21875,63.2226562 37.65625,63.0859375 C42.0484375,62.6890625 46.2273438,61.1117188 49.9460937,58.7726562 C52.634375,57.0820312 55.3179688,55.1304688 57.5007812,52.8125 C58.7398437,51.4890625 59.8601562,49.9757813 60.5625,48.2953125 C60.728125,47.9171875 60.7765625,47.5601563 61.0929687,47.265625 C61.7484375,46.6476563 62.7140625,46.328125 63.59375,46.2171875 C64.0148437,46.1804688 64.5632813,46.15625 64.9359375,46.390625 C65.1453125,46.5140625 65.2289062,46.7742188 65.1195313,46.99375 C63.8445313,50.234375 61.8007812,53.1359375 59.2359375,55.4851563 C57.7140625,56.8984375 56.0320313,58.1007813 54.2515625,59.1648437 C53.0859375,59.925 51.8960937,60.64375 50.6625,61.2890625 C47.0617187,63.184375 43.15625,64.49375 39.140625,65.1515625 C36.6390625,65.5632813 34.0953125,65.7351562 31.5617188,65.6695313 C31.1726563,65.6414063 30.784375,65.5523438 30.4070312,65.4554688 C29.90625,65.3164062 29.3796875,65.1203125 29.0492188,64.696875 C28.8109375,64.39375 28.8234375,63.9804688 28.946875,63.6328125 C29.1632813,63.0570313 29.5640625,62.6070313 29.9804688,62.1679688 C31.6625,60.3640625 33.3453125,58.553125 35.0296875,56.7515625 C35.1890625,56.5804688 35.3546875,56.4210938 35.484375,56.2242188 C31.5890625,55.76875 27.790625,54.9539063 24.125,53.5390625 C20.8734375,52.284375 17.7414062,50.5453125 15.0984375,48.2617188 C12.1640625,45.7390625 9.83515625,42.5460938 8.63359375,38.8460938 C8.0703125,37.1039063 7.76640625,35.2695313 7.76875,33.4375 C7.77265625,31.4210938 8.14140625,29.4 8.8625,27.515625 C9.69921875,25.3140625 11.0007812,23.3125 12.6351562,21.6195313 C13.9148437,20.290625 15.3828125,19.15625 16.9734375,18.2226563 C19.4476563,16.7617188 22.1921875,15.7953125 25.0007812,15.2179688 C26.1078125,14.990625 27.2414062,14.8546875 28.3625,14.7125 C34.4664063,13.9921875 40.7101563,14.115625 46.7203125,15.475 Z" id="Shape" fill="#FFFFFE"></path>
                <path d="M22.734375,22.771875 C23.2632812,22.7851562 23.8804687,22.6765625 24.3773437,22.875 C24.9382812,23.059375 25.5039062,23.3429687 25.9398437,23.746875 C26.5882812,24.3335937 26.9585937,25.221875 26.9265625,26.0945312 C26.946875,26.8507812 26.8859375,27.5789062 26.571875,28.2773437 C26.1273437,29.365625 25.4234375,30.4046875 24.49375,31.1359375 C23.6890625,31.7984375 22.7234375,32.2382812 21.7234375,32.5148437 C21.5375,32.5632812 21.353125,32.6132812 21.1625,32.6375 L21.0984375,32.6757812 C20.7546875,32.7117187 20.4234375,32.7914062 20.0765625,32.8132812 C19.7273437,32.8992187 19.328125,32.7835937 19.0046875,32.9320312 C19.171875,33.6367187 19.7007812,34.3492187 20.3851562,34.6132812 C21.2546875,34.7554687 22.2070312,34.428125 22.91875,33.9320312 C23.3117187,33.6742187 23.628125,33.3390625 23.9921875,33.05 C24.2421875,32.9195312 24.5679687,32.9164062 24.8429687,32.8578125 C25.31875,32.903125 25.7554687,32.996875 26.0976562,33.3554687 C26.4976562,33.7726562 26.609375,34.3914062 26.440625,34.9382812 C26.3984375,35.259375 26.1953125,35.4523437 26.003125,35.6921875 C25.4171875,36.378125 24.6882812,36.9203125 23.8804687,37.3171875 C22.7835937,37.834375 21.6117187,38.1398437 20.39375,37.9492187 C20.15,37.9289062 19.9210937,37.8859375 19.6929687,37.796875 C18.56875,37.4359375 17.5015625,36.7382812 16.8054687,35.7742187 C15.9625,34.6414062 15.5234375,33.1789062 15.4,31.7851562 C15.3140625,31.2523437 15.3609375,30.6953125 15.35625,30.1554687 C15.4234375,29.6296875 15.4828125,29.1109375 15.6109375,28.59375 C15.9601562,27.303125 16.6484375,26.1195312 17.6460937,25.2234375 C19.025,23.8828125 20.7984375,22.9304687 22.734375,22.771875 Z" id="Shape" fill="#FFBE01"></path>
                <path d="M50.2320313,22.928125 C50.8046875,22.9164063 51.3789063,22.9117188 51.9515625,22.9328125 C53.2546875,23.0546875 54.5257813,23.446875 55.5359375,24.3054688 C55.8429688,24.709375 56.0390625,25.1898438 55.9867188,25.7054688 C56.0039063,26.15625 55.7023438,26.5203125 55.3296875,26.7328125 C55.0085938,26.8710938 54.646875,26.9328125 54.2984375,26.8898438 C54.1671875,26.85625 54.034375,26.8335938 53.9,26.815625 C53.1351563,26.5625 52.3703125,26.309375 51.60625,26.0539063 C51.3125,25.94375 51.0132813,25.965625 50.703125,25.971875 C50.3046875,25.9828125 49.8867188,26.2226563 49.7226563,26.59375 C49.5867188,26.9398438 49.6617188,27.2507813 49.7390625,27.596875 C50.2226563,28.1109375 50.8164063,28.5367188 51.4320313,28.8789063 C51.8695313,29.1265625 52.3515625,29.2382813 52.81875,29.453125 C53.7953125,29.8820313 54.7757813,30.5125 55.4351563,31.3632813 C56.1570313,32.2195313 56.565625,33.3304688 56.5265625,34.453125 C56.5304688,35.0609375 56.4171875,35.6851563 56.175,36.2445313 C55.8148438,37.0429688 55.1359375,37.7054688 54.3773438,38.1289063 C53.6453125,38.565625 52.8070313,38.8046875 51.953125,38.7851563 C51.2820313,38.8085938 50.6078125,38.6835938 49.953125,38.5476563 C48.5632813,38.0375 47.1960938,37.1679688 46.303125,35.9679688 C46.1539063,35.765625 45.9820313,35.5664063 45.9304688,35.3140625 C45.8742188,35.040625 45.8984375,34.7335938 45.915625,34.45625 C46.025,33.9976563 46.3453125,33.6117188 46.775,33.4210938 C47.0835938,33.2835938 47.4039063,33.3046875 47.7351563,33.3078125 C48.1273438,33.3046875 48.45,33.5203125 48.74375,33.75625 C49.2460938,34.1695313 49.4882813,34.7453125 50.025,35.1335938 C50.390625,35.4265625 50.8554688,35.6085938 51.328125,35.590625 C51.7875,35.603125 52.28125,35.5875 52.6820313,35.3335938 C52.9570313,35.1710938 53.0601563,34.8257813 53.0585938,34.525 C52.9875,34.0585938 52.8421875,33.478125 52.45625,33.1695313 C51.9710938,32.759375 51.4429688,32.3984375 50.9023438,32.065625 C50.0398438,31.515625 49.1578125,30.9960938 48.284375,30.4640625 C47.8101563,30.16875 47.3992188,29.7929688 47.0265625,29.378125 C46.4070313,28.6789063 46.090625,27.7265625 46.1546875,26.7976563 C46.215625,26.621875 46.2046875,26.440625 46.2398438,26.2601563 C46.325,25.725 46.6554688,25.2195313 46.9804688,24.796875 C47.6539063,23.9085938 48.6320313,23.3523438 49.6851563,23.0320313 C49.865625,22.9804688 50.0414063,22.928125 50.2320313,22.928125 Z" id="Shape" fill="#FFBE01"></path>
                <path d="M71.9882813,23.5578125 C72.3273438,23.9976563 72.2382813,24.5664063 72.225,25.0867188 C72.0882813,25.8929688 71.8796875,26.690625 71.6859375,27.4851563 C71.2351563,29.2382813 70.671875,30.9710938 69.9679688,32.6390625 C69.8195313,32.9882813 69.6617188,33.3265625 69.55,33.690625 C68.3992188,36.8585938 67.0015625,39.9296875 65.39375,42.8921875 C64.9773438,43.815625 63.7078125,44.2710938 62.8257813,43.7367188 C62.334375,43.4625 62.0398438,42.959375 61.9617188,42.4109375 C61.8703125,42.0703125 61.9382813,41.7046875 62.09375,41.39375 C62.975,39.5382813 63.85625,37.6835938 64.7382813,35.828125 C64.8460938,35.5789063 65.0164063,35.334375 65.0570313,35.0695313 C63.853125,34.3421875 62.7734375,33.4328125 61.8484375,32.3734375 C60.8289063,31.1742188 60.0375,29.71875 59.5953125,28.2078125 C59.5703125,28.1023438 59.5445313,27.996875 59.5195313,27.8914063 C59.4226563,27.34375 59.1921875,26.896875 59.2726563,26.3242188 C59.36875,26.0546875 59.4414063,25.796875 59.6429688,25.5828125 C59.9007813,25.3046875 60.2203125,24.9671875 60.625,24.9554688 C61.209375,24.821875 61.9390625,24.909375 62.36875,25.3664063 C62.7914063,25.7804688 62.9351563,26.4351563 63.01875,26.9984375 C63.2695313,27.8960938 63.6507813,28.7882813 64.2015625,29.5445313 C64.6257813,30.0890625 65.0828125,30.5875 65.628125,31.0140625 C65.8609375,31.1851563 66.1265625,31.4679688 66.428125,31.471875 C67.25625,29.5679688 67.8476563,27.5359375 68.425,25.5445313 C68.5726563,25.0195313 68.7265625,24.5109375 68.8039063,23.9765625 C68.8328125,23.7 69.0570313,23.4921875 69.2484375,23.3109375 C70.015625,22.6320313 71.3703125,22.709375 71.9882813,23.5578125 Z" id="Shape" fill="#FFBE01"></path>
                <path d="M38.125,23.4632812 C38.634375,23.4679687 39.1203125,23.41875 39.6117187,23.5828125 C39.8890625,23.653125 40.1695312,23.7039062 40.4484375,23.7648437 C41.0171875,23.9546875 41.584375,24.5140625 41.525,25.1554687 C41.5195312,27.7335937 41.5265625,30.3125 41.5210937,32.890625 C41.5226562,33.01875 41.5242187,33.1335937 41.5953125,33.2445312 C41.8273437,33.646875 42.003125,34.0632812 42.2828125,34.4367187 C42.6585937,34.9523437 43,35.4921875 43.3851562,36.0007812 C43.4148437,36.3570312 43.5132812,36.6726562 43.4382812,37.0335937 C43.3960937,37.4234375 43.2648437,37.7804687 42.9796875,38.0578125 C42.621875,38.4757812 42.003125,38.5796875 41.484375,38.5351562 C41.1617187,38.4148437 40.7390625,38.4664062 40.525,38.1515625 C40.1359375,37.7085937 39.7515625,37.2578125 39.3484375,36.8273437 C39.3,36.8304687 39.2515625,36.834375 39.2039062,36.8375 C38.3054687,37.7101562 37.1085937,38.3257812 35.8601562,38.4726562 C35.4328125,38.4953125 34.9578125,38.4929687 34.5304687,38.4695312 C33.55,38.3421875 32.6054687,37.9234375 31.834375,37.30625 C30.8679687,36.5484375 30.2023437,35.5054687 29.7476562,34.3757812 C29.6375,34.0242187 29.5789062,33.6492187 29.559375,33.28125 C29.4648437,32.6398437 29.4804687,31.9679687 29.5640625,31.3265625 C29.8046875,29.0546875 31.0625,26.9835937 32.8101562,25.5445312 C33.565625,24.8953125 34.4148437,24.3523437 35.296875,23.8929687 C35.8484375,23.6875 36.459375,23.6007812 37.0414062,23.5265625 C37.4039062,23.4507812 37.7578125,23.475 38.125,23.4632812 Z" id="Shape" fill="#FFBE01"></path>
                <path d="M22.7359375,26.0835937 C23.0820312,26.0148438 23.4023438,26.1195312 23.684375,26.3179687 C23.8882813,26.7484375 23.7875,27.1695312 23.5984375,27.58125 C23.4898438,27.9226562 23.2695313,28.1648437 23.0148438,28.4046875 C22.4015625,29.0460937 21.6070313,29.628125 20.7421875,29.8632812 C20.1328125,30.0367187 19.4976563,30.0015625 18.9304688,29.7101562 C18.8898438,29.115625 19.1851563,28.5125 19.5171875,28.0359375 C20.1460938,27.1960937 21.0078125,26.6703125 21.95625,26.2570312 C22.2101563,26.1484375 22.46875,26.134375 22.7359375,26.0835937 Z" id="Shape" fill="#01589D"></path>
                <path d="M37.9296875,26.90625 C38.0195312,27.18125 37.9929687,27.4507813 37.99375,27.734375 C37.99375,29.3226563 37.99375,30.9117188 37.99375,32.5 C37.990625,32.6859375 37.9765625,32.8554688 37.8359375,32.9921875 C37.3476562,33.5273438 36.8210937,34.0226563 36.353125,34.5773437 C35.8507812,34.5929688 35.346875,34.5625 34.8429687,34.5609375 C34.3726562,34.5726563 33.8710937,34.3765625 33.5570312,34.021875 C33.2859375,33.7164062 33.1960937,33.35625 33.10625,32.9703125 C33.0953125,32.4742188 33.0195312,31.890625 33.2171875,31.4265625 C33.5648437,30.4171875 34.0789062,29.4210938 34.7859375,28.615625 C35.525,27.7515625 36.5445312,27.1679688 37.65625,26.9390625 C37.746875,26.921875 37.8375,26.9109375 37.9296875,26.90625 Z" id="Shape" fill="#01589D"></path>
                <path d="M28.0515625,40.6171875 C28.1789063,40.7257813 28.1601563,40.8632813 28.171875,41.015625 C28.1765625,41.2492188 28.140625,41.4710938 27.9859375,41.6546875 C27.784375,41.8945313 27.4765625,41.9546875 27.178125,41.9695313 C26.9421875,41.8109375 26.7539063,41.6015625 26.4914063,41.4773438 C26.0023438,41.196875 25.465625,41.190625 24.921875,41.2710938 C24.6546875,41.3203125 24.3679688,41.4257813 24.275,41.7078125 C24.2320313,41.9476563 24.34375,42.2648438 24.553125,42.4015625 C25.0703125,42.775 25.6039063,43.128125 26.1460938,43.4640625 C26.7859375,43.8296875 27.3484375,44.396875 27.6789063,45.0578125 C27.909375,45.590625 27.9492188,46.225 27.9257813,46.7992188 C27.8851563,47.3945313 27.6210938,47.959375 27.0820313,48.2539063 C26.4507813,48.603125 25.6164063,48.6070313 24.9226563,48.4984375 C23.8890625,48.1539063 22.9546875,47.48125 22.2828125,46.6242188 C22.1804688,46.4890625 22.0671875,46.3492188 21.996875,46.1945313 C21.9242188,45.9640625 21.9171875,45.6929688 22.0132813,45.46875 C22.1273438,45.2539063 22.3507813,45.1882813 22.5804688,45.203125 C22.7632813,45.21875 23.0125,45.2234375 23.1289063,45.3867188 C23.6023438,45.9140625 24.134375,46.4046875 24.8046875,46.665625 C25.1492188,46.7882813 25.5632813,46.88125 25.9203125,46.7632813 C26.1398438,46.6992188 26.3265625,46.5460938 26.3796875,46.315625 C26.4429688,46.0101563 26.3242188,45.7390625 26.1390625,45.5023438 C25.8007813,45.0742188 25.2953125,44.79375 24.8109375,44.5617188 C23.9992188,44.159375 23.3023438,43.5585938 22.8734375,42.7515625 C22.5203125,42.1578125 22.5570313,41.3898438 22.9179688,40.8070313 C23.271875,40.2390625 23.8929688,39.8601563 24.5320313,39.6953125 C25.7617188,39.35625 27.1476563,39.7171875 28.0515625,40.6171875 Z" id="Shape" fill="#FFFFFE"></path>
                <path d="M33.496875,39.7179687 C34.1359375,39.8476562 34.85,40.159375 35.19375,40.7445312 C35.5375,41.2875 35.4945313,42.0671875 35.3296875,42.6625 C35.0117188,43.4054687 34.5335938,44.09375 33.9046875,44.6070312 C33.259375,45.134375 32.4789063,45.4007812 31.6585938,45.4960937 C31.6601563,45.8789062 31.65625,46.2578125 31.6257813,46.640625 C31.6132813,47.3445312 31.609375,48.0484375 31.596875,48.7523437 C31.621875,49.090625 31.3164063,49.4148437 31.003125,49.4945312 C30.5820313,49.58125 30.2171875,49.2875 30.0578125,48.91875 C30.028125,47.7148437 30.10625,46.4929687 30.0945313,45.2882812 C29.9695313,45.1796875 29.7960938,45.1351562 29.6796875,45.00625 C29.3570313,44.690625 29.3421875,44.1773437 29.5929688,43.8140625 C29.721875,43.6101562 29.9125,43.5023437 30.115625,43.3859375 C30.1328125,42.48125 30.153125,41.4867187 30.1992188,40.5851562 C30.475,40.2570312 30.9257813,40.0539062 31.3289063,39.93125 C32.0304688,39.74375 32.771875,39.6617187 33.496875,39.7179687 Z" id="Shape" fill="#FFFFFE"></path>
                <path d="M47.2789062,39.9078125 C47.546875,40.1296875 47.7648437,40.415625 47.9953125,40.675 C49.1085937,42.0796875 49.6304687,43.8484375 49.95625,45.5835938 C50.1335937,45.6398438 50.3,45.68125 50.4515625,45.7960938 C50.7710937,46.0390625 50.9203125,46.5195313 50.7078125,46.8796875 C50.6070312,47.065625 50.4421875,47.146875 50.2632812,47.2414063 C50.2710937,47.8757813 50.2890625,48.5101563 50.2984375,49.14375 C50.3148437,49.45 50.0382812,49.7476563 49.7648437,49.8492188 C49.3679687,49.99375 48.9,49.7515625 48.7398437,49.3742188 C48.6617187,48.7179688 48.6640625,48.0414063 48.5640625,47.3898438 C47.7914062,47.415625 47.0210937,47.4570313 46.2476562,47.4632813 C46.0539062,47.2257813 45.9320312,47.00625 45.859375,46.7046875 C45.7554687,47.4140625 45.628125,48.11875 45.5539062,48.8328125 C45.5109375,49.3476563 44.95,49.7296875 44.4601562,49.5234375 C44.1265625,49.3757813 43.978125,49.0226563 44.0179687,48.671875 C44.165625,46.2210938 44.6453125,43.7210938 45.584375,41.4453125 C45.7039062,41.1390625 45.865625,40.8765625 45.915625,40.5460938 C45.975,40.2085938 46.13125,39.88125 46.4617187,39.7375 C46.753125,39.6507813 47.0445312,39.7164063 47.2789062,39.9078125 Z" id="Shape" fill="#FFFFFE"></path>
                <path d="M41.8742188,39.9039062 C42.3710938,39.8 42.7976563,40.3125 42.7875,40.7804687 C42.8070313,41.203125 42.4960938,41.7046875 42.0328125,41.7007812 C41.046875,41.7984375 40.0695313,41.9476562 39.0976563,42.1421875 C39.1054688,42.7195312 39.0953125,43.2976562 39.1039063,43.875 C39.7,43.76875 40.2773438,43.6070312 40.8039063,43.3023437 C41.1328125,43.0890625 41.6171875,43.1320312 41.8757813,43.4375 C42.0203125,43.6445312 42.0742188,43.8921875 42.05625,44.1421875 C42.0382813,44.3460937 42.0296875,44.5351562 41.8640625,44.6789062 C41.128125,45.390625 40.0039063,45.5875 39.0304688,45.746875 C39.0320313,46.4164062 39.03125,47.0859375 39.03125,47.7554687 C39.3539063,47.7515625 39.6773438,47.7578125 40,47.7601562 C40.2171875,47.7710937 40.4335938,47.6609375 40.6296875,47.575 C40.9703125,47.41875 41.240625,47.215625 41.4773438,46.9234375 C41.80625,46.9195312 42.1828125,46.9273437 42.4320313,47.1742187 C42.665625,47.4015625 42.6625,47.8296875 42.5734375,48.1203125 C42.403125,48.5953125 41.9734375,48.9640625 41.5367188,49.19375 C40.7226563,49.6046875 39.8054688,49.721875 38.9046875,49.6101562 C38.4617188,49.540625 37.9148438,49.3828125 37.621875,49.0195312 C37.4546875,48.8335937 37.4898438,48.5914062 37.4882813,48.359375 C37.525,47.54375 37.5132813,46.7265625 37.5429688,45.9109375 C37.115625,45.7601562 36.8,45.3929687 36.8734375,44.9195312 C36.93125,44.5054687 37.21875,44.2601562 37.5609375,44.0625 C37.5632813,43.5609375 37.565625,43.0585937 37.559375,42.55625 C37.29375,42.4601562 37.0609375,42.3203125 36.9242188,42.0640625 C36.7789063,41.7859375 36.8101563,41.4554687 36.9757813,41.1945312 C37.1820313,40.8507812 37.5851563,40.65 37.96875,40.58125 C39.2703125,40.3554687 40.5734375,40.134375 41.8742188,39.9039062 Z" id="Shape" fill="#FFFFFE"></path>
                <path d="M53.6710938,40.20625 C54.0054688,40.2085938 54.25625,40.4023438 54.4921875,40.615625 C54.4898438,41.5070313 54.46875,42.3976563 54.4859375,43.2890625 C55.2882813,42.5125 56.065625,41.7078125 56.8632813,40.9257813 C56.975,40.7960938 57.1890625,40.8265625 57.3445313,40.8226563 C57.5546875,40.8203125 57.7585938,40.93125 57.8867188,41.0945313 C58.0359375,41.2929688 58.0289063,41.5820313 57.9890625,41.8148438 C57.9546875,42.021875 57.8148438,42.1445313 57.6875,42.2992188 C56.9992188,43.0875 56.28125,43.8835938 55.4757813,44.5539063 C56.4460938,45.4492188 57.453125,46.3078125 58.4367188,47.1890625 C58.56875,47.3117188 58.5445313,47.5703125 58.5507813,47.7359375 C58.5570313,48.0273438 58.4367188,48.3382813 58.1617188,48.4710938 C57.8984375,48.6101563 57.5953125,48.56875 57.3085938,48.559375 C56.3007813,47.5789063 55.2679688,46.6234375 54.2546875,45.6492188 C54,46.8359375 53.7921875,48.0359375 53.5429688,49.2242188 C53.478125,49.4523438 53.2632813,49.6710938 53.0351563,49.7390625 C52.7320313,49.85 52.3703125,49.70625 52.2171875,49.4226563 C52.0375,49.1585938 52.15625,48.8007813 52.1984375,48.509375 C52.340625,47.6203125 52.496875,46.7328125 52.6359375,45.84375 C52.4210938,45.8265625 52.2367188,45.8257813 52.0898438,45.6460938 C51.7953125,45.278125 51.909375,44.6609375 52.253125,44.3617188 C52.4210938,44.196875 52.6242188,44.1757813 52.840625,44.115625 C52.84375,43.1609375 52.8789063,42.2046875 52.9070313,41.25 C52.9210938,41.0367188 52.8695313,40.7617188 53.0117188,40.5875 C53.1695313,40.3703125 53.3914063,40.2046875 53.6710938,40.20625 Z" id="Shape" fill="#FFFFFE"></path>
                <path d="M33.5039063,41.3703125 C33.715625,41.415625 33.8765625,41.5726562 33.8671875,41.7984375 C33.8585938,42.1875 33.5820313,42.5804687 33.334375,42.8640625 C32.9109375,43.3539062 32.334375,43.6070312 31.7109375,43.7351562 C31.6710938,43.0070312 31.7289063,42.2882812 31.7398438,41.5625 C32.3046875,41.4585937 32.93125,41.2320312 33.5039063,41.3703125 Z" id="Shape" fill="#01589D"></path>
                <path d="M46.9492188,42.1460937 C47.6914062,43.1445312 48.0945313,44.4585938 48.3445312,45.6625 C47.7367187,45.6976562 47.13125,45.7414062 46.521875,45.7585938 C46.215625,45.7460937 46.0914062,46.0226563 45.9601562,46.2484375 C46.221875,44.86875 46.5515625,43.4929688 46.9492188,42.1460937 Z" id="Shape" fill="#01589D"></path>
            </g>
        </g>
    </g>
</svg>