<?xml version="1.0" encoding="UTF-8"?>
<svg width="263px" height="60px" viewBox="0 0 263 60" version="1.1" xmlns="http://www.w3.org/2000/svg" xmlns:xlink="http://www.w3.org/1999/xlink">
    <!-- Generator: Sketch 46.2 (44496) - http://www.bohemiancoding.com/sketch -->
    <title>Blue original</title>
    <desc>Created with Sketch.</desc>
    <defs>
        <rect id="path-1" x="0.961038961" y="13.2467532" width="222.077922" height="46.7532468" rx="6.23376623"></rect>
        <rect id="path-2" x="0" y="0" width="50.6493506" height="26.4935065" rx="6.23376623"></rect>
        <filter x="-10.9%" y="-13.2%" width="121.7%" height="141.5%" filterUnits="objectBoundingBox" id="filter-3">
            <feOffset dx="0" dy="2" in="SourceAlpha" result="shadowOffsetOuter1"></feOffset>
            <feGaussianBlur stdDeviation="1.5" in="shadowOffsetOuter1" result="shadowBlurOuter1"></feGaussianBlur>
            <feColorMatrix values="0 0 0 0 0   0 0 0 0 0   0 0 0 0 0  0 0 0 0.5 0" type="matrix" in="shadowBlurOuter1"></feColorMatrix>
        </filter>
    </defs>
    <g id="Page-1" stroke="none" stroke-width="1" fill="none" fill-rule="evenodd">
        <g id="easy-speak">
            <g id="Blue-original">
                <g id="Rectangle">
                    <use fill="#293352" fill-rule="evenodd" xlink:href="#path-1"></use>
                    <rect stroke="#293352" stroke-width="0.779220779" x="1.35064935" y="13.6363636" width="221.298701" height="45.974026" rx="6.23376623"></rect>
                </g>
                <path d="M34.011169,34.1974026 L34.011169,46.2597403 L39.6776625,46.2597403 L39.6776625,26.0342857 L33.7025976,26.0342857 L28.4007794,32.878961 L23.0709093,26.0342857 L17.0958443,26.0342857 L17.0958443,46.2597403 L22.7623378,46.2597403 L22.7623378,34.2535065 L27.8116885,40.3407792 L28.8215586,40.3407792 L34.011169,34.1974026 Z M53.756104,31.9812987 L58.7493508,31.9812987 L58.7493508,46.2597403 L53.8402599,46.2597403 L53.5877923,44.7168831 C52.3535066,46.1194805 50.5020781,46.5963636 48.903117,46.5963636 C44.8075326,46.5963636 42.3670131,43.2581818 42.3670131,39.1345455 C42.3670131,34.8987013 44.8075326,31.6446753 49.2958443,31.6446753 C51.3436365,31.6446753 52.718182,32.374026 53.4755846,33.5241558 L53.756104,31.9812987 Z M50.5020781,35.9646753 C48.903117,35.9646753 47.6407794,37.1428571 47.6407794,39.1345455 C47.6407794,41.1262338 48.903117,42.2483117 50.5020781,42.2483117 C52.2974027,42.2483117 53.4475326,40.8176623 53.4475326,39.1345455 C53.4475326,37.198961 52.3815586,35.9646753 50.5020781,35.9646753 Z M67.3296105,26.0062338 L62.0838962,26.0062338 L62.0838962,46.2597403 L67.3296105,46.2597403 L67.3296105,26.0062338 Z M77.2283118,27.9418182 L71.9545455,28.5309091 L71.9545455,32.0654545 L69.6823377,32.0654545 L69.6823377,36.161039 L71.9545455,36.161039 L71.9545455,40.8176623 C71.9545455,45.4462338 74.3670131,46.5963636 77.2283118,46.5963636 C78.715065,46.5963636 80.0896105,46.3438961 81.3519481,45.6425974 L80.1737663,41.7153247 C79.7529871,42.0519481 79.1638962,42.2202597 78.6309092,42.2202597 C77.8174027,42.2202597 77.2002598,41.7994805 77.2002598,40.8176623 L77.2002598,36.161039 L80.4542858,36.161039 L80.4542858,32.0654545 L77.2283118,32.0654545 L77.2283118,27.9418182 Z M94.8693507,31.9812987 L83.0314286,31.9812987 L83.0314286,36.2171429 L88.1368832,36.2171429 L82.4984416,44.6046753 L82.4984416,46.2597403 L95.234026,46.2597403 L95.234026,41.6872727 L89.5394806,41.6872727 L94.8693507,33.7766234 L94.8693507,31.9812987 Z M121.371169,46.2597403 L121.371169,41.4348052 L110.823636,41.4348052 L110.823636,38.3771429 L120.389351,38.3771429 L120.389351,33.7205195 L110.823636,33.7205195 L110.823636,30.8311688 L120.978442,30.8311688 L120.978442,26.0623377 L105.185195,26.0623377 L105.185195,46.2597403 L121.371169,46.2597403 Z M133.850649,46.2597403 L139.152468,46.2597403 L139.152468,38.2368831 C139.152468,33.1594805 136.59974,31.6446753 133.57013,31.6446753 C132.083377,31.6446753 130.316104,32.1215584 129.081818,33.5522078 L128.857403,31.9812987 L124.144675,31.9812987 L124.144675,46.2597403 L129.39039,46.2597403 L129.39039,38.7418182 C129.39039,36.8623377 130.568571,35.9927273 131.858961,35.9927273 C132.840779,35.9927273 133.850649,36.6098701 133.850649,38.3771429 L133.850649,46.2597403 Z M146.750909,47.2696104 C146.666753,49.4576623 148.041299,49.9345455 149.443896,49.9345455 C150.818442,49.9345455 152.080779,49.3174026 152.080779,47.9428571 C152.080779,46.9049351 151.435584,46.0353247 149.5,46.0353247 C144.703117,46.0353247 141.561299,43.2581818 141.561299,38.825974 C141.561299,34.4498701 145.067792,31.6446753 149.5,31.6446753 C150.453766,31.6446753 151.435584,31.812987 152.445455,32.1776623 L153.988312,30.214026 L157.831429,32.9631169 L155.98,35.1511688 C157.017922,36.3293506 157.354545,37.5636364 157.354545,38.8820779 C157.354545,40.7054545 156.372727,42.5568831 154.717662,43.6228571 C157.326493,45.1657143 157.522857,47.2696104 157.522857,48.0831169 C157.522857,52.5433766 153.791948,54.4509091 149.443896,54.4509091 C144.366493,54.4509091 141.449091,51.6737662 141.757662,47.2696104 L146.750909,47.2696104 Z M149.5,36.0207792 C147.901039,36.0207792 146.722857,37.227013 146.722857,38.825974 C146.722857,40.4249351 147.901039,41.6031169 149.5,41.6031169 C151.042857,41.6031169 152.192987,40.4249351 152.192987,38.825974 C152.192987,37.227013 151.042857,36.0207792 149.5,36.0207792 Z M165.57013,26.0062338 L160.324416,26.0062338 L160.324416,46.2597403 L165.57013,46.2597403 L165.57013,26.0062338 Z M168.596104,28.1101299 C168.596104,29.8493506 170.110909,30.7750649 171.597662,30.7750649 C173.084415,30.7750649 174.571169,29.8493506 174.571169,28.1101299 C174.571169,26.3709091 173.084415,25.4451948 171.597662,25.4451948 C170.110909,25.4451948 168.596104,26.3709091 168.596104,28.1101299 Z M168.932727,46.2597403 L174.262597,46.2597403 L174.262597,31.9812987 L168.932727,31.9812987 L168.932727,46.2597403 Z M178.326493,40.8737662 L176.615325,44.7168831 C178.242338,45.9231169 181.01948,46.5963636 183.516104,46.5963636 C186.966493,46.5963636 190.164415,45.334026 190.164415,41.7714286 C190.164415,38.0124675 186.573766,37.1709091 183.60026,37.0587013 C182.702597,37.0306494 182.534286,36.6379221 182.534286,36.3854545 C182.534286,35.9085714 183.011169,35.6841558 183.796623,35.6841558 C184.974805,35.6841558 186.657922,36.0488312 187.471428,36.5537662 L189.463117,33.1875325 C188.088571,32.1496104 186.096883,31.6446753 183.796623,31.6446753 C180.458441,31.6446753 177.204415,32.878961 177.204415,36.3293506 C177.204415,39.7797403 180.570649,40.9018182 183.347792,41.014026 C184.357662,41.0420779 184.834545,41.3506494 184.834545,41.7714286 C184.834545,42.2483117 184.357662,42.4727273 183.403896,42.4727273 C182.225714,42.4727273 180.542597,42.3044156 178.326493,40.8737662 Z M197.959221,26.0623377 L192.601299,26.0623377 L192.601299,46.2597403 L197.931169,46.2597403 L197.931169,38.7137662 C197.959221,37.0025974 199.109351,36.2732468 200.147273,36.2732468 C201.241299,36.2732468 202.082857,36.7501299 202.082857,38.3771429 L202.082857,46.2597403 L207.384675,46.2597403 L207.384675,38.0685714 C207.384675,33.0753247 204.691688,31.6727273 201.970649,31.6727273 C200.315584,31.6727273 198.969091,32.2618182 197.959221,33.5241558 L197.959221,26.0623377 Z" id="Maltz-English" fill="#FFFFFF"></path>
                <g id="invisible" transform="translate(209.012987, 0.000000)">
                    <g id="Rectangle">
                        <use fill="black" fill-opacity="1" filter="url(#filter-3)" xlink:href="#path-2"></use>
                        <use fill="#8D1829" fill-rule="evenodd" xlink:href="#path-2"></use>
                    </g>
                    <path d="M13.3058442,8.81818182 C14.9889611,8.81818182 16.3564936,9.48441558 16.3564936,11.0857143 C16.3564936,11.6935065 16.1811689,12.3480519 15.4331169,12.8038961 C16.2162338,13.2246753 16.6019481,13.9961039 16.6019481,14.7675325 C16.6019481,16.6493506 14.8837663,17.2337662 13.3409091,17.2337662 L8.99285719,17.2337662 L8.99285719,8.81818182 L13.3058442,8.81818182 Z M11.3422078,12.0207792 L13.2474026,12.0207792 C13.7383117,12.0207792 14.0071429,11.7636364 14.0071429,11.3896104 C14.0071429,10.9922078 13.7383117,10.7350649 13.2707793,10.7350649 L11.3422078,10.7350649 L11.3422078,12.0207792 Z M11.3422078,15.3753247 L13.3525975,15.3753247 C13.972078,15.3753247 14.2409091,15.0597403 14.2409091,14.5805195 C14.2409091,14.112987 13.937013,13.774026 13.3525975,13.774026 L11.3422078,13.774026 L11.3422078,15.3753247 Z M24.8525974,17.2337662 L24.8525974,15.2233766 L20.4577922,15.2233766 L20.4577922,13.9493506 L24.4435065,13.9493506 L24.4435065,12.0090909 L20.4577922,12.0090909 L20.4577922,10.8051948 L24.6889611,10.8051948 L24.6889611,8.81818182 L18.1084416,8.81818182 L18.1084416,17.2337662 L24.8525974,17.2337662 Z M28.2058442,10.7701299 L25.7396104,10.7701299 L25.7396104,8.80649351 L33.0448052,8.80649351 L33.0448052,10.7701299 L30.5668831,10.7701299 L30.5668831,17.2337662 L28.2058442,17.2337662 L28.2058442,10.7701299 Z M39.3668831,15.8545455 L35.5915584,15.8545455 L35.0422078,17.2337662 L32.5175324,17.2337662 L36.2928571,8.80649351 L38.7006493,8.80649351 L42.4642857,17.2337662 L39.9162337,17.2337662 L39.3668831,15.8545455 Z M37.4850649,11.1675325 L36.3980519,13.8558442 L38.5603896,13.8558442 L37.4850649,11.1675325 Z" id="BETA" fill="#FFFFFF"></path>
                </g>
            </g>
        </g>
    </g>
</svg>