<?xml version="1.0" encoding="UTF-8"?>
<svg width="60px" height="60px" viewBox="0 0 60 60" version="1.1" xmlns="http://www.w3.org/2000/svg" xmlns:xlink="http://www.w3.org/1999/xlink">
    <!-- Generator: Sketch 46.2 (44496) - http://www.bohemiancoding.com/sketch -->
    <title>lal60</title>
    <desc>Created with Sketch.</desc>
    <defs></defs>
    <g id="Page-1" stroke="none" stroke-width="1" fill="none" fill-rule="evenodd">
        <g id="lal60" fill-rule="nonzero">
            <path d="M0,0 L29.0956098,0 L29.0663415,0.0316097561 C28.524878,0.0175609756 27.9921951,0.0684878049 27.4536585,0.0831219512 C27.2721951,0.131121951 27.0585366,0.136390244 26.8682927,0.141658537 C26.6909268,0.186731707 26.4930732,0.199609756 26.3086829,0.202536585 C26.1687805,0.261073171 25.9908293,0.251707317 25.8403902,0.261073171 C25.7397073,0.316682927 25.601561,0.312585366 25.4891707,0.319609756 C25.3773659,0.365268293 25.2327805,0.371707317 25.1121951,0.375804878 C24.9213659,0.433756098 24.726439,0.461853659 24.5268293,0.492292683 C24.3553171,0.47004878 24.2686829,0.580097561 24.0842927,0.553756098 C23.9929756,0.626926829 23.8981463,0.602926829 23.7916098,0.612292683 C23.6997073,0.691902439 23.6078049,0.659707317 23.4989268,0.670829268 C23.4269268,0.737560976 23.3537561,0.723512195 23.2647805,0.729365854 C23.1927805,0.792585366 23.118439,0.783219512 23.0306341,0.787902439 C22.9580488,0.843512195 22.8819512,0.841170732 22.7959024,0.846439024 C22.7133659,0.923121951 22.6126829,0.876292683 22.5324878,0.923707317 C20.9959024,1.31356098 19.9317073,1.7075122 18.4390244,2.30341463 C18.3032195,2.38653659 18.0989268,2.41931707 17.9976585,2.54282927 C17.9918049,9.54497561 17.9970732,16.6360976 17.9953171,23.6487805 C17.9970732,28.0917073 17.9918049,32.5914146 17.9976585,37.0273171 C18.0731707,37.1637073 18.0146341,37.3387317 18.0995122,37.4634146 C18.1639024,37.8222439 18.4027317,38.1073171 18.6760976,38.3414634 C18.7990244,38.436878 19.0489756,38.52 19.1970732,38.5884878 C19.5588293,38.675122 19.7666341,38.6798049 20.1365854,38.6920976 C21.0538537,38.6926829 21.9705366,38.6920976 22.8878049,38.6920976 C22.9428293,38.6897561 22.9925854,38.6985366 23.0364878,38.7196098 C23.0599024,38.9350244 23.0874146,39.1533659 23.0903415,39.3699512 C23.1453659,39.4483902 23.1412683,39.5701463 23.148878,39.6626341 C23.195122,39.7358049 23.2021463,39.8370732 23.2050732,39.9219512 C23.315122,40.2152195 23.3268293,40.4499512 23.484878,40.7379512 C23.6973659,41.3479024 24.0620488,41.9402927 24.4794146,42.4343415 C24.6585366,42.6433171 24.8809756,42.8803902 25.1145366,43.0220488 C25.2386341,43.1490732 25.3890732,43.2766829 25.5541463,43.344 C25.6279024,43.4189268 25.740878,43.5043902 25.8462439,43.5196098 L25.8468293,43.5834146 C23.6956098,43.5986341 21.5285854,43.5857561 19.3756098,43.5898537 C18.9336585,43.5921951 18.4963902,43.5886829 18.0550244,43.5828293 C17.9461463,43.5073171 17.771122,43.5354146 17.6446829,43.5242927 C17.550439,43.4604878 17.4035122,43.4727805 17.2940488,43.4657561 C17.1681951,43.3674146 17.0376585,43.457561 16.9170732,43.356878 C16.7982439,43.3580488 16.7186341,43.2819512 16.5916098,43.2901463 C16.5073171,43.2040976 16.4212683,43.2790244 16.3639024,43.1683902 C16.1701463,43.1432195 15.924878,42.996878 15.7463415,42.9529756 C14.9994146,42.6076098 14.3180488,42.1059512 13.7742439,41.4842927 C13.6958049,41.3918049 13.5910244,41.2952195 13.553561,41.1781463 C13.4218537,41.1114146 13.4236098,40.961561 13.3147317,40.8913171 C13.0858537,40.6185366 12.977561,40.2614634 12.7879024,39.9547317 C12.7662439,39.864 12.7475122,39.7802927 12.6708293,39.72 C12.5877073,39.384 12.4126829,39.012878 12.3828293,38.6013659 C12.3084878,38.4620488 12.3026341,38.3180488 12.2827317,38.1658537 C12.2107317,37.8743415 12.2300488,37.5219512 12.1832195,37.2292683 C12.1826341,26.8489756 12.1832195,16.4680976 12.1826341,6.08780488 C12.1879024,6.02868293 12.180878,5.9742439 12.1627317,5.92507317 C12.0456585,5.91629268 11.9291707,6.08839024 11.8243902,6.1404878 C11.6177561,6.30439024 11.3947317,6.45482927 11.2120976,6.6462439 C11.1196098,6.67668293 11.052878,6.75980488 10.9715122,6.81541463 C10.889561,6.95297561 10.7560976,6.96878049 10.6507317,7.08 C10.2093659,7.46165854 9.8124878,7.80936585 9.38517073,8.21443902 C9.3324878,8.26770732 9.29502439,8.32156098 9.21717073,8.33912195 C8.96312195,8.59258537 8.70965854,8.84604878 8.45619512,9.10009756 C8.41639024,9.21482927 8.29229268,9.29326829 8.21385366,9.384 C7.96156098,9.66731707 7.6782439,9.95531707 7.44,10.2468293 C7.25209756,10.3873171 7.18653659,10.5863415 6.99219512,10.7385366 C6.89912195,10.8339512 6.82770732,11.0113171 6.70009756,11.0903415 C6.6035122,11.1763902 6.59707317,11.3075122 6.46595122,11.382439 C6.36292683,11.6037073 6.08897561,11.849561 5.96839024,12.0585366 C5.83785366,12.2200976 5.7342439,12.4068293 5.58790244,12.5531707 C5.53229268,12.7000976 5.4035122,12.755122 5.35902439,12.9108293 C5.31102439,13.0454634 5.208,13.0659512 5.18282927,13.2029268 C5.0622439,13.3012683 4.96565854,13.4710244 4.88487805,13.6062439 C4.78946341,13.6741463 4.8204878,13.7841951 4.70985366,13.8409756 C4.68292683,13.9644878 4.59043902,13.9797073 4.56234146,14.1043902 C4.49795122,14.1693659 4.51317073,14.2595122 4.41717073,14.3092683 C4.39141463,14.4684878 4.2444878,14.555122 4.21170732,14.6926829 C3.91960976,15.2013659 3.60409756,15.7123902 3.36819512,16.2468293 C3.27804878,16.2989268 3.28390244,16.3879024 3.25112195,16.4809756 C3.10478049,16.6981463 2.91570732,17.0452683 2.84136585,17.3016585 C2.73541463,17.4433171 2.736,17.6628293 2.60253659,17.7629268 C2.5697561,17.8958049 2.50360976,18.0585366 2.42692683,18.1726829 C2.40234146,18.3260488 2.29346341,18.4723902 2.24663415,18.6146341 C2.22029268,18.7691707 2.1155122,18.8663415 2.09619512,19.0243902 C1.91473171,19.3767805 1.81639024,19.8878049 1.60741463,20.2220488 C1.62731707,20.363122 1.54302439,20.4204878 1.536,20.5463415 C1.38731707,20.9139512 1.2497561,21.444878 1.13678049,21.8341463 C1.05073171,21.9365854 1.09053659,22.0039024 1.06653659,22.1268293 C0.988682927,22.2316098 1.04253659,22.3399024 0.963512195,22.4446829 C0.976390244,22.5752195 0.892682927,22.6507317 0.899121951,22.7707317 C0.792585366,22.8919024 0.890926829,23.022439 0.787902439,23.1477073 C0.783219512,23.2360976 0.793170732,23.3092683 0.729365854,23.3818537 C0.721170732,23.4872195 0.740487805,23.5832195 0.670829268,23.6745366 C0.663804878,23.7646829 0.683121951,23.8366829 0.612292683,23.9086829 C0.632780488,24.1258537 0.535609756,24.2563902 0.538536585,24.4682927 C0.444878049,24.6040976 0.533853659,24.7580488 0.436682927,24.9038049 C0.418536585,25.2585366 0.316682927,25.6805854 0.288585366,26.0487805 C0.227121951,26.2167805 0.275707317,26.4333659 0.202536585,26.6013659 C0.200195122,26.7998049 0.190829268,27.0298537 0.141658537,27.2195122 C0.144,27.492878 0.106536585,27.7650732 0.104195122,28.0390244 C0.0731707317,28.2819512 0.122341463,28.5049756 0.0567804878,28.7414634 C0.0597073171,29.9420488 0.0152195122,31.2643902 0.138731707,32.4292683 C0.127609756,32.7254634 0.214243902,32.9356098 0.200195122,33.2487805 C0.255219512,33.4360976 0.256390244,33.612878 0.261073171,33.8083902 C0.321365854,33.9155122 0.316097561,34.0653659 0.317268293,34.1853659 C0.403902439,34.4247805 0.41795122,34.7209756 0.436682927,34.979122 C0.53502439,35.124878 0.443707317,35.2788293 0.539121951,35.4146341 C0.558439024,35.5047805 0.546731707,35.5914146 0.553756098,35.6809756 C0.665560976,35.7992195 0.553756098,35.934439 0.663219512,36.0585366 C0.650341463,36.2294634 0.752780488,36.3201951 0.729365854,36.5010732 C0.795512195,36.5730732 0.782634146,36.6462439 0.787902439,36.7352195 C0.847609756,36.8072195 0.84,36.8827317 0.846439024,36.9693659 C0.900292683,37.0419512 0.899707317,37.1186341 0.90497561,37.2040976 C0.975804878,37.2842927 0.936,37.3902439 0.982243902,37.4675122 C1.07004878,37.8275122 1.21287805,38.3496585 1.33229268,38.6961951 C1.49092683,39.0491707 1.67531707,39.8423415 1.85560976,40.2146341 C1.89073171,40.3955122 1.99492683,40.5342439 2.01717073,40.715122 C2.08565854,40.8017561 2.11434146,40.9006829 2.1342439,41.0078049 C2.232,41.129561 2.22087805,41.2618537 2.29931707,41.3853659 C2.36195122,41.5463415 2.47434146,41.7102439 2.48546341,41.8858537 C2.6195122,41.964878 2.57736585,42.2013659 2.72429268,42.2903415 C2.74829268,42.4647805 2.8817561,42.6216585 2.93209756,42.7902439 C2.97541463,42.9875122 3.13404878,43.1578537 3.18790244,43.3492683 C3.27160976,43.3931707 3.25053659,43.4569756 3.30965854,43.518439 C3.33307317,43.6952195 3.41443902,43.7239024 3.48526829,43.8696585 C3.65970732,44.2565854 3.83356098,44.5404878 4.04019512,44.897561 C4.09931707,45.0280976 4.20995122,45.1416585 4.24156098,45.2809756 C4.42712195,45.443122 4.40429268,45.6778537 4.59746341,45.8019512 C4.73326829,46.086439 4.9217561,46.3317073 5.0897561,46.5980488 C5.20273171,46.7303415 5.27180488,46.9293659 5.41697561,47.0312195 C5.63004878,47.4152195 5.84956098,47.6089756 6.04390244,47.9414634 C6.3342439,48.2821463 6.59765854,48.6515122 6.89619512,49.0027317 C6.9582439,49.1642927 7.17190244,49.2573659 7.22692683,49.4364878 C7.48858537,49.6548293 7.68819512,49.9498537 7.93814634,50.1886829 C8.09678049,50.4070244 8.3484878,50.5896585 8.48546341,50.8120976 C8.70965854,51.036878 8.93385366,51.2610732 9.15863415,51.4852683 C9.288,51.5239024 9.36936585,51.6772683 9.47765854,51.7557073 C9.90673171,52.1479024 10.3276098,52.536 10.7771707,52.9053659 C10.902439,52.9416585 10.9358049,53.052878 11.0376585,53.1190244 C11.136,53.2718049 11.3080976,53.2922927 11.4122927,53.4462439 C11.6481951,53.5873171 11.8835122,53.7992195 12.1194146,53.9619512 C12.203122,54.0362927 12.3125854,54.0872195 12.3781463,54.1779512 C12.6286829,54.299122 12.8142439,54.516878 13.0858537,54.641561 C13.1929756,54.7978537 13.4212683,54.8610732 13.5482927,54.9974634 C13.6290732,55.0085854 13.6700488,55.0618537 13.7239024,55.1145366 C13.8614634,55.1291707 13.9410732,55.2556098 14.0803902,55.2854634 C14.2331707,55.4218537 14.441561,55.5067317 14.6019512,55.6413659 C14.700878,55.673561 14.784,55.7297561 14.8653659,55.793561 C15.528,56.1594146 16.0378537,56.4626341 16.7373659,56.7962927 C16.931122,56.9069268 17.105561,56.9162927 17.2682927,57.0573659 C17.4614634,57.1720976 17.6552195,57.2054634 17.8536585,57.3172683 C17.9689756,57.3822439 18.1598049,57.3980488 18.2312195,57.5145366 C18.5508293,57.5906341 18.9289756,57.7832195 19.2556098,57.9067317 C19.5687805,58.008 19.8093659,58.1133659 20.1114146,58.2122927 C20.2764878,58.2936585 20.4813659,58.2977561 20.6259512,58.3931707 C21.0679024,58.4757073 21.2680976,58.6682927 21.6907317,58.6805854 C21.761561,58.7625366 21.8318049,58.728 21.9242927,58.739122 C21.9640976,58.7853659 22.0226341,58.8046829 22.1004878,58.7976585 C22.2011707,58.9036098 22.308878,58.8052683 22.4195122,58.9106341 C22.5465366,58.9018537 22.5980488,58.9978537 22.7449756,58.9732683 C22.8491707,59.064 22.955122,58.9931707 23.0634146,59.0762927 C23.2308293,59.0757073 23.3309268,59.1670244 23.5053659,59.148878 C23.5773659,59.2115122 23.652878,59.2003902 23.7400976,59.2074146 C23.8232195,59.2630244 23.9373659,59.2612683 24.0327805,59.2659512 C24.0872195,59.3836098 24.2353171,59.3063415 24.3512195,59.3525854 C24.4483902,59.4081951 24.539122,59.3806829 24.6439024,59.406439 C24.7884878,59.4883902 24.9810732,59.4251707 25.1373659,59.5047805 C25.3703415,59.5147317 25.5717073,59.5849756 25.8146341,59.5931707 C25.9609756,59.6546341 26.1570732,59.6025366 26.3086829,59.6803902 C26.4883902,59.6839024 26.6973659,59.6938537 26.8682927,59.7412683 C27.0579512,59.7436098 27.2733659,59.7500488 27.4536585,59.7998049 C28.0314146,59.8120976 28.6027317,59.8653659 29.1828293,59.8513171 L29.1828293,59.8829268 L0,59.8829268 L0,0 Z" id="Shape" fill="#FFFFFF"></path>
            <path d="M29.0956098,0 L30.9342439,0 L30.9342439,0.0316097561 C31.2936585,0.0403902439 31.7233171,0.0175609756 32.0757073,0.0714146341 C32.1342439,0.114731707 32.2413659,0.0819512195 32.3121951,0.0924878049 C32.982439,0.121170732 33.3576585,0.165658537 34.0097561,0.255804878 C34.1947317,0.24702439 34.3410732,0.337170732 34.5365854,0.317268293 C34.6641951,0.355317073 34.7847805,0.378146341 34.9211707,0.378146341 C35.0265366,0.426731707 35.1570732,0.432 35.2718049,0.436682927 C35.4029268,0.506926829 35.5955122,0.488195122 35.7395122,0.495219512 C35.8115122,0.58595122 35.9309268,0.538536585 36.0321951,0.553756098 C36.102439,0.636292683 36.1738537,0.601170732 36.2663415,0.612292683 C36.348878,0.698926829 36.4524878,0.656780488 36.5590244,0.670829268 C36.630439,0.750439024 36.7012683,0.719414634 36.7931707,0.729365854 C36.8786341,0.814829268 36.9781463,0.77502439 37.0858537,0.787902439 C37.152,0.879219512 37.2298537,0.811902439 37.2913171,0.869853659 C37.3726829,0.941853659 37.5213659,0.859317073 37.5828293,0.934243902 C38.9367805,1.31121951 40.2269268,1.73209756 41.556878,2.29931707 C41.6300488,2.34263415 41.777561,2.35082927 41.7869268,2.45853659 C41.7898537,13.9118049 41.7880976,25.3662439 41.7880976,36.8195122 C41.7758049,37.2561951 41.8530732,37.7367805 41.915122,38.1658537 C42.0403902,38.6669268 42.1510244,39.1890732 42.348878,39.6614634 C42.5250732,39.9804878 42.6602927,40.3322927 42.8675122,40.6243902 C42.8897561,40.7034146 42.9851707,40.7315122 42.9927805,40.8316098 C43.0677073,40.9147317 43.1537561,40.9820488 43.2316098,41.0610732 C43.3129756,41.3010732 43.6290732,41.4673171 43.7789268,41.6780488 C43.865561,41.8044878 44.0265366,41.8718049 44.1049756,42.0023415 C44.2202927,42.0380488 44.286439,42.137561 44.4023415,42.1732683 C44.4491707,42.2452683 44.4977561,42.2645854 44.5779512,42.2903415 C44.6113171,42.342439 44.6593171,42.377561 44.7219512,42.395122 C44.9912195,42.582439 45.2961951,42.7205854 45.6,42.8481951 C45.7410732,42.9020488 45.8915122,42.977561 46.0425366,42.9927805 C46.1560976,43.0770732 46.3159024,43.0922927 46.4522927,43.1098537 C46.5681951,43.193561 46.6852683,43.1291707 46.7964878,43.2316098 C46.8948293,43.2374634 47.0042927,43.2286829 47.0885854,43.2901463 C47.3397073,43.2755122 47.5299512,43.3662439 47.7658537,43.3510244 C47.8665366,43.374439 48.0070244,43.3358049 48.0842927,43.4072195 C50.9268293,43.4130732 53.8161951,43.4072195 56.6634146,43.4101463 C56.801561,43.428878 56.712,43.6548293 56.6318049,43.6940488 C56.3490732,44.3461463 55.788878,45.1814634 55.4657561,45.8078049 C55.3925854,45.852878 55.3720976,45.9014634 55.3486829,45.9834146 C55.1818537,46.1783415 55.0577561,46.4388293 54.8757073,46.6220488 C54.864,46.7028293 54.8119024,46.7432195 54.7586341,46.7976585 C54.7445854,46.883122 54.7147317,46.9287805 54.641561,46.9732683 C54.5941463,47.129561 54.4612683,47.2677073 54.348878,47.3830244 C54.329561,47.5164878 54.2312195,47.5235122 54.1902439,47.6394146 C53.9789268,47.9402927 53.7365854,48.2370732 53.5123902,48.5297561 C53.4643902,48.6965854 53.2840976,48.7252683 53.2413659,48.9096585 C53.1395122,49.0056585 52.9955122,49.1262439 52.9486829,49.260878 C52.8234146,49.3838049 52.6478049,49.547122 52.5512195,49.697561 C52.512,49.7929756 52.3843902,49.8380488 52.3293659,49.9317073 C51.4138537,50.9537561 50.4374634,51.8985366 49.392,52.7859512 C49.2386341,52.8503415 49.1982439,53.0130732 49.0220488,53.0610732 C48.9225366,53.1705366 48.8318049,53.2636098 48.702439,53.3397073 C48.5964878,53.3877073 48.5361951,53.5363902 48.420878,53.574439 C48.0749268,53.8372683 47.7389268,54.0995122 47.3800976,54.347122 C47.2366829,54.4091707 47.0774634,54.6181463 46.9147317,54.641561 C46.8520976,54.6971707 46.806439,54.7662439 46.7438049,54.8218537 C46.6641951,54.8347317 46.6220488,54.8856585 46.5681951,54.9389268 C46.3908293,54.9793171 46.3258537,55.1016585 46.1596098,55.1736585 C46.0922927,55.2679024 45.9828293,55.2403902 45.924878,55.3486829 C45.8470244,55.3633171 45.8007805,55.4119024 45.7486829,55.4657561 C45.5057561,55.5553171 45.3125854,55.7057561 45.0995122,55.8122927 C45.0515122,55.896 44.993561,55.8819512 44.9180488,55.9252683 C44.4954146,56.1851707 44.1816585,56.3250732 43.7882927,56.5545366 C43.5863415,56.6774634 43.4347317,56.7160976 43.2263415,56.8074146 C43.08,56.9806829 42.737561,56.9730732 42.5882927,57.1633171 C42.4548293,57.1633171 42.3377561,57.2850732 42.204878,57.3032195 C42.0345366,57.3500488 41.9110244,57.4677073 41.7365854,57.4999024 C41.2466341,57.7399024 40.7654634,57.8961951 40.2766829,58.0846829 C40.1186341,58.1566829 39.924878,58.1777561 39.779122,58.2755122 C39.4056585,58.3627317 39.1990244,58.4686829 38.8682927,58.5705366 C38.6675122,58.5927805 38.5299512,58.6694634 38.3449756,58.7244878 C38.0862439,58.8169756 37.7941463,58.8667317 37.524878,58.9533659 C37.4546341,59.016 37.3428293,58.9451707 37.2614634,59.0364878 C37.086439,59.0200976 36.9869268,59.1079024 36.8195122,59.1125854 C36.7077073,59.1921951 36.6040976,59.118439 36.5010732,59.2120976 C36.396878,59.2197073 36.2985366,59.2027317 36.2083902,59.2706341 C36.1188293,59.2776585 36.0462439,59.2600976 35.9742439,59.3291707 C35.7576585,59.3080976 35.6265366,59.4087805 35.4146341,59.4 C35.2729756,59.4983415 35.0792195,59.411122 34.9205854,59.5047805 C34.8076098,59.5118049 34.6712195,59.508878 34.5693659,59.5633171 C34.2883902,59.5627317 34.0647805,59.6364878 33.7756098,59.6517073 C33.5882927,59.7172683 33.3541463,59.6675122 33.1644878,59.7389268 C32.9642927,59.7447805 32.7383415,59.7518049 32.5463415,59.7998049 C31.9879024,59.814439 31.4359024,59.8636098 30.875122,59.8513171 L30.8458537,59.8829268 L29.1828293,59.8829268 L29.1828293,59.8513171 C28.6027317,59.8653659 28.0314146,59.8120976 27.4536585,59.7998049 C27.2733659,59.7500488 27.0579512,59.7436098 26.8682927,59.7412683 C26.6973659,59.6938537 26.4883902,59.6839024 26.3086829,59.6803902 C26.1570732,59.6025366 25.9609756,59.6546341 25.8146341,59.5931707 C25.5717073,59.5849756 25.3703415,59.5147317 25.1373659,59.5047805 C24.9810732,59.4251707 24.7884878,59.4883902 24.6439024,59.406439 C24.539122,59.3806829 24.4483902,59.4081951 24.3512195,59.3525854 C24.2353171,59.3063415 24.0872195,59.3836098 24.0327805,59.2659512 C23.9373659,59.2612683 23.8232195,59.2630244 23.7400976,59.2074146 C23.652878,59.2003902 23.5773659,59.2115122 23.5053659,59.148878 C23.3309268,59.1670244 23.2308293,59.0757073 23.0634146,59.0762927 C22.955122,58.9931707 22.8491707,59.064 22.7449756,58.9732683 C22.5980488,58.9978537 22.5465366,58.9018537 22.4195122,58.9106341 C22.308878,58.8052683 22.2011707,58.9036098 22.1004878,58.7976585 C22.0226341,58.8046829 21.9640976,58.7853659 21.9242927,58.739122 C21.8318049,58.728 21.761561,58.7625366 21.6907317,58.6805854 C21.2680976,58.6682927 21.0679024,58.4757073 20.6259512,58.3931707 C20.4813659,58.2977561 20.2764878,58.2936585 20.1114146,58.2122927 C19.8093659,58.1133659 19.5687805,58.008 19.2556098,57.9067317 C18.9289756,57.7832195 18.5508293,57.5906341 18.2312195,57.5145366 C18.1598049,57.3980488 17.9689756,57.3822439 17.8536585,57.3172683 C17.6552195,57.2054634 17.4614634,57.1720976 17.2682927,57.0573659 C17.105561,56.9162927 16.931122,56.9069268 16.7373659,56.7962927 C16.0378537,56.4626341 15.528,56.1594146 14.8653659,55.793561 C14.784,55.7297561 14.700878,55.673561 14.6019512,55.6413659 C14.441561,55.5067317 14.2331707,55.4218537 14.0803902,55.2854634 C13.9410732,55.2556098 13.8614634,55.1291707 13.7239024,55.1145366 C13.6700488,55.0618537 13.6290732,55.0085854 13.5482927,54.9974634 C13.4212683,54.8610732 13.1929756,54.7978537 13.0858537,54.641561 C12.8142439,54.516878 12.6286829,54.299122 12.3781463,54.1779512 C12.3125854,54.0872195 12.203122,54.0362927 12.1194146,53.9619512 C11.8835122,53.7992195 11.6481951,53.5873171 11.4122927,53.4462439 C11.3080976,53.2922927 11.136,53.2718049 11.0376585,53.1190244 C10.9358049,53.052878 10.902439,52.9416585 10.7771707,52.9053659 C10.3276098,52.536 9.90673171,52.1479024 9.47765854,51.7557073 C9.36936585,51.6772683 9.288,51.5239024 9.15863415,51.4852683 C8.93385366,51.2610732 8.70965854,51.036878 8.48546341,50.8120976 C8.3484878,50.5896585 8.09678049,50.4070244 7.93814634,50.1886829 C7.68819512,49.9498537 7.48858537,49.6548293 7.22692683,49.4364878 C7.17190244,49.2573659 6.9582439,49.1642927 6.89619512,49.0027317 C6.59765854,48.6515122 6.3342439,48.2821463 6.04390244,47.9414634 C5.84956098,47.6089756 5.63004878,47.4152195 5.41697561,47.0312195 C5.27180488,46.9293659 5.20273171,46.7303415 5.0897561,46.5980488 C4.9217561,46.3317073 4.73326829,46.086439 4.59746341,45.8019512 C4.40429268,45.6778537 4.42712195,45.443122 4.24156098,45.2809756 C4.20995122,45.1416585 4.09931707,45.0280976 4.04019512,44.897561 C3.83356098,44.5404878 3.65970732,44.2565854 3.48526829,43.8696585 C3.41443902,43.7239024 3.33307317,43.6952195 3.30965854,43.518439 C3.25053659,43.4569756 3.27160976,43.3931707 3.18790244,43.3492683 C3.13404878,43.1578537 2.97541463,42.9875122 2.93209756,42.7902439 C2.8817561,42.6216585 2.74829268,42.4647805 2.72429268,42.2903415 C2.57736585,42.2013659 2.6195122,41.964878 2.48546341,41.8858537 C2.47434146,41.7102439 2.36195122,41.5463415 2.29931707,41.3853659 C2.22087805,41.2618537 2.232,41.129561 2.1342439,41.0078049 C2.11434146,40.9006829 2.08565854,40.8017561 2.01717073,40.715122 C1.99492683,40.5342439 1.89073171,40.3955122 1.85560976,40.2146341 C1.67531707,39.8423415 1.49092683,39.0491707 1.33229268,38.6961951 C1.21287805,38.3496585 1.07004878,37.8275122 0.982243902,37.4675122 C0.936,37.3902439 0.975804878,37.2842927 0.90497561,37.2040976 C0.899707317,37.1186341 0.900292683,37.0419512 0.846439024,36.9693659 C0.84,36.8827317 0.847609756,36.8072195 0.787902439,36.7352195 C0.782634146,36.6462439 0.795512195,36.5730732 0.729365854,36.5010732 C0.752780488,36.3201951 0.650341463,36.2294634 0.663219512,36.0585366 C0.553756098,35.934439 0.665560976,35.7992195 0.553756098,35.6809756 C0.546731707,35.5914146 0.558439024,35.5047805 0.539121951,35.4146341 C0.443707317,35.2788293 0.53502439,35.124878 0.436682927,34.979122 C0.41795122,34.7209756 0.403902439,34.4247805 0.317268293,34.1853659 C0.316097561,34.0653659 0.321365854,33.9155122 0.261073171,33.8083902 C0.256390244,33.612878 0.255219512,33.4360976 0.200195122,33.2487805 C0.214243902,32.9356098 0.127609756,32.7254634 0.138731707,32.4292683 C0.0152195122,31.2643902 0.0597073171,29.9420488 0.0567804878,28.7414634 C0.122341463,28.5049756 0.0731707317,28.2819512 0.104195122,28.0390244 C0.106536585,27.7650732 0.144,27.492878 0.141658537,27.2195122 C0.190829268,27.0298537 0.200195122,26.7998049 0.202536585,26.6013659 C0.275707317,26.4333659 0.227121951,26.2167805 0.288585366,26.0487805 C0.316682927,25.6805854 0.418536585,25.2585366 0.436682927,24.9038049 C0.533853659,24.7580488 0.444878049,24.6040976 0.538536585,24.4682927 C0.535609756,24.2563902 0.632780488,24.1258537 0.612292683,23.9086829 C0.683121951,23.8366829 0.663804878,23.7646829 0.670829268,23.6745366 C0.740487805,23.5832195 0.721170732,23.4872195 0.729365854,23.3818537 C0.793170732,23.3092683 0.783219512,23.2360976 0.787902439,23.1477073 C0.890926829,23.022439 0.792585366,22.8919024 0.899121951,22.7707317 C0.892682927,22.6507317 0.976390244,22.5752195 0.963512195,22.4446829 C1.04253659,22.3399024 0.988682927,22.2316098 1.06653659,22.1268293 C1.09053659,22.0039024 1.05073171,21.9365854 1.13678049,21.8341463 C1.2497561,21.444878 1.38731707,20.9139512 1.536,20.5463415 C1.54302439,20.4204878 1.62731707,20.363122 1.60741463,20.2220488 C1.81639024,19.8878049 1.91473171,19.3767805 2.09619512,19.0243902 C2.1155122,18.8663415 2.22029268,18.7691707 2.24663415,18.6146341 C2.29346341,18.4723902 2.40234146,18.3260488 2.42692683,18.1726829 C2.50360976,18.0585366 2.5697561,17.8958049 2.60253659,17.7629268 C2.736,17.6628293 2.73541463,17.4433171 2.84136585,17.3016585 C2.91570732,17.0452683 3.10478049,16.6981463 3.25112195,16.4809756 C3.28390244,16.3879024 3.27804878,16.2989268 3.36819512,16.2468293 C3.60409756,15.7123902 3.91960976,15.2013659 4.21170732,14.6926829 C4.2444878,14.555122 4.39141463,14.4684878 4.41717073,14.3092683 C4.51317073,14.2595122 4.49795122,14.1693659 4.56234146,14.1043902 C4.59043902,13.9797073 4.68292683,13.9644878 4.70985366,13.8409756 C4.8204878,13.7841951 4.78946341,13.6741463 4.88487805,13.6062439 C4.96565854,13.4710244 5.0622439,13.3012683 5.18282927,13.2029268 C5.208,13.0659512 5.31102439,13.0454634 5.35902439,12.9108293 C5.4035122,12.755122 5.53229268,12.7000976 5.58790244,12.5531707 C5.7342439,12.4068293 5.83785366,12.2200976 5.96839024,12.0585366 C6.08897561,11.849561 6.36292683,11.6037073 6.46595122,11.382439 C6.59707317,11.3075122 6.6035122,11.1763902 6.70009756,11.0903415 C6.82770732,11.0113171 6.89912195,10.8339512 6.99219512,10.7385366 C7.18653659,10.5863415 7.25209756,10.3873171 7.44,10.2468293 C7.6782439,9.95531707 7.96156098,9.66731707 8.21385366,9.384 C8.29229268,9.29326829 8.41639024,9.21482927 8.45619512,9.10009756 C8.70965854,8.84604878 8.96312195,8.59258537 9.21717073,8.33912195 C9.29502439,8.32156098 9.3324878,8.26770732 9.38517073,8.21443902 C9.8124878,7.80936585 10.2093659,7.46165854 10.6507317,7.08 C10.7560976,6.96878049 10.889561,6.95297561 10.9715122,6.81541463 C11.052878,6.75980488 11.1196098,6.67668293 11.2120976,6.6462439 C11.3947317,6.45482927 11.6177561,6.30439024 11.8243902,6.1404878 C11.9291707,6.08839024 12.0456585,5.91629268 12.1627317,5.92507317 C12.180878,5.9742439 12.1879024,6.02868293 12.1826341,6.08780488 C12.1832195,16.4680976 12.1826341,26.8489756 12.1832195,37.2292683 C12.2300488,37.5219512 12.2107317,37.8743415 12.2827317,38.1658537 C12.3026341,38.3180488 12.3084878,38.4620488 12.3828293,38.6013659 C12.4126829,39.012878 12.5877073,39.384 12.6708293,39.72 C12.7475122,39.7802927 12.7662439,39.864 12.7879024,39.9547317 C12.977561,40.2614634 13.0858537,40.6185366 13.3147317,40.8913171 C13.4236098,40.961561 13.4218537,41.1114146 13.553561,41.1781463 C13.5910244,41.2952195 13.6958049,41.3918049 13.7742439,41.4842927 C14.3180488,42.1059512 14.9994146,42.6076098 15.7463415,42.9529756 C15.924878,42.996878 16.1701463,43.1432195 16.3639024,43.1683902 C16.4212683,43.2790244 16.5073171,43.2040976 16.5916098,43.2901463 C16.7186341,43.2819512 16.7982439,43.3580488 16.9170732,43.356878 C17.0376585,43.457561 17.1681951,43.3674146 17.2940488,43.4657561 C17.4035122,43.4727805 17.550439,43.4604878 17.6446829,43.5242927 C17.771122,43.5354146 17.9461463,43.5073171 18.0550244,43.5828293 C18.4963902,43.5886829 18.9336585,43.5921951 19.3756098,43.5898537 C21.5285854,43.5857561 23.6956098,43.5986341 25.8468293,43.5834146 L25.8462439,43.5196098 C25.740878,43.5043902 25.6279024,43.4189268 25.5541463,43.344 C25.3890732,43.2766829 25.2386341,43.1490732 25.1145366,43.0220488 C24.8809756,42.8803902 24.6585366,42.6433171 24.4794146,42.4343415 C24.0620488,41.9402927 23.6973659,41.3479024 23.484878,40.7379512 C23.3268293,40.4499512 23.315122,40.2152195 23.2050732,39.9219512 C23.2021463,39.8370732 23.195122,39.7358049 23.148878,39.6626341 C23.1412683,39.5701463 23.1453659,39.4483902 23.0903415,39.3699512 C23.0874146,39.1533659 23.0599024,38.9350244 23.0364878,38.7196098 C22.9925854,38.6985366 22.9428293,38.6897561 22.8878049,38.6920976 C21.9705366,38.6920976 21.0538537,38.6926829 20.1365854,38.6920976 C19.7666341,38.6798049 19.5588293,38.675122 19.1970732,38.5884878 C19.0489756,38.52 18.7990244,38.436878 18.6760976,38.3414634 C18.4027317,38.1073171 18.1639024,37.8222439 18.0995122,37.4634146 C18.0146341,37.3387317 18.0731707,37.1637073 17.9976585,37.0273171 C17.9918049,32.5914146 17.9970732,28.0917073 17.9953171,23.6487805 C17.9970732,16.6360976 17.9918049,9.54497561 17.9976585,2.54282927 C18.0989268,2.41931707 18.3032195,2.38653659 18.4390244,2.30341463 C19.9317073,1.7075122 20.9959024,1.31356098 22.5324878,0.923707317 C22.6126829,0.876292683 22.7133659,0.923121951 22.7959024,0.846439024 C22.8819512,0.841170732 22.9580488,0.843512195 23.0306341,0.787902439 C23.118439,0.783219512 23.1927805,0.792585366 23.2647805,0.729365854 C23.3537561,0.723512195 23.4269268,0.737560976 23.4989268,0.670829268 C23.6078049,0.659707317 23.6997073,0.691902439 23.7916098,0.612292683 C23.8981463,0.602926829 23.9929756,0.626926829 24.0842927,0.553756098 C24.2686829,0.580097561 24.3553171,0.47004878 24.5268293,0.492292683 C24.726439,0.461853659 24.9213659,0.433756098 25.1121951,0.375804878 C25.2327805,0.371707317 25.3773659,0.365268293 25.4891707,0.319609756 C25.601561,0.312585366 25.7397073,0.316682927 25.8403902,0.261073171 C25.9908293,0.251707317 26.1687805,0.261073171 26.3086829,0.202536585 C26.4930732,0.199609756 26.6909268,0.186731707 26.8682927,0.141658537 C27.0585366,0.136390244 27.2721951,0.131121951 27.4536585,0.0831219512 C27.9921951,0.0684878049 28.524878,0.0175609756 29.0663415,0.0316097561 L29.0956098,0 Z" id="Shape" fill="#3D3D55"></path>
            <path d="M30.9342439,0 L60,0 L60,29.1026341 L59.9683902,29.0727805 C59.9601951,28.56 59.9274146,28.0483902 59.9145366,27.5379512 C59.8360976,27.3137561 59.8963902,27.0333659 59.8279024,26.8097561 C59.7980488,26.4163902 59.7377561,26.0294634 59.6868293,25.6390244 C59.688,25.4429268 59.6013659,25.2878049 59.6218537,25.0794146 C59.5586341,24.9851707 59.5709268,24.8376585 59.5633171,24.7281951 C59.4790244,24.6292683 59.5352195,24.5022439 59.4883902,24.4062439 C59.3929756,24.2926829 59.4749268,24.155122 59.3830244,24.0327805 C59.376,23.9397073 59.3795122,23.8185366 59.3244878,23.7400976 C59.3180488,23.6522927 59.328,23.5773659 59.2659512,23.5053659 C59.2600976,23.4070244 59.2682927,23.297561 59.2074146,23.2132683 C59.2027317,23.1266341 59.2074146,23.051122 59.148878,22.979122 C59.1441951,22.8907317 59.153561,22.8169756 59.0903415,22.7443902 C59.0850732,22.656 59.0973659,22.5828293 59.0318049,22.5108293 C59.0318049,22.3644878 58.9586341,22.1976585 58.9123902,22.0682927 C58.9194146,22.0103415 58.9006829,21.9623415 58.8561951,21.9242927 C58.8456585,21.8318049 58.8801951,21.7609756 58.7976585,21.6907317 C58.8046829,21.612878 58.7853659,21.5537561 58.739122,21.5145366 C58.7683902,21.3523902 58.6682927,21.3219512 58.6782439,21.1902439 C58.5845854,21.0714146 58.6302439,20.9315122 58.5722927,20.7804878 C58.4388293,20.3882927 58.3627317,20.1213659 58.1994146,19.7268293 C58.1502439,19.5160976 58.0261463,19.3281951 57.9828293,19.1098537 C57.929561,19.019122 57.8874146,18.9196098 57.8657561,18.8165854 C57.7674146,18.689561 57.7779512,18.5420488 57.6854634,18.4138537 C57.6017561,18.1129756 57.4003902,17.8548293 57.3389268,17.5287805 C57.2218537,17.3461463 57.0930732,17.1746341 57.0462439,16.9434146 C56.9180488,16.8614634 56.9537561,16.6267317 56.8074146,16.5400976 C56.7693659,16.4470244 56.784,16.3586341 56.6903415,16.3053659 C56.664,16.1057561 56.532878,16.0571707 56.4790244,15.8634146 C56.3069268,15.5338537 56.0435122,15.0702439 55.8509268,14.7512195 C55.806439,14.6130732 55.6764878,14.5258537 55.6413659,14.3678049 C55.5646829,14.2917073 55.4874146,14.1822439 55.4657561,14.075122 C55.4113171,14.0435122 55.3761951,13.9960976 55.3603902,13.9317073 C55.1964878,13.7051707 55.008,13.4083902 54.8558049,13.1672195 C54.8189268,13.0296585 54.6878049,12.9869268 54.6462439,12.8458537 C54.5069268,12.7422439 54.486439,12.6076098 54.348878,12.4999024 C54.3254634,12.3722927 54.2282927,12.3201951 54.1779512,12.2019512 C54.0245854,12.0433171 53.910439,11.8472195 53.7635122,11.6803902 C53.6599024,11.5170732 53.5065366,11.3783415 53.4169756,11.2068293 C53.2653659,11.1125854 53.273561,10.9480976 53.1155122,10.865561 C52.0478049,9.56780488 50.8583415,8.35902439 49.5804878,7.25795122 C49.4973659,7.20058537 49.451122,7.11746341 49.3779512,7.05131707 C49.2444878,7.01209756 49.1596098,6.85931707 49.0220488,6.82185366 C48.9201951,6.72643902 48.8294634,6.62517073 48.7346341,6.5244878 C48.6597073,6.5022439 48.5771707,6.43902439 48.5262439,6.3804878 C48.2792195,6.20546341 48.0362927,6.01053659 47.7869268,5.83082927 C47.7365854,5.79804878 47.6774634,5.72136585 47.6113171,5.75239024 C47.5884878,5.84078049 47.5996098,5.93853659 47.5978537,6.02926829 C47.5996098,16.2339512 47.5972683,26.4392195 47.5990244,36.6439024 C47.6446829,37.0513171 47.7125854,37.476878 47.9555122,37.8146341 C48.0286829,37.9317073 48.1662439,38.033561 48.2610732,38.1389268 C48.4630244,38.195122 48.6509268,38.3900488 48.8780488,38.3900488 C49.2204878,38.435122 49.3609756,38.4731707 49.697561,38.4755122 C52.6636098,38.4755122 55.6290732,38.4760976 58.595122,38.4755122 C58.6952195,38.4819512 58.793561,38.4526829 58.8046829,38.3414634 C58.8046829,38.2881951 58.8234146,38.2407805 58.860878,38.1980488 C58.8649756,38.1137561 58.8684878,38.0364878 58.9194146,37.9644878 C58.9164878,37.8913171 58.9363902,37.8327805 58.9779512,37.7882927 C58.9838049,37.7010732 58.974439,37.6267317 59.0364878,37.5547317 C59.0411707,37.4675122 59.0341463,37.3925854 59.0950244,37.3205854 C59.0997073,37.2339512 59.0938537,37.158439 59.153561,37.086439 C59.1436098,36.9201951 59.2220488,36.8054634 59.2349268,36.6439024 C59.3022439,36.5326829 59.2437073,36.4290732 59.3291707,36.3254634 C59.3397073,36.0520976 59.411122,35.790439 59.4573659,35.5276098 C59.5574634,35.412878 59.4626341,35.2776585 59.5633171,35.1547317 C59.568,35.0247805 59.5644878,34.8649756 59.6218537,34.7449756 C59.6277073,34.6331707 59.6247805,34.4938537 59.6803902,34.3937561 C59.6803902,34.1209756 59.7441951,33.9336585 59.7617561,33.6585366 C59.8296585,33.4039024 59.7886829,33.1662439 59.8583415,32.897561 C59.8483902,32.5867317 59.9326829,32.3596098 59.916878,32.0780488 C59.9496585,31.6565854 59.9543415,31.230439 59.9678049,30.8083902 L60,30.8089756 L60,59.8829268 L30.8458537,59.8829268 L30.875122,59.8513171 C31.4359024,59.8636098 31.9879024,59.814439 32.5463415,59.7998049 C32.7383415,59.7518049 32.9642927,59.7447805 33.1644878,59.7389268 C33.3541463,59.6675122 33.5882927,59.7172683 33.7756098,59.6517073 C34.0647805,59.6364878 34.2883902,59.5627317 34.5693659,59.5633171 C34.6712195,59.508878 34.8076098,59.5118049 34.9205854,59.5047805 C35.0792195,59.411122 35.2729756,59.4983415 35.4146341,59.4 C35.6265366,59.4087805 35.7576585,59.3080976 35.9742439,59.3291707 C36.0462439,59.2600976 36.1188293,59.2776585 36.2083902,59.2706341 C36.2985366,59.2027317 36.396878,59.2197073 36.5010732,59.2120976 C36.6040976,59.118439 36.7077073,59.1921951 36.8195122,59.1125854 C36.9869268,59.1079024 37.086439,59.0200976 37.2614634,59.0364878 C37.3428293,58.9451707 37.4546341,59.016 37.524878,58.9533659 C37.7941463,58.8667317 38.0862439,58.8169756 38.3449756,58.7244878 C38.5299512,58.6694634 38.6675122,58.5927805 38.8682927,58.5705366 C39.1990244,58.4686829 39.4056585,58.3627317 39.779122,58.2755122 C39.924878,58.1777561 40.1186341,58.1566829 40.2766829,58.0846829 C40.7654634,57.8961951 41.2466341,57.7399024 41.7365854,57.4999024 C41.9110244,57.4677073 42.0345366,57.3500488 42.204878,57.3032195 C42.3377561,57.2850732 42.4548293,57.1633171 42.5882927,57.1633171 C42.737561,56.9730732 43.08,56.9806829 43.2263415,56.8074146 C43.4347317,56.7160976 43.5863415,56.6774634 43.7882927,56.5545366 C44.1816585,56.3250732 44.4954146,56.1851707 44.9180488,55.9252683 C44.993561,55.8819512 45.0515122,55.896 45.0995122,55.8122927 C45.3125854,55.7057561 45.5057561,55.5553171 45.7486829,55.4657561 C45.8007805,55.4119024 45.8470244,55.3633171 45.924878,55.3486829 C45.9828293,55.2403902 46.0922927,55.2679024 46.1596098,55.1736585 C46.3258537,55.1016585 46.3908293,54.9793171 46.5681951,54.9389268 C46.6220488,54.8856585 46.6641951,54.8347317 46.7438049,54.8218537 C46.806439,54.7662439 46.8520976,54.6971707 46.9147317,54.641561 C47.0774634,54.6181463 47.2366829,54.4091707 47.3800976,54.347122 C47.7389268,54.0995122 48.0749268,53.8372683 48.420878,53.574439 C48.5361951,53.5363902 48.5964878,53.3877073 48.702439,53.3397073 C48.8318049,53.2636098 48.9225366,53.1705366 49.0220488,53.0610732 C49.1982439,53.0130732 49.2386341,52.8503415 49.392,52.7859512 C50.4374634,51.8985366 51.4138537,50.9537561 52.3293659,49.9317073 C52.3843902,49.8380488 52.512,49.7929756 52.5512195,49.697561 C52.6478049,49.547122 52.8234146,49.3838049 52.9486829,49.260878 C52.9955122,49.1262439 53.1395122,49.0056585 53.2413659,48.9096585 C53.2840976,48.7252683 53.4643902,48.6965854 53.5123902,48.5297561 C53.7365854,48.2370732 53.9789268,47.9402927 54.1902439,47.6394146 C54.2312195,47.5235122 54.329561,47.5164878 54.348878,47.3830244 C54.4612683,47.2677073 54.5941463,47.129561 54.641561,46.9732683 C54.7147317,46.9287805 54.7445854,46.883122 54.7586341,46.7976585 C54.8119024,46.7432195 54.864,46.7028293 54.8757073,46.6220488 C55.0577561,46.4388293 55.1818537,46.1783415 55.3486829,45.9834146 C55.3720976,45.9014634 55.3925854,45.852878 55.4657561,45.8078049 C55.788878,45.1814634 56.3490732,44.3461463 56.6318049,43.6940488 C56.712,43.6548293 56.801561,43.428878 56.6634146,43.4101463 C53.8161951,43.4072195 50.9268293,43.4130732 48.0842927,43.4072195 C48.0070244,43.3358049 47.8665366,43.374439 47.7658537,43.3510244 C47.5299512,43.3662439 47.3397073,43.2755122 47.0885854,43.2901463 C47.0042927,43.2286829 46.8948293,43.2374634 46.7964878,43.2316098 C46.6852683,43.1291707 46.5681951,43.193561 46.4522927,43.1098537 C46.3159024,43.0922927 46.1560976,43.0770732 46.0425366,42.9927805 C45.8915122,42.977561 45.7410732,42.9020488 45.6,42.8481951 C45.2961951,42.7205854 44.9912195,42.582439 44.7219512,42.395122 C44.6593171,42.377561 44.6113171,42.342439 44.5779512,42.2903415 C44.4977561,42.2645854 44.4491707,42.2452683 44.4023415,42.1732683 C44.286439,42.137561 44.2202927,42.0380488 44.1049756,42.0023415 C44.0265366,41.8718049 43.865561,41.8044878 43.7789268,41.6780488 C43.6290732,41.4673171 43.3129756,41.3010732 43.2316098,41.0610732 C43.1537561,40.9820488 43.0677073,40.9147317 42.9927805,40.8316098 C42.9851707,40.7315122 42.8897561,40.7034146 42.8675122,40.6243902 C42.6602927,40.3322927 42.5250732,39.9804878 42.348878,39.6614634 C42.1510244,39.1890732 42.0403902,38.6669268 41.915122,38.1658537 C41.8530732,37.7367805 41.7758049,37.2561951 41.7880976,36.8195122 C41.7880976,25.3662439 41.7898537,13.9118049 41.7869268,2.45853659 C41.777561,2.35082927 41.6300488,2.34263415 41.556878,2.29931707 C40.2269268,1.73209756 38.9367805,1.31121951 37.5828293,0.934243902 C37.5213659,0.859317073 37.3726829,0.941853659 37.2913171,0.869853659 C37.2298537,0.811902439 37.152,0.879219512 37.0858537,0.787902439 C36.9781463,0.77502439 36.8786341,0.814829268 36.7931707,0.729365854 C36.7012683,0.719414634 36.630439,0.750439024 36.5590244,0.670829268 C36.4524878,0.656780488 36.348878,0.698926829 36.2663415,0.612292683 C36.1738537,0.601170732 36.102439,0.636292683 36.0321951,0.553756098 C35.9309268,0.538536585 35.8115122,0.58595122 35.7395122,0.495219512 C35.5955122,0.488195122 35.4029268,0.506926829 35.2718049,0.436682927 C35.1570732,0.432 35.0265366,0.426731707 34.9211707,0.378146341 C34.7847805,0.378146341 34.6641951,0.355317073 34.5365854,0.317268293 C34.3410732,0.337170732 34.1947317,0.24702439 34.0097561,0.255804878 C33.3576585,0.165658537 32.982439,0.121170732 32.3121951,0.0924878049 C32.2413659,0.0819512195 32.1342439,0.114731707 32.0757073,0.0714146341 C31.7233171,0.0175609756 31.2936585,0.0403902439 30.9342439,0.0316097561 L30.9342439,0 Z" id="Shape" fill="#FFFFFF"></path>
            <path d="M47.6113171,5.75239024 C47.6774634,5.72136585 47.7365854,5.79804878 47.7869268,5.83082927 C48.0362927,6.01053659 48.2792195,6.20546341 48.5262439,6.3804878 C48.5771707,6.43902439 48.6597073,6.5022439 48.7346341,6.5244878 C48.8294634,6.62517073 48.9201951,6.72643902 49.0220488,6.82185366 C49.1596098,6.85931707 49.2444878,7.01209756 49.3779512,7.05131707 C49.451122,7.11746341 49.4973659,7.20058537 49.5804878,7.25795122 C50.8583415,8.35902439 52.0478049,9.56780488 53.1155122,10.865561 C53.273561,10.9480976 53.2653659,11.1125854 53.4169756,11.2068293 C53.5065366,11.3783415 53.6599024,11.5170732 53.7635122,11.6803902 C53.910439,11.8472195 54.0245854,12.0433171 54.1779512,12.2019512 C54.2282927,12.3201951 54.3254634,12.3722927 54.348878,12.4999024 C54.486439,12.6076098 54.5069268,12.7422439 54.6462439,12.8458537 C54.6878049,12.9869268 54.8189268,13.0296585 54.8558049,13.1672195 C55.008,13.4083902 55.1964878,13.7051707 55.3603902,13.9317073 C55.3761951,13.9960976 55.4113171,14.0435122 55.4657561,14.075122 C55.4874146,14.1822439 55.5646829,14.2917073 55.6413659,14.3678049 C55.6764878,14.5258537 55.806439,14.6130732 55.8509268,14.7512195 C56.0435122,15.0702439 56.3069268,15.5338537 56.4790244,15.8634146 C56.532878,16.0571707 56.664,16.1057561 56.6903415,16.3053659 C56.784,16.3586341 56.7693659,16.4470244 56.8074146,16.5400976 C56.9537561,16.6267317 56.9180488,16.8614634 57.0462439,16.9434146 C57.0930732,17.1746341 57.2218537,17.3461463 57.3389268,17.5287805 C57.4003902,17.8548293 57.6017561,18.1129756 57.6854634,18.4138537 C57.7779512,18.5420488 57.7674146,18.689561 57.8657561,18.8165854 C57.8874146,18.9196098 57.929561,19.019122 57.9828293,19.1098537 C58.0261463,19.3281951 58.1502439,19.5160976 58.1994146,19.7268293 C58.3627317,20.1213659 58.4388293,20.3882927 58.5722927,20.7804878 C58.6302439,20.9315122 58.5845854,21.0714146 58.6782439,21.1902439 C58.6682927,21.3219512 58.7683902,21.3523902 58.739122,21.5145366 C58.7853659,21.5537561 58.8046829,21.612878 58.7976585,21.6907317 C58.8801951,21.7609756 58.8456585,21.8318049 58.8561951,21.9242927 C58.9006829,21.9623415 58.9194146,22.0103415 58.9123902,22.0682927 C58.9586341,22.1976585 59.0318049,22.3644878 59.0318049,22.5108293 C59.0973659,22.5828293 59.0850732,22.656 59.0903415,22.7443902 C59.153561,22.8169756 59.1441951,22.8907317 59.148878,22.979122 C59.2074146,23.051122 59.2027317,23.1266341 59.2074146,23.2132683 C59.2682927,23.297561 59.2600976,23.4070244 59.2659512,23.5053659 C59.328,23.5773659 59.3180488,23.6522927 59.3244878,23.7400976 C59.3795122,23.8185366 59.376,23.9397073 59.3830244,24.0327805 C59.4749268,24.155122 59.3929756,24.2926829 59.4883902,24.4062439 C59.5352195,24.5022439 59.4790244,24.6292683 59.5633171,24.7281951 C59.5709268,24.8376585 59.5586341,24.9851707 59.6218537,25.0794146 C59.6013659,25.2878049 59.688,25.4429268 59.6868293,25.6390244 C59.7377561,26.0294634 59.7980488,26.4163902 59.8279024,26.8097561 C59.8963902,27.0333659 59.8360976,27.3137561 59.9145366,27.5379512 C59.9274146,28.0483902 59.9601951,28.56 59.9683902,29.0727805 L60,29.1026341 L60,30.8089756 L59.9678049,30.8083902 C59.9543415,31.230439 59.9496585,31.6565854 59.916878,32.0780488 C59.9326829,32.3596098 59.8483902,32.5867317 59.8583415,32.897561 C59.7886829,33.1662439 59.8296585,33.4039024 59.7617561,33.6585366 C59.7441951,33.9336585 59.6803902,34.1209756 59.6803902,34.3937561 C59.6247805,34.4938537 59.6277073,34.6331707 59.6218537,34.7449756 C59.5644878,34.8649756 59.568,35.0247805 59.5633171,35.1547317 C59.4626341,35.2776585 59.5574634,35.412878 59.4573659,35.5276098 C59.411122,35.790439 59.3397073,36.0520976 59.3291707,36.3254634 C59.2437073,36.4290732 59.3022439,36.5326829 59.2349268,36.6439024 C59.2220488,36.8054634 59.1436098,36.9201951 59.153561,37.086439 C59.0938537,37.158439 59.0997073,37.2339512 59.0950244,37.3205854 C59.0341463,37.3925854 59.0411707,37.4675122 59.0364878,37.5547317 C58.974439,37.6267317 58.9838049,37.7010732 58.9779512,37.7882927 C58.9363902,37.8327805 58.9164878,37.8913171 58.9194146,37.9644878 C58.8684878,38.0364878 58.8649756,38.1137561 58.860878,38.1980488 C58.8234146,38.2407805 58.8046829,38.2881951 58.8046829,38.3414634 C58.793561,38.4526829 58.6952195,38.4819512 58.595122,38.4755122 C55.6290732,38.4760976 52.6636098,38.4755122 49.697561,38.4755122 C49.3609756,38.4731707 49.2204878,38.435122 48.8780488,38.3900488 C48.6509268,38.3900488 48.4630244,38.195122 48.2610732,38.1389268 C48.1662439,38.033561 48.0286829,37.9317073 47.9555122,37.8146341 C47.7125854,37.476878 47.6446829,37.0513171 47.5990244,36.6439024 C47.5972683,26.4392195 47.5996098,16.2339512 47.5978537,6.02926829 C47.5996098,5.93853659 47.5884878,5.84078049 47.6113171,5.75239024 Z" id="Shape" fill="#3D3D55"></path>
            <path d="M30.497561,23.0645854 C30.9266341,23.0306341 31.3557073,23.04 31.7853659,23.0388293 C32.3127805,23.0411707 32.8390244,23.0277073 33.3658537,23.0680976 C33.5484878,23.1336585 33.7937561,23.0657561 33.977561,23.153561 C34.230439,23.1459512 34.4101463,23.2091707 34.6536585,23.2360976 C34.776,23.2653659 34.8930732,23.2454634 35.004878,23.2993171 C35.2905366,23.3830244 35.4714146,23.3988293 35.7658537,23.4878049 C36.5970732,23.7588293 37.3422439,24.059122 38.0487805,24.5707317 C38.3496585,24.7393171 38.5720976,25.0021463 38.8413659,25.1976585 C38.9139512,25.3726829 39.1252683,25.4839024 39.1879024,25.6706341 C39.2593171,25.7467317 39.3354146,25.7982439 39.3635122,25.9047805 C39.4179512,25.9562927 39.4647805,26.0042927 39.4805854,26.0803902 C39.5531707,26.1272195 39.5719024,26.1763902 39.5976585,26.2565854 C39.684878,26.3057561 39.6801951,26.3865366 39.731122,26.4626341 C39.8230244,26.5990244 39.8651707,26.7570732 39.953561,26.8946341 C40.0243902,27.1246829 40.163122,27.3611707 40.1830244,27.6029268 C40.2614634,27.7188293 40.2860488,27.8762927 40.3000976,28.0132683 C40.3562927,28.1063415 40.3545366,28.2017561 40.3586341,28.3059512 C40.4364878,28.4230244 40.4072195,28.5834146 40.4171707,28.715122 C40.518439,28.8263415 40.4323902,29.0124878 40.5067317,29.1512195 C40.5149268,29.3274146 40.5365854,29.5012683 40.5313171,29.6780488 C40.5324878,34.2046829 40.5319024,38.7319024 40.5319024,43.2585366 C40.5365854,43.3188293 40.5201951,43.3685854 40.4827317,43.4072195 C38.8870244,43.4113171 37.2708293,43.4107317 35.675122,43.4072195 C35.6569756,43.3609756 35.6470244,43.3118049 35.6452683,43.2585366 C35.6446829,42.7902439 35.6452683,42.3219512 35.6452683,41.8536585 C35.6323902,41.7886829 35.664,41.6692683 35.5586341,41.7049756 C35.0487805,42.2323902 34.3879024,42.7317073 33.7205854,43.0378537 C33.5947317,43.1209756 33.4817561,43.0723902 33.3658537,43.1654634 C33.2920976,43.1789268 33.2487805,43.2362927 33.1574634,43.2269268 C33.0731707,43.3112195 32.9865366,43.2386341 32.9297561,43.3486829 C32.8419512,43.3533659 32.7681951,43.3428293 32.6961951,43.4072195 C32.5943415,43.4136585 32.4907317,43.4001951 32.4035122,43.4657561 C32.2969756,43.4780488 32.1939512,43.44 32.1102439,43.5242927 C31.9703415,43.5436098 31.7543415,43.4868293 31.6419512,43.5828293 C31.0173659,43.5869268 30.3875122,43.5863415 29.7629268,43.5828293 C29.6282927,43.4903415 29.3947317,43.542439 29.2355122,43.5242927 C29.1389268,43.4341463 28.9498537,43.4809756 28.8263415,43.4657561 C28.7543415,43.392 28.6823415,43.4154146 28.5916098,43.4072195 C28.5196098,43.3486829 28.4440976,43.3545366 28.3574634,43.3486829 C28.284878,43.2965854 28.2081951,43.296 28.1233171,43.2901463 C28.0501463,43.2310244 27.9781463,43.2339512 27.8903415,43.2316098 C27.7340488,43.1239024 27.5297561,43.1157073 27.3693659,42.9927805 C27.0860488,42.9365854 26.7822439,42.7053659 26.5399024,42.5900488 C26.177561,42.3594146 25.8339512,42.0913171 25.529561,41.7869268 C25.4757073,41.6265366 25.2725854,41.5258537 25.1800976,41.3818537 C25.1426341,41.2419512 25.0044878,41.2050732 24.9681951,41.0604878 C24.8757073,40.9960976 24.8833171,40.8878049 24.7879024,40.8321951 C24.6643902,40.5389268 24.4600976,40.259122 24.3828293,39.9482927 C24.2247805,39.6749268 24.1451707,39.2897561 24.0737561,38.982439 C23.9719024,38.718439 24.0070244,38.4948293 23.9361951,38.2243902 C23.8612683,37.601561 23.8437073,36.9137561 23.958439,36.2956098 C24.0035122,36.0930732 23.9923902,35.8782439 24.0901463,35.681561 C24.1235122,35.4058537 24.246439,35.2273171 24.3178537,34.968 C24.3734634,34.7771707 24.4823415,34.6279024 24.5537561,34.4458537 C24.6409756,34.3966829 24.6310244,34.3141463 24.6883902,34.2398049 C24.7258537,34.1683902 24.7761951,34.1198049 24.7879024,34.0360976 C24.8435122,33.9734634 24.9125854,33.9289756 24.9681951,33.8663415 C24.996878,33.7475122 25.1233171,33.6632195 25.2023415,33.5730732 C25.2263415,33.4934634 25.3036098,33.4366829 25.3539512,33.3699512 C25.6858537,33.0310244 26.052878,32.7371707 26.4585366,32.4907317 C26.5211707,32.4772683 26.5715122,32.448 26.6089756,32.4029268 C26.8706341,32.2577561 27.1182439,32.124878 27.3992195,32.0323902 C27.8189268,31.889561 28.3890732,31.6846829 28.8327805,31.6413659 C28.9802927,31.5500488 29.123122,31.6243902 29.2682927,31.5494634 C29.4439024,31.5201951 29.6183415,31.5272195 29.795122,31.5266341 C29.9929756,31.4388293 30.2171707,31.4885854 30.4390244,31.4505366 C32.0780488,31.446439 33.7170732,31.4505366 35.3560976,31.4481951 C35.4152195,31.452878 35.4673171,31.4423415 35.5112195,31.4171707 C35.5557073,31.032 35.5188293,30.5988293 35.5305366,30.204878 C35.5387317,30.1164878 35.4813659,30.0602927 35.4977561,29.9707317 C35.5053659,29.7611707 35.4509268,29.5592195 35.4462439,29.3525854 C35.3865366,29.2805854 35.3912195,29.2062439 35.3877073,29.1190244 C35.3004878,29.0054634 35.2483902,28.8468293 35.2120976,28.7086829 C35.1283902,28.6606829 35.1143415,28.5646829 35.0950244,28.4757073 C35.0247805,28.398439 34.9445854,28.3486829 34.9194146,28.241561 C34.7683902,28.068878 34.6179512,27.96 34.4195122,27.8493659 C34.3545366,27.8353171 34.3159024,27.7077073 34.2439024,27.7118049 C33.1943415,27.1884878 31.9000976,27.2300488 30.7317073,27.3026341 C30.4952195,27.3652683 30.192,27.3640976 29.9748293,27.468878 C29.6089756,27.5906341 29.2811707,27.6842927 28.9720976,27.9190244 C28.7953171,27.9611707 28.7537561,28.1654634 28.5740488,28.2269268 C28.4189268,28.3639024 28.2667317,28.5002927 28.1239024,28.6507317 C28.0612683,28.7379512 27.9816585,28.8257561 27.8961951,28.8901463 C27.7258537,28.7865366 27.6556098,28.620878 27.4952195,28.5237073 C27.3822439,28.3925854 27.2078049,28.2801951 27.1340488,28.1244878 C27.0614634,28.1022439 27.0181463,28.0513171 26.9637073,28.0039024 C26.4392195,27.4823415 25.8462439,26.9262439 25.3053659,26.382439 C25.0993171,26.2519024 24.9160976,26.0195122 24.7293659,25.8462439 C24.7252683,25.806439 24.7252683,25.7654634 24.7293659,25.7244878 C25.1180488,25.3562927 25.5155122,24.9529756 25.9317073,24.641561 C26.0130732,24.5601951 26.1400976,24.4600976 26.256,24.4413659 C26.3484878,24.3617561 26.3859512,24.2540488 26.5170732,24.2300488 C26.6318049,24.2218537 26.6499512,24.1358049 26.7512195,24.1006829 C26.9133659,23.9642927 27.1170732,23.904 27.3038049,23.7927805 C27.4835122,23.7640976 27.5988293,23.646439 27.779122,23.6218537 C27.9681951,23.4995122 28.217561,23.489561 28.4165854,23.3830244 C28.8310244,23.3034146 29.3385366,23.1605854 29.7693659,23.153561 C29.9467317,23.0903415 30.1668293,23.1014634 30.3541463,23.0950244 C30.3945366,23.0710244 30.4425366,23.0610732 30.497561,23.0645854 Z" id="Shape" fill="#FFFFFF"></path>
            <path d="M30.7574634,34.9147317 C31.0612683,34.8954146 31.3633171,34.872 31.6682927,34.8749268 C32.8583415,34.8749268 34.0489756,34.8755122 35.2390244,34.8743415 C35.3250732,34.8796098 35.4392195,34.8573659 35.5147317,34.9036098 C35.5603902,35.5633171 35.513561,36.4214634 35.5047805,37.0858537 C35.4005854,37.1672195 35.4878049,37.272 35.4245854,37.3498537 C35.363122,37.4212683 35.4222439,37.5242927 35.3642927,37.5834146 C35.2981463,37.824 35.1365854,38.1354146 34.9867317,38.3414634 C34.9545366,38.4474146 34.7882927,38.5164878 34.728,38.5908293 C34.3047805,38.9865366 33.7000976,39.318439 33.1317073,39.3892683 C32.9947317,39.4729756 32.8243902,39.3892683 32.6961951,39.4852683 C32.1102439,39.4893659 31.5190244,39.4893659 30.9330732,39.4852683 C30.8089756,39.3916098 30.6837073,39.4694634 30.5560976,39.3886829 C30.2803902,39.3500488 29.988878,39.2218537 29.7441951,39.0866341 C29.3268293,38.8442927 28.9258537,38.4339512 28.8316098,37.9562927 C28.7479024,37.8286829 28.8099512,37.704 28.7332683,37.5804878 C28.7069268,37.3182439 28.7086829,37.0238049 28.7326829,36.7609756 C28.8058537,36.6485854 28.7525854,36.5332683 28.8158049,36.4138537 C28.8971707,36.2599024 28.9299512,36.054439 29.0370732,35.9443902 C29.1670244,35.6973659 29.4093659,35.4714146 29.6517073,35.3291707 C29.705561,35.2337561 29.7933659,35.2583415 29.8858537,35.2120976 C30.0444878,35.1201951 30.1996098,35.0505366 30.3804878,35.0119024 C30.5028293,34.9399024 30.6310244,34.985561 30.7574634,34.9147317 Z" id="Shape" fill="#3D3D55"></path>
        </g>
    </g>
</svg>