<?xml version="1.0" encoding="UTF-8" standalone="no"?>
<svg
   xmlns:dc="http://purl.org/dc/elements/1.1/"
   xmlns:cc="http://creativecommons.org/ns#"
   xmlns:rdf="http://www.w3.org/1999/02/22-rdf-syntax-ns#"
   xmlns:svg="http://www.w3.org/2000/svg"
   xmlns="http://www.w3.org/2000/svg"
   xmlns:sodipodi="http://sodipodi.sourceforge.net/DTD/sodipodi-0.dtd"
   xmlns:inkscape="http://www.inkscape.org/namespaces/inkscape"
   version="1.0"
   width="455pt"
   height="455pt"
   viewBox="0 0 455 455"
   preserveAspectRatio="xMidYMid meet"
   id="svg16"
   sodipodi:docname="speaking.svg"
   inkscape:version="0.92.3 (2405546, 2018-03-11)">
  <metadata
     id="metadata22">
    <rdf:RDF>
      <cc:Work
         rdf:about="">
        <dc:format>image/svg+xml</dc:format>
        <dc:type
           rdf:resource="http://purl.org/dc/dcmitype/StillImage" />
        <dc:title></dc:title>
      </cc:Work>
    </rdf:RDF>
  </metadata>
  <defs
     id="defs20" />
  <path
     style="fill:#3d3d55;stroke:none;stroke-width:0.1"
     inkscape:connector-curvature="0"
     id="path4"
     d="m 42,51.9 c -9,2.8 -17.4,10.3 -20.6,18.7 -1.800001,4.7 -1.900001,10.1 -1.900001,174.9 v 170 L 21.6,420.1 c 3.1,6.7 8.7,12.4 15.2,15.6 l 5.7,2.8 h 84 84 l 5.7,-2.8 c 3.2,-1.6 7.5,-4.8 9.7,-7.3 6.5,-7.4 7.4,-11.1 7.9,-33.6 l 0.4,-19.7 -2.9,-0.6 c -8.3,-1.8 -20.1,-6.2 -26.9,-10.2 -16.1,-9.4 -29.9,-27.3 -31.2,-40.3 -1.1,-11.5 8.7,-22 23.8,-25.4 4.6,-1.1 11.9,-1.6 21.9,-1.6 h 15 l 0.3,-26.3 c 0.3,-25.1 0.4,-26.4 2.6,-30.5 3.1,-5.8 8.8,-11.4 14.8,-14.3 4.5,-2.2 6.4,-2.4 24.9,-2.9 21.9,-0.6 23.9,-1.1 28.8,-7 3,-3.5 4.2,-8.3 3.5,-14.3 -0.6,-5.1 -48.7,-122.2 -53,-129 C 250,63.6 237.1,54.6 226,52.1 220.7,50.9 46,50.7 42,51.9 Z m 158,47.3 c 6.3,3.2 9.2,8.5 8.7,16 -0.7,12.2 -12.5,19.3 -24.1,14.4 -8.4,-3.5 -12.2,-15.8 -7.4,-24.1 2.7,-4.7 9.4,-8.5 14.8,-8.5 2,0 5.6,1 8,2.2 z" />
  <path
     style="fill:#3d3d55;stroke:none;stroke-width:0.1"
     inkscape:connector-curvature="0"
     id="path8"
     d="m 371.7,216.4 c -5,1.8 -8.5,5.1 -10.8,10.1 -3.8,8.1 -2,13.9 7.1,24.1 20.6,22.5 31.3,48.5 32.7,78.9 1.5,31.4 -8.8,62.1 -28.3,84.6 -9.9,11.5 -12.3,14.9 -13,18.5 -2.4,13.1 10,24.7 22.8,21.4 8.3,-2.2 26,-23.2 37.1,-44 28.4,-53.3 23.3,-121.7 -12.8,-170.6 -6.8,-9.2 -17.1,-20.1 -20.6,-21.9 -4.2,-2.2 -10,-2.7 -14.2,-1.1 z" />
  <path
     style="fill:#3d3d55;stroke:none;stroke-width:0.1"
     inkscape:connector-curvature="0"
     id="path10"
     d="m 326.3,264.1 c -2,1.3 -3.8,3.7 -4.9,6.5 -2.3,6.1 -0.9,10.6 6.1,18.6 6.5,7.5 11.4,16.5 14.6,26.8 3.3,10.6 3.3,27.4 0,38 -3.2,10.3 -8.1,19.3 -14.6,26.8 -8.9,10.2 -9.5,17.5 -1.9,24.2 2.8,2.4 4.4,3 8.2,3 6.4,0 9.6,-2.2 17.4,-11.9 9.8,-12.3 16.9,-27.6 19.9,-43.4 1.8,-9 1.5,-28.7 -0.5,-38.1 -2,-9.1 -6.4,-20.7 -10.8,-28.4 -4.4,-7.7 -14.4,-20 -18.1,-22.2 -4.3,-2.6 -11.2,-2.6 -15.4,0.1 z" />
  <path
     style="fill:#3d3d55;stroke:none;stroke-width:0.1"
     inkscape:connector-curvature="0"
     id="path12"
     d="m 290.6,297.1 c -3.7,4.3 -3.3,7.5 1.5,13.9 5.9,7.8 8.2,13.4 8.7,21.6 0.6,9.6 -1.5,16.4 -7.8,25 -5.9,8.1 -6.3,11.2 -2.1,15.5 2.2,2.2 3.9,2.9 6.7,2.9 3.2,0 4.4,-0.7 8,-4.7 8.8,-9.6 13.6,-22.3 13.7,-36.2 0,-13.9 -4.8,-26.7 -13.7,-36.4 -3.8,-4.1 -4.8,-4.7 -8.4,-4.7 -3.3,0 -4.5,0.6 -6.6,3.1 z" />
</svg>
